{
.appVersion = "3201";
.formatVersion = 3;
axes = (
{
name = Weight;
tag = wght;
}
);
classes = (
{
code = "o a c d e g q s u y t acircumflex adieresis ccedilla ecircumflex odieresis udieresis u_alt y_alt s_alt c_alt t_alt t2.alt g_alt a_alt abreve scedilla tcedilla scommaaccent tcommaaccent a_alt be_alt ie-cy ze-cy o-cy es-cy ef-cy ereversed-cy io-cy space zero one three five six seven eight nine f v endash emdash hyphen.case endash.case emdash.case minus hyphen t0163.alt t021b.alt a2_alt a00E2.alt a00E4.alt a0103.alt
";
name = calt2;
},
{
code = "zero one two three four five six seven eight nine period comma colon semicolon quotesingle quotedbl quoteright quotedblright quoteleft quotedblleft quotesinglbase quotedblbase colon.case
";
name = pnum1;
},
{
code = "zero one two three four five six seven eight nine A B C D E F G H I J K L M N O P Q R S T U V W X Y Z A-cy Be-cy Ve-cy Ge-cy Geupturn-cy De-cy Ie-cy Io-cy Zhe-cy Ze-cy Ii-cy Iishort-cy Ka-cy El-cy Em-cy En-cy O-cy Pe-cy Er-cy Es-cy Te-cy U-cy Ushort-cy Ef-cy Ha-cy Che-cy Tse-cy Sha-cy Shcha-cy Softsign-cy Yeru-cy Hardsign-cy Dze-cy E-cy Ereversed-cy I-cy Yi-cy Je-cy Yu-cy Ya-cy Zhebreve-cy  K_alt W_alt Acircumflex Adieresis Ccedilla Ecircumflex Icircumflex Odieresis Udieresis Abreve Idotaccent Scedilla Tcedilla Scommaaccent Tcommaaccent
";
name = calt1;
},
{
code = "zero one two three four five six seven eight nine period comma colon semicolon quotesingle quotedbl quoteright quotedblright quoteleft quotedblleft quotesinglbase quotedblbase colon.case
";
name = pnum1;
}
);
customParameters = (
{
name = fsType;
value = (
);
},
{
name = "Use Typo Metrics";
value = 1;
}
);
date = "2022-02-06 15:34:46 +0000";
familyName = Onest;
featurePrefixes = (
{
automatic = 1;
code = "languagesystem DFLT dflt;

languagesystem latn dflt;
languagesystem latn AZE;
languagesystem latn CRT;
languagesystem latn KAZ;
languagesystem latn TAT;
languagesystem latn TRK;
languagesystem latn ROM;
languagesystem latn MOL;

glyphs = (
{
glyphname = A;
kernLeft = _kern30;
kernRight = _kern30;
lastChange = "2023-07-18 14:39:23 +0000";
layers = (
{
anchors = (
{
name = bottom;
pos = (319,0);
},
{
name = ogonek;
pos = (574,10);
},
{
name = top;
pos = (319,707);
}
);
background = {
shapes = (
{
closed = 1;
nodes = (
(64,0,l),
(127,163,l),
(509,163,l),
(573,0,l),
(622,0,l),
(341,707,l),
(294,707,l),
(16,0,l)
);
},
{
closed = 1;
nodes = (
(318,657,l),
(494,200,l),
(141,200,l)
);
}
);
};
layerId = "C40D20BD-ED25-41E0-AB09-CBCE7F0BE71F";
shapes = (
{
closed = 1;
nodes = (
(64,0,l),
(127,163,l),
(509,163,l),
(573,0,l),
(622,0,l),
(341,707,l),
(294,707,l),
(16,0,l)
);
},
{
closed = 1;
nodes = (
(318,657,l),
(494,200,l),
(141,200,l)
);
}
);
width = 638;
},
{
anchors = (
{
name = bottom;
pos = (370,0);
},
{
name = ogonek;
pos = (665,10);
},
{
name = top;
pos = (370,708);
}
);
background = {
shapes = (
{
closed = 1;
nodes = (
(189,0,l),
(225,100,l),
(514,100,l),
(549,0,l),
(744,0,l),
(463,708,l),
(279,708,l),
(-5,0,l)
);
},
{
closed = 1;
nodes = (
(371,506,l),
(457,263,l),
(282,263,l)
);
}
);
};
layerId = "23E38C8A-2B24-4DB5-9E17-0B4F7F415987";
shapes = (
{
closed = 1;
nodes = (
(189,0,l),
(225,100,l),
(514,100,l),
(549,0,l),
(744,0,l),
(463,708,l),
(279,708,l),
(-5,0,l)
);
},
{
closed = 1;
nodes = (
(371,506,l),
(457,263,l),
(282,263,l)
);
}
);
width = 739;
},
{
anchors = (
{
name = bottom;
pos = (335,0);
},
{
name = ogonek;
pos = (603,10);
},
{
name = top;
pos = (335,707);
}
);
background = {
shapes = (
{
closed = 1;
nodes = (
(104,0,l),
(160,152,l),
(510,152,l),
(566,0,l),
(660,0,l),
(398,707,l),
(273,707,l),
(10,0,l)
);
},
{
closed = 1;
nodes = (
(335,631,l),
(481,231,l),
(189,231,l)
);
}
);
};
layerId = "4D7D8508-C814-4895-A1FC-EEB9C269F35C";
shapes = (
{
closed = 1;
nodes = (
(104,0,l),
(160,152,l),
(510,152,l),
(566,0,l),
(660,0,l),
(398,707,l),
(273,707,l),
(10,0,l)
);
},
{
closed = 1;
nodes = (
(335,631,l),
(481,231,l),
(189,231,l)
);
}
);
width = 670;
}
);
unicode = 65;
},
{
glyphname = Aacute;
kernLeft = _kern30;
kernRight = _kern30;
lastChange = "2023-07-19 12:42:54 +0000";
layers = (
{
background = {
shapes = (
{
closed = 1;
nodes = (
(64,0,l),
(127,163,l),
(509,163,l),
(573,0,l),
(622,0,l),
(341,707,l),
(294,707,l),
(16,0,l)
);
},
{
closed = 1;
nodes = (
(318,657,l),
(494,200,l),
(141,200,l)
);
},
{
closed = 1;
nodes = (
(339,796,l),
(427,923,l),
(377,923,l),
(301,796,l)
);
}
);
};
layerId = "C40D20BD-ED25-41E0-AB09-CBCE7F0BE71F";
shapes = (
{
ref = A;
},
{
pos = (319,180);
ref = acutecomb;
}
);
width = 638;
},
{
background = {
shapes = (
{
closed = 1;
nodes = (
(189,0,l),
(225,100,l),
(514,100,l),
(549,0,l),
(744,0,l),
(463,708,l),
(279,708,l),
(-5,0,l)
);
},
{
closed = 1;
nodes = (
(371,506,l),
(457,263,l),
(282,263,l)
);
},
{
closed = 1;
nodes = (
(418,758,l),
(589,950,l),
(402,950,l),
(270,758,l)
);
}
);
};
layerId = "23E38C8A-2B24-4DB5-9E17-0B4F7F415987";
shapes = (
{
ref = A;
},
{
pos = (370,181);
ref = acutecomb;
}
);
width = 739;
},
{
background = {
shapes = (
{
closed = 1;
nodes = (
(104,0,l),
(160,152,l),
(510,152,l),
(566,0,l),
(660,0,l),
(398,707,l),
(273,707,l),
(10,0,l)
);
},
{
closed = 1;
nodes = (
(335,631,l),
(481,231,l),
(189,231,l)
);
},
{
closed = 1;
nodes = (
(372,786,l),
(472,927,l),
(380,927,l),
(295,786,l)
);
}
);
};
layerId = "4D7D8508-C814-4895-A1FC-EEB9C269F35C";
shapes = (
{
ref = A;
},
{
pos = (335,174);
ref = acutecomb;
}
);
width = 670;
}
);
unicode = 193;
},
{
glyphname = Abreve;
lastChange = "2023-07-18 14:39:28 +0000";
layers = (
{
background = {
shapes = (
{
closed = 1;
nodes = (
(64,0,l),
(127,163,l),
(509,163,l),
(573,0,l),
(622,0,l),
(341,707,l),
(294,707,l),
(16,0,l)
);
},
{
closed = 1;
nodes = (
(318,657,l),
(494,200,l),
(141,200,l)
);
},
{
closed = 1;
nodes = (
(390,796,o),
(455,818,o),
(466,895,c),
(427,895,l),
(416,840,o),
(371,829,o),
(319,829,cs),
(266,829,o),
(222,840,o),
(211,895,c),
(172,895,l),
(183,817,o),
(245,796,o),
(318,796,cs)
);
}
);
};
layerId = "C40D20BD-ED25-41E0-AB09-CBCE7F0BE71F";
shapes = (
{
ref = A;
},
{
pos = (319,160);
ref = brevecomb;
}
);
width = 638;
},
{
background = {
shapes = (
{
closed = 1;
nodes = (
(189,0,l),
(225,100,l),
(514,100,l),
(549,0,l),
(744,0,l),
(463,708,l),
(279,708,l),
(-5,0,l)
);
},
{
closed = 1;
nodes = (
(371,506,l),
(457,263,l),
(282,263,l)
);
},
{
closed = 1;
nodes = (
(495,758,o),
(572,821,o),
(572,950,c),
(430,950,l),
(430,938,ls),
(430,901,o),
(406,879,o),
(369,879,cs),
(333,879,o),
(308,902,o),
(308,938,cs),
(308,950,l),
(166,950,l),
(166,819,o),
(243,758,o),
(368,758,cs)
);
}
);
};
layerId = "23E38C8A-2B24-4DB5-9E17-0B4F7F415987";
shapes = (
{
ref = A;
},
{
pos = (370,181);
ref = brevecomb;
}
);
width = 739;
},
{
background = {
shapes = (
{
closed = 1;
nodes = (
(104,0,l),
(160,152,l),
(510,152,l),
(566,0,l),
(660,0,l),
(398,707,l),
(273,707,l),
(10,0,l)
);
},
{
closed = 1;
nodes = (
(335,631,l),
(481,231,l),
(189,231,l)
);
},
{
closed = 1;
nodes = (
(441,794,o),
(505,840,o),
(508,927,c),
(430,927,l),
(427,880,o),
(393,860,o),
(337,860,cs),
(281,860,o),
(247,880,o),
(244,927,c),
(166,927,l),
(169,840,o),
(231,794,o),
(336,794,cs)
);
}
);
};
layerId = "4D7D8508-C814-4895-A1FC-EEB9C269F35C";
shapes = (
{
ref = A;
},
{
pos = (335,180);
ref = brevecomb;
}
);
width = 670;
}
);
unicode = 258;
},
{
glyphname = Acircumflex;
kernLeft = _kern30;
kernRight = _kern30;
lastChange = "2023-07-19 12:43:11 +0000";
layers = (
{
background = {
shapes = (
{
closed = 1;
nodes = (
(64,0,l),
(127,163,l),
(509,163,l),
(573,0,l),
(622,0,l),
(341,707,l),
(294,707,l),
(16,0,l)
);
},
{
closed = 1;
nodes = (
(318,657,l),
(494,200,l),
(141,200,l)
);
},
{
closed = 1;
nodes = (
(236,796,l),
(318,894,l),
(403,796,l),
(446,796,l),
(335,923,l),
(303,923,l),
(192,796,l)
);
}
);
};
layerId = "C40D20BD-ED25-41E0-AB09-CBCE7F0BE71F";
shapes = (
{
ref = A;
},
{
pos = (319,180);
ref = circumflexcomb;
}
);
width = 638;
},
{
background = {
shapes = (
{
closed = 1;
nodes = (
(189,0,l),
(225,100,l),
(514,100,l),
(549,0,l),
(744,0,l),
(463,708,l),
(279,708,l),
(-5,0,l)
);
},
{
closed = 1;
nodes = (
(371,506,l),
(457,263,l),
(282,263,l)
);
},
{
closed = 1;
nodes = (
(310,758,l),
(368,842,l),
(429,758,l),
(595,758,l),
(426,950,l),
(310,950,l),
(144,758,l)
);
}
);
};
layerId = "23E38C8A-2B24-4DB5-9E17-0B4F7F415987";
shapes = (
{
ref = A;
},
{
pos = (369,181);
ref = circumflexcomb;
}
);
width = 739;
},
{
background = {
shapes = (
{
closed = 1;
nodes = (
(104,0,l),
(160,152,l),
(510,152,l),
(566,0,l),
(660,0,l),
(398,707,l),
(273,707,l),
(10,0,l)
);
},
{
closed = 1;
nodes = (
(335,631,l),
(481,231,l),
(189,231,l)
);
},
{
closed = 1;
nodes = (
(261,786,l),
(339,883,l),
(417,786,l),
(503,786,l),
(369,949,l),
(309,949,l),
(176,786,l)
);
}
);
};
layerId = "4D7D8508-C814-4895-A1FC-EEB9C269F35C";
shapes = (
{
ref = A;
},
{
pos = (334,180);
ref = circumflexcomb;
}
);
width = 670;
}
);
unicode = 194;
},
{
glyphname = Adieresis;
kernLeft = _kern30;
kernRight = _kern30;
lastChange = "2023-07-19 12:43:47 +0000";
layers = (
{
background = {
shapes = (
{
closed = 1;
nodes = (
(64,0,l),
(127,163,l),
(509,163,l),
(573,0,l),
(622,0,l),
(341,707,l),
(294,707,l),
(16,0,l)
);
},
{
closed = 1;
nodes = (
(318,657,l),
(494,200,l),
(141,200,l)
);
},
{
closed = 1;
nodes = (
(237,796,o),
(253,812,o),
(253,835,cs),
(253,858,o),
(237,874,o),
(212,874,cs),
(188,874,o),
(173,856,o),
(173,835,cs),
(173,814,o),
(188,796,o),
(212,796,cs)
);
},
{
closed = 1;
nodes = (
(448,796,o),
(464,812,o),
(464,835,cs),
(464,858,o),
(448,874,o),
(423,874,cs),
(399,874,o),
(384,856,o),
(384,835,cs),
(384,814,o),
(399,796,o),
(423,796,cs)
);
}
);
};
layerId = "C40D20BD-ED25-41E0-AB09-CBCE7F0BE71F";
shapes = (
{
ref = A;
},
{
pos = (318,180);
ref = dieresiscomb;
}
);
width = 638;
},
{
background = {
shapes = (
{
closed = 1;
nodes = (
(189,0,l),
(225,100,l),
(514,100,l),
(549,0,l),
(744,0,l),
(463,708,l),
(279,708,l),
(-5,0,l)
);
},
{
closed = 1;
nodes = (
(371,506,l),
(457,263,l),
(282,263,l)
);
},
{
closed = 1;
nodes = (
(299,749,o),
(342,781,o),
(342,840,cs),
(342,901,o),
(297,935,o),
(248,935,cs),
(200,935,o),
(154,900,o),
(154,840,cs),
(154,781,o),
(199,749,o),
(248,749,cs)
);
},
{
closed = 1;
nodes = (
(554,749,o),
(597,781,o),
(597,840,cs),
(597,901,o),
(552,935,o),
(503,935,cs),
(455,935,o),
(409,900,o),
(409,840,cs),
(409,781,o),
(454,749,o),
(503,749,cs)
);
}
);
};
layerId = "23E38C8A-2B24-4DB5-9E17-0B4F7F415987";
shapes = (
{
ref = A;
},
{
pos = (369,181);
ref = dieresiscomb;
}
);
width = 739;
},
{
background = {
shapes = (
{
closed = 1;
nodes = (
(104,0,l),
(160,152,l),
(510,152,l),
(566,0,l),
(660,0,l),
(398,707,l),
(273,707,l),
(10,0,l)
);
},
{
closed = 1;
nodes = (
(335,631,l),
(481,231,l),
(189,231,l)
);
},
{
closed = 1;
nodes = (
(259,788,o),
(284,811,o),
(284,844,cs),
(284,877,o),
(259,900,o),
(226,900,cs),
(194,900,o),
(169,877,o),
(169,844,cs),
(169,811,o),
(194,788,o),
(226,788,cs)
);
},
{
closed = 1;
nodes = (
(484,788,o),
(509,811,o),
(509,844,cs),
(509,877,o),
(484,900,o),
(451,900,cs),
(419,900,o),
(395,877,o),
(395,844,cs),
(395,811,o),
(419,788,o),
(451,788,cs)
);
}
);
};
layerId = "4D7D8508-C814-4895-A1FC-EEB9C269F35C";
shapes = (
{
ref = A;
},
{
pos = (335,180);
ref = dieresiscomb;
}
);
width = 670;
}
);
unicode = 196;
},
{
glyphname = Agrave;
kernLeft = _kern30;
kernRight = _kern30;
lastChange = "2023-07-20 10:00:36 +0000";
layers = (
{
background = {
shapes = (
{
closed = 1;
nodes = (
(64,0,l),
(127,163,l),
(509,163,l),
(573,0,l),
(622,0,l),
(341,707,l),
(294,707,l),
(16,0,l)
);
},
{
closed = 1;
nodes = (
(318,657,l),
(494,200,l),
(141,200,l)
);
},
{
closed = 1;
nodes = (
(342,796,l),
(266,923,l),
(216,923,l),
(304,796,l)
);
}
);
};
layerId = "C40D20BD-ED25-41E0-AB09-CBCE7F0BE71F";
shapes = (
{
ref = A;
},
{
pos = (319,180);
ref = gravecomb;
}
);
width = 638;
},
{
background = {
shapes = (
{
closed = 1;
nodes = (
(189,0,l),
(225,100,l),
(514,100,l),
(549,0,l),
(744,0,l),
(463,708,l),
(279,708,l),
(-5,0,l)
);
},
{
closed = 1;
nodes = (
(371,506,l),
(457,263,l),
(282,263,l)
);
},
{
closed = 1;
nodes = (
(495,758,l),
(363,950,l),
(176,950,l),
(347,758,l)
);
}
);
};
layerId = "23E38C8A-2B24-4DB5-9E17-0B4F7F415987";
shapes = (
{
ref = A;
},
{
pos = (344,181);
ref = gravecomb;
}
);
width = 739;
},
{
background = {
shapes = (
{
closed = 1;
nodes = (
(104,0,l),
(160,152,l),
(510,152,l),
(566,0,l),
(660,0,l),
(398,707,l),
(273,707,l),
(10,0,l)
);
},
{
closed = 1;
nodes = (
(335,631,l),
(481,231,l),
(189,231,l)
);
},
{
closed = 1;
nodes = (
(388,786,l),
(303,927,l),
(211,927,l),
(311,786,l)
);
}
);
};
layerId = "4D7D8508-C814-4895-A1FC-EEB9C269F35C";
shapes = (
{
ref = A;
},
{
pos = (328,180);
ref = gravecomb;
}
);
width = 670;
}
);
unicode = 192;
},
{
glyphname = Amacron;
kernLeft = _kern30;
kernRight = _kern30;
lastChange = "2023-07-19 12:58:09 +0000";
layers = (
{
background = {
shapes = (
{
closed = 1;
nodes = (
(64,0,l),
(127,163,l),
(509,163,l),
(573,0,l),
(622,0,l),
(341,707,l),
(294,707,l),
(16,0,l)
);
},
{
closed = 1;
nodes = (
(318,657,l),
(494,200,l),
(141,200,l)
);
},
{
closed = 1;
nodes = (
(468,822,l),
(468,857,l),
(169,857,l),
(169,822,l)
);
}
);
};
layerId = "C40D20BD-ED25-41E0-AB09-CBCE7F0BE71F";
shapes = (
{
ref = A;
},
{
pos = (318,180);
ref = macroncomb;
}
);
width = 638;
},
{
background = {
shapes = (
{
closed = 1;
nodes = (
(189,0,l),
(225,100,l),
(514,100,l),
(549,0,l),
(744,0,l),
(463,708,l),
(279,708,l),
(-5,0,l)
);
},
{
closed = 1;
nodes = (
(371,506,l),
(457,263,l),
(282,263,l)
);
},
{
closed = 1;
nodes = (
(570,797,l),
(570,950,l),
(174,950,l),
(174,797,l)
);
}
);
};
layerId = "23E38C8A-2B24-4DB5-9E17-0B4F7F415987";
shapes = (
{
ref = A;
},
{
pos = (370,181);
ref = macroncomb;
}
);
width = 739;
},
{
background = {
shapes = (
{
closed = 1;
nodes = (
(104,0,l),
(160,152,l),
(510,152,l),
(566,0,l),
(660,0,l),
(398,707,l),
(273,707,l),
(10,0,l)
);
},
{
closed = 1;
nodes = (
(335,631,l),
(481,231,l),
(189,231,l)
);
},
{
closed = 1;
nodes = (
(494,813,l),
(494,887,l),
(175,887,l),
(175,813,l)
);
}
);
};
layerId = "4D7D8508-C814-4895-A1FC-EEB9C269F35C";
shapes = (
{
ref = A;
},
{
pos = (334,180);
ref = macroncomb;
}
);
width = 670;
}
);
unicode = 256;
},
{
glyphname = Aogonek;
kernLeft = _kern30;
kernRight = _kern30;
lastChange = "2023-07-19 12:45:51 +0000";
layers = (
{
background = {
shapes = (
{
closed = 1;
nodes = (
(645,-201,o),
(663,-198,o),
(679,-191,c),
(671,-161,l),
(660,-165,o),
(643,-168,o),
(631,-168,cs),
(584,-167,o),
(554,-145,o),
(554,-97,cs),
(554,-57,o),
(582,-23,o),
(614,0,c),
(622,0,l),
(341,707,l),
(294,707,l),
(16,0,l),
(64,0,l),
(127,163,l),
(509,163,l),
(573,0,l),
(578,0,l),
(544,-20,o),
(515,-66,o),
(515,-105,cs),
(515,-172,o),
(565,-201,o),
(626,-201,cs)
);
},
{
closed = 1;
nodes = (
(318,657,l),
(494,200,l),
(141,200,l)
);
}
);
};
layerId = "C40D20BD-ED25-41E0-AB09-CBCE7F0BE71F";
shapes = (
{
ref = A;
},
{
pos = (597,0);
ref = ogonekcomb;
}
);
width = 638;
},
{
background = {
shapes = (
{
closed = 1;
nodes = (
(665,-197,o),
(697,-194,o),
(722,-179,c),
(706,-83,l),
(694,-88,o),
(682,-92,o),
(668,-92,cs),
(642,-92,o),
(623,-78,o),
(624,-51,c),
(626,-22,o),
(649,-8,o),
(674,0,c),
(744,0,l),
(463,708,l),
(279,708,l),
(-5,0,l),
(189,0,l),
(225,100,l),
(514,100,l),
(549,0,l),
(561,0,l),
(532,-17,o),
(511,-56,o),
(511,-95,cs),
(511,-157,o),
(563,-197,o),
(643,-197,cs)
);
},
{
closed = 1;
nodes = (
(371,506,l),
(457,263,l),
(282,263,l)
);
}
);
};
layerId = "23E38C8A-2B24-4DB5-9E17-0B4F7F415987";
shapes = (
{
ref = A;
},
{
pos = (616,0);
ref = ogonekcomb;
}
);
width = 739;
},
{
background = {
shapes = (
{
closed = 1;
nodes = (
(642,-224,o),
(662,-220,o),
(686,-207,c),
(672,-148,l),
(656,-156,o),
(640,-160,o),
(624,-160,cs),
(585,-160,o),
(560,-138,o),
(560,-101,cs),
(560,-57,o),
(601,-22,o),
(636,0,c),
(660,0,l),
(398,707,l),
(273,707,l),
(10,0,l),
(104,0,l),
(160,152,l),
(510,152,l),
(564,6,l),
(520,-18,o),
(486,-59,o),
(486,-111,cs),
(486,-179,o),
(534,-223,o),
(615,-224,c)
);
},
{
closed = 1;
nodes = (
(335,631,l),
(481,231,l),
(189,231,l)
);
}
);
};
layerId = "4D7D8508-C814-4895-A1FC-EEB9C269F35C";
shapes = (
{
ref = A;
},
{
pos = (586,0);
ref = ogonekcomb;
}
);
width = 670;
}
);
unicode = 260;
},
{
glyphname = Aring;
kernLeft = _kern30;
kernRight = _kern30;
lastChange = "2023-07-19 13:19:13 +0000";
layers = (
{
background = {
shapes = (
{
closed = 1;
nodes = (
(64,0,l),
(127,163,l),
(509,163,l),
(573,0,l),
(622,0,l),
(341,707,l),
(294,707,l),
(16,0,l)
);
},
{
closed = 1;
nodes = (
(318,657,l),
(494,200,l),
(141,200,l)
);
},
{
closed = 1;
nodes = (
(369,776,o),
(404,805,o),
(404,856,cs),
(404,905,o),
(371,941,o),
(319,941,cs),
(268,941,o),
(234,905,o),
(234,856,cs),
(234,807,o),
(267,776,o),
(318,776,cs)
);
},
{
closed = 1;
nodes = (
(285,802,o),
(265,822,o),
(265,857,cs),
(265,890,o),
(284,914,o),
(319,914,cs),
(354,914,o),
(373,890,o),
(373,857,cs),
(373,822,o),
(353,802,o),
(318,802,cs)
);
}
);
};
layerId = "C40D20BD-ED25-41E0-AB09-CBCE7F0BE71F";
shapes = (
{
ref = A;
},
{
pos = (319,180);
ref = ringcomb;
}
);
width = 638;
},
{
background = {
shapes = (
{
closed = 1;
nodes = (
(189,0,l),
(225,100,l),
(514,100,l),
(549,0,l),
(744,0,l),
(463,708,l),
(279,708,l),
(-5,0,l)
);
},
{
closed = 1;
nodes = (
(371,506,l),
(457,263,l),
(282,263,l)
);
},
{
closed = 1;
nodes = (
(448,724,o),
(502,773,o),
(502,845,cs),
(502,918,o),
(445,968,o),
(370,968,cs),
(295,968,o),
(236,917,o),
(236,845,cs),
(236,774,o),
(292,724,o),
(370,724,cs)
);
},
{
closed = 1;
nodes = (
(345,810,o),
(330,825,o),
(330,846,cs),
(330,867,o),
(348,882,o),
(369,882,cs),
(392,882,o),
(409,867,o),
(409,846,cs),
(409,825,o),
(393,810,o),
(369,810,cs)
);
}
);
};
layerId = "23E38C8A-2B24-4DB5-9E17-0B4F7F415987";
shapes = (
{
ref = A;
},
{
pos = (370,181);
ref = ringcomb;
}
);
width = 739;
},
{
background = {
shapes = (
{
closed = 1;
nodes = (
(104,0,l),
(160,152,l),
(510,152,l),
(566,0,l),
(660,0,l),
(398,707,l),
(273,707,l),
(10,0,l)
);
},
{
closed = 1;
nodes = (
(335,631,l),
(481,231,l),
(189,231,l)
);
},
{
closed = 1;
nodes = (
(391,753,o),
(433,789,o),
(433,848,cs),
(433,905,o),
(394,949,o),
(335,949,cs),
(276,949,o),
(236,907,o),
(236,848,cs),
(236,789,o),
(275,753,o),
(334,753,cs)
);
},
{
closed = 1;
nodes = (
(307,805,o),
(291,823,o),
(291,850,cs),
(291,877,o),
(307,895,o),
(334,895,cs),
(361,895,o),
(377,877,o),
(377,850,cs),
(377,823,o),
(361,805,o),
(334,805,cs)
);
}
);
};
layerId = "4D7D8508-C814-4895-A1FC-EEB9C269F35C";
shapes = (
{
ref = A;
},
{
pos = (334,180);
ref = ringcomb;
}
);
width = 670;
}
);
unicode = 197;
},
{
glyphname = Atilde;
kernLeft = _kern30;
kernRight = _kern30;
lastChange = "2023-07-19 12:57:27 +0000";
layers = (
{
background = {
shapes = (
{
closed = 1;
nodes = (
(64,0,l),
(127,163,l),
(509,163,l),
(573,0,l),
(622,0,l),
(341,707,l),
(294,707,l),
(16,0,l)
);
},
{
closed = 1;
nodes = (
(318,657,l),
(494,200,l),
(141,200,l)
);
},
{
closed = 1;
nodes = (
(445,792,o),
(467,835,o),
(467,894,c),
(430,894,l),
(430,861,o),
(426,822,o),
(386,822,cs),
(341,822,o),
(319,898,o),
(257,898,cs),
(194,898,o),
(174,854,o),
(174,796,c),
(211,796,l),
(208,827,o),
(216,868,o),
(254,868,cs),
(299,868,o),
(321,792,o),
(384,792,cs)
);
}
);
};
layerId = "C40D20BD-ED25-41E0-AB09-CBCE7F0BE71F";
shapes = (
{
ref = A;
},
{
pos = (318,180);
ref = tildecomb;
}
);
width = 638;
},
{
background = {
shapes = (
{
closed = 1;
nodes = (
(189,0,l),
(225,100,l),
(514,100,l),
(549,0,l),
(744,0,l),
(463,708,l),
(279,708,l),
(-5,0,l)
);
},
{
closed = 1;
nodes = (
(371,506,l),
(457,263,l),
(282,263,l)
);
},
{
closed = 1;
nodes = (
(558,758,o),
(584,835,o),
(584,911,cs),
(584,926,o),
(583,934,o),
(582,943,c),
(468,943,l),
(471,923,o),
(470,888,o),
(443,888,cs),
(406,888,o),
(376,950,o),
(305,950,cs),
(206,950,o),
(169,876,o),
(169,794,cs),
(169,780,o),
(170,772,o),
(171,763,c),
(286,763,l),
(280,783,o),
(285,826,o),
(312,826,cs),
(347,826,o),
(387,758,o),
(470,758,cs)
);
}
);
};
layerId = "23E38C8A-2B24-4DB5-9E17-0B4F7F415987";
shapes = (
{
ref = A;
},
{
pos = (369,181);
ref = tildecomb;
}
);
width = 739;
},
{
background = {
shapes = (
{
closed = 1;
nodes = (
(104,0,l),
(160,152,l),
(510,152,l),
(566,0,l),
(660,0,l),
(398,707,l),
(273,707,l),
(10,0,l)
);
},
{
closed = 1;
nodes = (
(335,631,l),
(481,231,l),
(189,231,l)
);
},
{
closed = 1;
nodes = (
(486,773,o),
(504,839,o),
(507,903,c),
(437,903,l),
(437,881,o),
(439,835,o),
(406,835,cs),
(373,835,o),
(340,908,o),
(274,908,cs),
(194,908,o),
(174,843,o),
(174,778,c),
(243,778,l),
(243,799,o),
(242,845,o),
(273,845,cs),
(306,845,o),
(339,773,o),
(405,773,cs)
);
}
);
};
layerId = "4D7D8508-C814-4895-A1FC-EEB9C269F35C";
shapes = (
{
ref = A;
},
{
pos = (334,180);
ref = tildecomb;
}
);
width = 670;
}
);
unicode = 195;
},
{
glyphname = AE;
lastChange = "2023-07-18 14:39:23 +0000";
layers = (
{
anchors = (
{
name = bottom;
pos = (465,0);
},
{
name = top;
pos = (465,707);
}
);
background = {
shapes = (
{
closed = 1;
nodes = (
(66,0,l),
(157,166,l),
(439,166,l),
(439,0,l),
(875,0,l),
(875,38,l),
(481,38,l),
(481,332,l),
(833,332,l),
(833,370,l),
(481,370,l),
(481,669,l),
(875,669,l),
(875,707,l),
(405,707,l),
(16,0,l)
);
},
{
closed = 1;
nodes = (
(431,669,l),
(439,669,l),
(439,203,l),
(177,203,l)
);
}
);
};
layerId = "C40D20BD-ED25-41E0-AB09-CBCE7F0BE71F";
shapes = (
{
closed = 1;
nodes = (
(66,0,l),
(157,166,l),
(439,166,l),
(439,0,l),
(875,0,l),
(875,38,l),
(481,38,l),
(481,332,l),
(833,332,l),
(833,370,l),
(481,370,l),
(481,669,l),
(875,669,l),
(875,707,l),
(405,707,l),
(16,0,l)
);
},
{
closed = 1;
nodes = (
(431,669,l),
(439,669,l),
(439,203,l),
(177,203,l)
);
}
);
width = 929;
},
{
anchors = (
{
name = bottom;
pos = (471,0);
},
{
name = top;
pos = (471,708);
}
);
background = {
shapes = (
{
closed = 1;
nodes = (
(187,0,l),
(229,100,l),
(415,100,l),
(415,0,l),
(914,0,l),
(914,167,l),
(596,167,l),
(596,272,l),
(852,272,l),
(852,432,l),
(596,432,l),
(596,540,l),
(914,540,l),
(914,708,l),
(290,708,l),
(-7,0,l)
);
},
{
closed = 1;
nodes = (
(396,540,l),
(415,540,l),
(415,263,l),
(288,263,l)
);
}
);
};
layerId = "23E38C8A-2B24-4DB5-9E17-0B4F7F415987";
shapes = (
{
closed = 1;
nodes = (
(187,0,l),
(229,100,l),
(415,100,l),
(415,0,l),
(914,0,l),
(914,167,l),
(596,167,l),
(596,272,l),
(852,272,l),
(852,432,l),
(596,432,l),
(596,540,l),
(914,540,l),
(914,708,l),
(290,708,l),
(-7,0,l)
);
},
{
closed = 1;
nodes = (
(396,540,l),
(415,540,l),
(415,263,l),
(288,263,l)
);
}
);
width = 942;
},
{
anchors = (
{
name = bottom;
pos = (462,0);
},
{
name = top;
pos = (462,707);
}
);
background = {
shapes = (
{
closed = 1;
nodes = (
(105,0,l),
(183,151,l),
(434,151,l),
(434,0,l),
(875,0,l),
(875,79,l),
(521,79,l),
(521,310,l),
(836,310,l),
(836,390,l),
(521,390,l),
(521,628,l),
(875,628,l),
(875,707,l),
(371,707,l),
(10,0,l)
);
},
{
closed = 1;
nodes = (
(423,628,l),
(434,628,l),
(434,231,l),
(225,231,l)
);
}
);
};
layerId = "4D7D8508-C814-4895-A1FC-EEB9C269F35C";
shapes = (
{
closed = 1;
nodes = (
(105,0,l),
(183,151,l),
(434,151,l),
(434,0,l),
(875,0,l),
(875,79,l),
(521,79,l),
(521,310,l),
(836,310,l),
(836,390,l),
(521,390,l),
(521,628,l),
(875,628,l),
(875,707,l),
(371,707,l),
(10,0,l)
);
},
{
closed = 1;
nodes = (
(423,628,l),
(434,628,l),
(434,231,l),
(225,231,l)
);
}
);
width = 923;
}
);
unicode = 198;
},
{
glyphname = B;
kernLeft = _kern1;
lastChange = "2023-07-18 14:39:23 +0000";
layers = (
{
anchors = (
{
name = bottom;
pos = (326,0);
},
{
name = center;
pos = (326,354);
},
{
name = top;
pos = (326,707);
}
);
background = {
shapes = (
{
closed = 1;
nodes = (
(325,0,ls),
(454,0,o),
(596,34,o),
(596,190,cs),
(596,294,o),
(523,361,o),
(419,369,c),
(500,390,o),
(557,447,o),
(557,539,cs),
(557,680,o),
(447,707,o),
(331,707,cs),
(92,707,l),
(92,0,l)
);
},
{
closed = 1;
nodes = (
(134,343,l),
(344,343,ls),
(445,343,o),
(554,312,o),
(554,190,cs),
(554,50,o),
(427,38,o),
(322,38,cs),
(134,38,l)
);
},
{
closed = 1;
nodes = (
(134,669,l),
(332,669,ls),
(428,669,o),
(518,652,o),
(518,535,cs),
(518,415,o),
(397,380,o),
(298,380,cs),
(134,380,l)
);
}
);
};
layerId = "C40D20BD-ED25-41E0-AB09-CBCE7F0BE71F";
shapes = (
{
closed = 1;
nodes = (
(325,0,ls),
(454,0,o),
(596,34,o),
(596,190,cs),
(596,294,o),
(523,361,o),
(419,369,c),
(500,390,o),
(557,447,o),
(557,539,cs),
(557,680,o),
(447,707,o),
(331,707,cs),
(92,707,l),
(92,0,l)
);
},
{
closed = 1;
nodes = (
(134,343,l),
(344,343,ls),
(445,343,o),
(554,312,o),
(554,190,cs),
(554,50,o),
(427,38,o),
(322,38,cs),
(134,38,l)
);
},
{
closed = 1;
nodes = (
(134,669,l),
(332,669,ls),
(428,669,o),
(518,652,o),
(518,535,cs),
(518,415,o),
(397,380,o),
(298,380,cs),
(134,380,l)
);
}
);
width = 651;
},
{
anchors = (
{
name = bottom;
pos = (346,0);
},
{
name = center;
pos = (346,354);
},
{
name = top;
pos = (346,708);
}
);
background = {
shapes = (
{
closed = 1;
nodes = (
(360,0,ls),
(447,0,o),
(529,10,o),
(589,59,cs),
(630,94,o),
(662,148,o),
(662,225,cs),
(662,310,o),
(622,363,o),
(566,390,c),
(607,417,o),
(632,468,o),
(632,519,cs),
(632,662,o),
(538,708,o),
(418,708,cs),
(66,708,l),
(66,0,l)
);
},
{
closed = 1;
nodes = (
(247,287,l),
(398,287,ls),
(453,287,o),
(481,268,o),
(481,229,cs),
(481,192,o),
(455,167,o),
(391,167,cs),
(247,167,l)
);
},
{
closed = 1;
nodes = (
(247,541,l),
(376,541,ls),
(423,541,o),
(452,531,o),
(452,494,cs),
(452,460,o),
(430,433,o),
(374,433,cs),
(247,433,l)
);
}
);
};
layerId = "23E38C8A-2B24-4DB5-9E17-0B4F7F415987";
shapes = (
{
closed = 1;
nodes = (
(360,0,ls),
(528,0,o),
(662,57,o),
(662,225,cs),
(662,310,o),
(622,363,o),
(566,390,c),
(607,417,o),
(632,468,o),
(632,519,cs),
(632,662,o),
(538,708,o),
(418,708,cs),
(66,708,l),
(66,0,l)
);
},
{
closed = 1;
nodes = (
(247,287,l),
(398,287,ls),
(453,287,o),
(481,268,o),
(481,229,cs),
(481,192,o),
(455,167,o),
(391,167,cs),
(247,167,l)
);
},
{
closed = 1;
nodes = (
(247,541,l),
(376,541,ls),
(423,541,o),
(452,531,o),
(452,494,cs),
(452,460,o),
(430,433,o),
(374,433,cs),
(247,433,l)
);
}
);
width = 691;
},
{
anchors = (
{
name = bottom;
pos = (328,0);
},
{
name = center;
pos = (328,354);
},
{
name = top;
pos = (328,707);
}
);
background = {
shapes = (
{
closed = 1;
nodes = (
(329,0,ls),
(394,0,o),
(462,8,o),
(514,36,cs),
(566,64,o),
(606,117,o),
(606,201,cs),
(606,297,o),
(561,356,o),
(470,372,c),
(538,399,o),
(570,458,o),
(570,530,cs),
(570,602,o),
(540,648,o),
(501,673,cs),
(457,702,o),
(402,707,o),
(334,707,cs),
(86,707,l),
(86,0,l)
);
},
{
closed = 1;
nodes = (
(173,319,l),
(358,319,ls),
(439,319,o),
(518,297,o),
(518,201,cs),
(518,88,o),
(408,79,o),
(326,79,cs),
(173,79,l)
);
},
{
closed = 1;
nodes = (
(173,628,l),
(335,628,ls),
(415,628,o),
(486,615,o),
(485,524,cs),
(485,467,o),
(458,437,o),
(421,418,cs),
(389,401,o),
(346,397,o),
(309,397,cs),
(173,397,l)
);
}
);
};
layerId = "4D7D8508-C814-4895-A1FC-EEB9C269F35C";
shapes = (
{
closed = 1;
nodes = (
(329,0,ls),
(478,0,o),
(606,44,o),
(606,201,cs),
(606,297,o),
(561,356,o),
(470,372,c),
(538,399,o),
(570,458,o),
(570,530,cs),
(570,668,o),
(474,707,o),
(334,707,cs),
(86,707,l),
(86,0,l)
);
},
{
closed = 1;
nodes = (
(173,319,l),
(358,319,ls),
(439,319,o),
(518,297,o),
(518,201,cs),
(518,88,o),
(408,79,o),
(326,79,cs),
(173,79,l)
);
},
{
closed = 1;
nodes = (
(173,628,l),
(335,628,ls),
(415,628,o),
(486,615,o),
(485,524,cs),
(485,429,o),
(407,397,o),
(309,397,cs),
(173,397,l)
);
}
);
width = 655;
}
);
unicode = 66;
},
{
glyphname = C;
kernLeft = _kern3;
kernRight = _kern4;
lastChange = "2023-07-19 12:47:15 +0000";
layers = (
{
anchors = (
{
name = bottom;
pos = (350,0);
},
{
name = top;
pos = (375,707);
}
);
background = {
shapes = (
{
closed = 1;
nodes = (
(491,-8,o),
(606,40,o),
(651,149,c),
(602,149,l),
(565,64,o),
(465,28,o),
(378,28,cs),
(184,28,o),
(96,178,o),
(96,355,cs),
(96,530,o),
(187,679,o),
(383,679,cs),
(475,679,o),
(555,641,o),
(594,558,c),
(638,558,l),
(598,670,o),
(495,715,o),
(379,715,cs),
(160,715,o),
(54,557,o),
(54,353,cs),
(54,146,o),
(155,-8,o),
(376,-8,cs)
);
}
);
};
layerId = "C40D20BD-ED25-41E0-AB09-CBCE7F0BE71F";
shapes = (
{
closed = 1;
nodes = (
(491,-8,o),
(606,40,o),
(651,149,c),
(602,149,l),
(565,64,o),
(465,28,o),
(378,28,cs),
(184,28,o),
(96,178,o),
(96,355,cs),
(96,530,o),
(187,679,o),
(383,679,cs),
(475,679,o),
(555,641,o),
(594,558,c),
(638,558,l),
(598,670,o),
(495,715,o),
(379,715,cs),
(160,715,o),
(54,557,o),
(54,353,cs),
(54,146,o),
(155,-8,o),
(376,-8,cs)
);
}
);
width = 699;
},
{
anchors = (
{
name = bottom;
pos = (361,0);
},
{
name = top;
pos = (374,708);
}
);
background = {
shapes = (
{
closed = 1;
nodes = (
(540,-8,o),
(686,83,o),
(699,263,c),
(524,263,l),
(509,199,o),
(461,163,o),
(386,163,cs),
(259,163,o),
(215,265,o),
(215,358,cs),
(215,449,o),
(257,546,o),
(383,546,cs),
(461,546,o),
(504,509,o),
(520,445,c),
(691,445,l),
(675,628,o),
(543,717,o),
(377,717,cs),
(167,717,o),
(28,576,o),
(28,350,cs),
(28,130,o),
(160,-8,o),
(380,-8,cs)
);
}
);
};
layerId = "23E38C8A-2B24-4DB5-9E17-0B4F7F415987";
shapes = (
{
closed = 1;
nodes = (
(540,-8,o),
(686,83,o),
(699,263,c),
(524,263,l),
(509,199,o),
(461,163,o),
(386,163,cs),
(259,163,o),
(215,265,o),
(215,358,cs),
(215,449,o),
(257,546,o),
(383,546,cs),
(461,546,o),
(504,509,o),
(520,445,c),
(691,445,l),
(675,628,o),
(543,717,o),
(377,717,cs),
(167,717,o),
(28,576,o),
(28,350,cs),
(28,130,o),
(160,-8,o),
(380,-8,cs)
);
}
);
width = 721;
},
{
anchors = (
{
name = bottom;
pos = (352,0);
},
{
name = top;
pos = (366,707);
}
);
background = {
shapes = (
{
closed = 1;
nodes = (
(530,-8,o),
(631,68,o),
(662,185,c),
(567,185,l),
(547,116,o),
(475,71,o),
(375,71,cs),
(210,71,o),
(137,199,o),
(137,356,cs),
(137,503,o),
(204,636,o),
(372,636,cs),
(472,636,o),
(541,591,o),
(561,522,c),
(649,522,l),
(622,637,o),
(531,715,o),
(375,715,cs),
(155,715,o),
(48,560,o),
(48,353,cs),
(48,143,o),
(154,-8,o),
(373,-8,cs)
);
}
);
};
layerId = "4D7D8508-C814-4895-A1FC-EEB9C269F35C";
shapes = (
{
closed = 1;
nodes = (
(530,-8,o),
(631,68,o),
(662,185,c),
(567,185,l),
(547,116,o),
(475,71,o),
(375,71,cs),
(210,71,o),
(137,199,o),
(137,356,cs),
(137,503,o),
(204,636,o),
(372,636,cs),
(472,636,o),
(541,591,o),
(561,522,c),
(649,522,l),
(622,637,o),
(531,715,o),
(375,715,cs),
(155,715,o),
(48,560,o),
(48,353,cs),
(48,143,o),
(154,-8,o),
(373,-8,cs)
);
}
);
width = 704;
}
);
unicode = 67;
},
{
glyphname = Cacute;
kernLeft = _kern3;
kernRight = _kern4;
lastChange = "2023-07-19 12:47:15 +0000";
layers = (
{
background = {
shapes = (
{
closed = 1;
nodes = (
(491,-8,o),
(606,40,o),
(651,149,c),
(602,149,l),
(565,64,o),
(465,28,o),
(378,28,cs),
(184,28,o),
(96,178,o),
(96,355,cs),
(96,530,o),
(187,679,o),
(383,679,cs),
(475,679,o),
(555,641,o),
(594,558,c),
(638,558,l),
(598,670,o),
(495,715,o),
(379,715,cs),
(160,715,o),
(54,557,o),
(54,353,cs),
(54,146,o),
(155,-8,o),
(376,-8,cs)
);
},
{
closed = 1;
nodes = (
(384,796,l),
(472,923,l),
(422,923,l),
(346,796,l)
);
}
);
};
layerId = "C40D20BD-ED25-41E0-AB09-CBCE7F0BE71F";
shapes = (
{
ref = C;
},
{
pos = (375,180);
ref = acutecomb;
}
);
width = 699;
},
{
background = {
shapes = (
{
closed = 1;
nodes = (
(540,-8,o),
(686,83,o),
(699,263,c),
(524,263,l),
(509,199,o),
(461,163,o),
(386,163,cs),
(259,163,o),
(215,265,o),
(215,358,cs),
(215,449,o),
(257,546,o),
(383,546,cs),
(461,546,o),
(504,509,o),
(520,445,c),
(691,445,l),
(675,628,o),
(543,717,o),
(377,717,cs),
(167,717,o),
(28,576,o),
(28,350,cs),
(28,130,o),
(160,-8,o),
(380,-8,cs)
);
},
{
closed = 1;
nodes = (
(409,758,l),
(580,950,l),
(393,950,l),
(261,758,l)
);
}
);
};
layerId = "23E38C8A-2B24-4DB5-9E17-0B4F7F415987";
shapes = (
{
ref = C;
},
{
pos = (374,181);
ref = acutecomb;
}
);
width = 721;
},
{
background = {
shapes = (
{
closed = 1;
nodes = (
(530,-8,o),
(631,68,o),
(662,185,c),
(567,185,l),
(547,116,o),
(475,71,o),
(375,71,cs),
(210,71,o),
(137,199,o),
(137,356,cs),
(137,503,o),
(204,636,o),
(372,636,cs),
(472,636,o),
(541,591,o),
(561,522,c),
(649,522,l),
(622,637,o),
(531,715,o),
(375,715,cs),
(155,715,o),
(48,560,o),
(48,353,cs),
(48,143,o),
(154,-8,o),
(373,-8,cs)
);
},
{
closed = 1;
nodes = (
(378,786,l),
(478,927,l),
(386,927,l),
(301,786,l)
);
}
);
};
layerId = "4D7D8508-C814-4895-A1FC-EEB9C269F35C";
shapes = (
{
ref = C;
},
{
pos = (366,174);
ref = acutecomb;
}
);
width = 704;
}
);
unicode = 262;
},
{
glyphname = Ccaron;
kernLeft = _kern3;
kernRight = _kern4;
lastChange = "2023-07-19 12:47:15 +0000";
layers = (
{
background = {
shapes = (
{
closed = 1;
nodes = (
(491,-8,o),
(606,40,o),
(651,149,c),
(602,149,l),
(565,64,o),
(465,28,o),
(378,28,cs),
(184,28,o),
(96,178,o),
(96,355,cs),
(96,530,o),
(187,679,o),
(383,679,cs),
(475,679,o),
(555,641,o),
(594,558,c),
(638,558,l),
(598,670,o),
(495,715,o),
(379,715,cs),
(160,715,o),
(54,557,o),
(54,353,cs),
(54,146,o),
(155,-8,o),
(376,-8,cs)
);
},
{
closed = 1;
nodes = (
(392,796,l),
(503,923,l),
(459,923,l),
(377,826,l),
(292,923,l),
(249,923,l),
(360,796,l)
);
}
);
};
layerId = "C40D20BD-ED25-41E0-AB09-CBCE7F0BE71F";
shapes = (
{
ref = C;
},
{
pos = (375,180);
ref = caroncomb;
}
);
width = 699;
},
{
background = {
shapes = (
{
closed = 1;
nodes = (
(540,-8,o),
(686,83,o),
(699,263,c),
(524,263,l),
(509,199,o),
(461,163,o),
(386,163,cs),
(259,163,o),
(215,265,o),
(215,358,cs),
(215,449,o),
(257,546,o),
(383,546,cs),
(461,546,o),
(504,509,o),
(520,445,c),
(691,445,l),
(675,628,o),
(543,717,o),
(377,717,cs),
(167,717,o),
(28,576,o),
(28,350,cs),
(28,130,o),
(160,-8,o),
(380,-8,cs)
);
},
{
closed = 1;
nodes = (
(435,758,l),
(601,950,l),
(435,950,l),
(377,866,l),
(316,950,l),
(150,950,l),
(318,758,l)
);
}
);
};
layerId = "23E38C8A-2B24-4DB5-9E17-0B4F7F415987";
shapes = (
{
ref = C;
},
{
pos = (373,181);
ref = caroncomb;
}
);
width = 721;
},
{
background = {
shapes = (
{
closed = 1;
nodes = (
(530,-8,o),
(631,68,o),
(662,185,c),
(567,185,l),
(547,116,o),
(475,71,o),
(375,71,cs),
(210,71,o),
(137,199,o),
(137,356,cs),
(137,503,o),
(204,636,o),
(372,636,cs),
(472,636,o),
(541,591,o),
(561,522,c),
(649,522,l),
(622,637,o),
(531,715,o),
(375,715,cs),
(155,715,o),
(48,560,o),
(48,353,cs),
(48,143,o),
(154,-8,o),
(373,-8,cs)
);
},
{
closed = 1;
nodes = (
(398,786,l),
(532,949,l),
(447,949,l),
(369,853,l),
(291,949,l),
(204,949,l),
(339,786,l)
);
}
);
};
layerId = "4D7D8508-C814-4895-A1FC-EEB9C269F35C";
shapes = (
{
ref = C;
},
{
pos = (366,180);
ref = caroncomb;
}
);
width = 704;
}
);
unicode = 268;
},
{
glyphname = Ccedilla;
kernLeft = _kern3;
kernRight = _kern4;
lastChange = "2023-07-19 12:59:04 +0000";
layers = (
{
background = {
shapes = (
{
closed = 1;
nodes = (
(383,-256,o),
(465,-232,o),
(465,-153,cs),
(465,-101,o),
(431,-77,o),
(391,-76,cs),
(376,-76,o),
(370,-76,o),
(355,-79,c),
(377,-8,l),
(490,-8,o),
(606,41,o),
(651,149,c),
(602,149,l),
(565,64,o),
(465,28,o),
(378,28,cs),
(184,28,o),
(96,178,o),
(96,355,cs),
(96,530,o),
(187,679,o),
(383,679,cs),
(475,679,o),
(555,641,o),
(594,558,c),
(638,558,l),
(598,670,o),
(495,715,o),
(379,715,cs),
(160,715,o),
(54,557,o),
(54,353,cs),
(54,154,o),
(147,4,o),
(351,-7,c),
(319,-108,l),
(334,-103,o),
(359,-100,o),
(374,-100,cs),
(410,-100,o),
(434,-112,o),
(434,-151,cs),
(434,-220,o),
(355,-225,o),
(316,-222,c),
(316,-248,l)
);
}
);
};
layerId = "C40D20BD-ED25-41E0-AB09-CBCE7F0BE71F";
shapes = (
{
ref = C;
},
{
pos = (373,0);
ref = cedillacomb;
}
);
width = 699;
},
{
background = {
shapes = (
{
closed = 1;
nodes = (
(443,-278,o),
(528,-234,o),
(528,-136,cs),
(528,-55,o),
(478,-31,o),
(427,-28,c),
(433,-4,l),
(571,12,o),
(686,105,o),
(699,263,c),
(524,263,l),
(509,199,o),
(461,163,o),
(386,163,cs),
(259,163,o),
(215,265,o),
(215,358,cs),
(215,449,o),
(257,546,o),
(383,546,cs),
(461,546,o),
(504,509,o),
(520,445,c),
(691,445,l),
(675,628,o),
(543,717,o),
(377,717,cs),
(167,717,o),
(28,576,o),
(28,350,cs),
(28,151,o),
(136,20,o),
(318,-4,c),
(286,-115,l),
(306,-107,o),
(397,-92,o),
(397,-140,cs),
(397,-170,o),
(360,-183,o),
(284,-167,c),
(284,-269,l),
(303,-274,o),
(323,-278,o),
(362,-278,cs)
);
}
);
};
layerId = "23E38C8A-2B24-4DB5-9E17-0B4F7F415987";
shapes = (
{
ref = C;
},
{
pos = (389,0);
ref = cedillacomb;
}
);
width = 721;
},
{
background = {
shapes = (
{
closed = 1;
nodes = (
(370,-255,o),
(397,-252,o),
(430,-236,cs),
(463,-219,o),
(489,-182,o),
(488,-140,cs),
(486,-90,o),
(460,-59,o),
(409,-59,cs),
(402,-59,o),
(394,-60,o),
(386,-61,c),
(398,-7,l),
(539,0,o),
(633,72,o),
(662,185,c),
(567,185,l),
(547,113,o),
(475,71,o),
(375,71,cs),
(210,71,o),
(137,199,o),
(137,356,cs),
(137,503,o),
(204,636,o),
(372,636,cs),
(472,636,o),
(541,591,o),
(561,522,c),
(649,522,l),
(622,637,o),
(531,715,o),
(375,715,cs),
(155,715,o),
(48,560,o),
(48,353,cs),
(48,155,o),
(141,10,o),
(336,-6,c),
(310,-121,l),
(327,-114,o),
(349,-112,o),
(362,-112,cs),
(375,-112,o),
(419,-111,o),
(419,-147,cs),
(419,-199,o),
(353,-203,o),
(308,-200,c),
(308,-253,l),
(320,-254,o),
(330,-255,o),
(341,-255,cs)
);
}
);
};
layerId = "4D7D8508-C814-4895-A1FC-EEB9C269F35C";
shapes = (
{
ref = C;
},
{
pos = (378,-2);
ref = cedillacomb;
}
);
width = 704;
}
);
unicode = 199;
},
{
glyphname = Ccircumflex;
kernLeft = _kern3;
kernRight = _kern4;
lastChange = "2023-07-19 12:47:15 +0000";
layers = (
{
background = {
shapes = (
{
closed = 1;
nodes = (
(491,-8,o),
(606,40,o),
(651,149,c),
(602,149,l),
(565,64,o),
(465,28,o),
(378,28,cs),
(184,28,o),
(96,178,o),
(96,355,cs),
(96,530,o),
(187,679,o),
(383,679,cs),
(475,679,o),
(555,641,o),
(594,558,c),
(638,558,l),
(598,670,o),
(495,715,o),
(379,715,cs),
(160,715,o),
(54,557,o),
(54,353,cs),
(54,146,o),
(155,-8,o),
(376,-8,cs)
);
},
{
closed = 1;
nodes = (
(286,796,l),
(368,894,l),
(453,796,l),
(496,796,l),
(385,923,l),
(353,923,l),
(242,796,l)
);
}
);
};
layerId = "C40D20BD-ED25-41E0-AB09-CBCE7F0BE71F";
shapes = (
{
ref = C;
},
{
pos = (375,180);
ref = circumflexcomb;
}
);
width = 699;
},
{
background = {
shapes = (
{
closed = 1;
nodes = (
(540,-8,o),
(686,83,o),
(699,263,c),
(524,263,l),
(509,199,o),
(461,163,o),
(386,163,cs),
(259,163,o),
(215,265,o),
(215,358,cs),
(215,449,o),
(257,546,o),
(383,546,cs),
(461,546,o),
(504,509,o),
(520,445,c),
(691,445,l),
(675,628,o),
(543,717,o),
(377,717,cs),
(167,717,o),
(28,576,o),
(28,350,cs),
(28,130,o),
(160,-8,o),
(380,-8,cs)
);
},
{
closed = 1;
nodes = (
(316,758,l),
(374,842,l),
(435,758,l),
(601,758,l),
(432,950,l),
(316,950,l),
(150,758,l)
);
}
);
};
layerId = "23E38C8A-2B24-4DB5-9E17-0B4F7F415987";
shapes = (
{
ref = C;
},
{
pos = (373,181);
ref = circumflexcomb;
}
);
width = 721;
},
{
background = {
shapes = (
{
closed = 1;
nodes = (
(530,-8,o),
(631,68,o),
(662,185,c),
(567,185,l),
(547,116,o),
(475,71,o),
(375,71,cs),
(210,71,o),
(137,199,o),
(137,356,cs),
(137,503,o),
(204,636,o),
(372,636,cs),
(472,636,o),
(541,591,o),
(561,522,c),
(649,522,l),
(622,637,o),
(531,715,o),
(375,715,cs),
(155,715,o),
(48,560,o),
(48,353,cs),
(48,143,o),
(154,-8,o),
(373,-8,cs)
);
},
{
closed = 1;
nodes = (
(293,786,l),
(371,882,l),
(449,786,l),
(535,786,l),
(401,949,l),
(341,949,l),
(208,786,l)
);
}
);
};
layerId = "4D7D8508-C814-4895-A1FC-EEB9C269F35C";
shapes = (
{
ref = C;
},
{
pos = (365,180);
ref = circumflexcomb;
}
);
width = 704;
}
);
unicode = 264;
},
{
glyphname = Cdotaccent;
kernLeft = _kern3;
kernRight = _kern4;
lastChange = "2023-07-19 12:48:01 +0000";
layers = (
{
background = {
shapes = (
{
closed = 1;
nodes = (
(491,-8,o),
(606,40,o),
(651,149,c),
(602,149,l),
(565,64,o),
(465,28,o),
(378,28,cs),
(184,28,o),
(96,178,o),
(96,355,cs),
(96,530,o),
(187,679,o),
(383,679,cs),
(475,679,o),
(555,641,o),
(594,558,c),
(638,558,l),
(598,670,o),
(495,715,o),
(379,715,cs),
(160,715,o),
(54,557,o),
(54,353,cs),
(54,146,o),
(155,-8,o),
(376,-8,cs)
);
},
{
closed = 1;
nodes = (
(400,796,o),
(417,811,o),
(417,836,cs),
(417,860,o),
(401,874,o),
(378,874,cs),
(355,874,o),
(338,861,o),
(338,836,cs),
(338,809,o),
(354,796,o),
(377,796,cs)
);
}
);
};
layerId = "C40D20BD-ED25-41E0-AB09-CBCE7F0BE71F";
shapes = (
{
ref = C;
},
{
pos = (374,180);
ref = dotaccentcomb;
}
);
width = 699;
},
{
background = {
shapes = (
{
closed = 1;
nodes = (
(540,-8,o),
(686,83,o),
(699,263,c),
(524,263,l),
(509,199,o),
(461,163,o),
(386,163,cs),
(259,163,o),
(215,265,o),
(215,358,cs),
(215,449,o),
(257,546,o),
(383,546,cs),
(461,546,o),
(504,509,o),
(520,445,c),
(691,445,l),
(675,628,o),
(543,717,o),
(377,717,cs),
(167,717,o),
(28,576,o),
(28,350,cs),
(28,130,o),
(160,-8,o),
(380,-8,cs)
);
},
{
closed = 1;
nodes = (
(444,744,o),
(487,785,o),
(487,848,cs),
(487,913,o),
(440,954,o),
(381,954,cs),
(320,954,o),
(273,910,o),
(273,847,cs),
(273,786,o),
(316,744,o),
(380,744,cs)
);
}
);
};
layerId = "23E38C8A-2B24-4DB5-9E17-0B4F7F415987";
shapes = (
{
ref = C;
},
{
pos = (374,181);
ref = dotaccentcomb;
}
);
width = 721;
},
{
background = {
shapes = (
{
closed = 1;
nodes = (
(530,-8,o),
(631,68,o),
(662,185,c),
(567,185,l),
(547,116,o),
(475,71,o),
(375,71,cs),
(210,71,o),
(137,199,o),
(137,356,cs),
(137,503,o),
(204,636,o),
(372,636,cs),
(472,636,o),
(541,591,o),
(561,522,c),
(649,522,l),
(622,637,o),
(531,715,o),
(375,715,cs),
(155,715,o),
(48,560,o),
(48,353,cs),
(48,143,o),
(154,-8,o),
(373,-8,cs)
);
},
{
closed = 1;
nodes = (
(403,785,o),
(429,809,o),
(429,842,cs),
(429,874,o),
(402,898,o),
(371,898,cs),
(338,898,o),
(314,875,o),
(314,842,cs),
(314,809,o),
(336,785,o),
(371,785,cs)
);
}
);
};
layerId = "4D7D8508-C814-4895-A1FC-EEB9C269F35C";
shapes = (
{
ref = C;
},
{
pos = (365,180);
ref = dotaccentcomb;
}
);
width = 704;
}
);
unicode = 266;
},
{
glyphname = D;
kernLeft = _kern1;
kernRight = _kern4;
lastChange = "2023-07-18 14:39:23 +0000";
layers = (
{
anchors = (
{
name = bottom;
pos = (360,0);
},
{
name = center;
pos = (360,354);
},
{
name = top;
pos = (360,707);
}
);
background = {
shapes = (
{
closed = 1;
nodes = (
(336,0,ls),
(552,0,o),
(665,145,o),
(665,353,cs),
(665,565,o),
(554,707,o),
(336,707,cs),
(93,707,l),
(93,0,l)
);
},
{
closed = 1;
nodes = (
(135,669,l),
(335,669,ls),
(528,669,o),
(621,535,o),
(621,353,cs),
(621,166,o),
(522,38,o),
(328,38,cs),
(135,38,l)
);
}
);
};
layerId = "C40D20BD-ED25-41E0-AB09-CBCE7F0BE71F";
shapes = (
{
closed = 1;
nodes = (
(336,0,ls),
(552,0,o),
(665,145,o),
(665,353,cs),
(665,565,o),
(554,707,o),
(336,707,cs),
(93,707,l),
(93,0,l)
);
},
{
closed = 1;
nodes = (
(135,669,l),
(335,669,ls),
(528,669,o),
(621,535,o),
(621,353,cs),
(621,166,o),
(522,38,o),
(328,38,cs),
(135,38,l)
);
}
);
width = 720;
},
{
anchors = (
{
name = bottom;
pos = (369,0);
},
{
name = center;
pos = (369,354);
},
{
name = top;
pos = (369,708);
}
);
background = {
shapes = (
{
closed = 1;
nodes = (
(346,0,ls),
(574,0,o),
(708,119,o),
(708,351,cs),
(708,588,o),
(568,708,o),
(344,708,cs),
(67,708,l),
(67,0,l)
);
},
{
closed = 1;
nodes = (
(248,540,l),
(341,540,ls),
(485,540,o),
(525,459,o),
(525,353,cs),
(525,243,o),
(481,167,o),
(348,167,cs),
(248,167,l)
);
}
);
};
layerId = "23E38C8A-2B24-4DB5-9E17-0B4F7F415987";
shapes = (
{
closed = 1;
nodes = (
(346,0,ls),
(574,0,o),
(708,119,o),
(708,351,cs),
(708,588,o),
(568,708,o),
(344,708,cs),
(67,708,l),
(67,0,l)
);
},
{
closed = 1;
nodes = (
(248,540,l),
(341,540,ls),
(485,540,o),
(525,459,o),
(525,353,cs),
(525,243,o),
(481,167,o),
(348,167,cs),
(248,167,l)
);
}
);
width = 737;
},
{
anchors = (
{
name = bottom;
pos = (360,0);
},
{
name = center;
pos = (360,354);
},
{
name = top;
pos = (360,707);
}
);
background = {
shapes = (
{
closed = 1;
nodes = (
(338,0,ls),
(559,0,o),
(671,142,o),
(671,353,cs),
(671,565,o),
(558,707,o),
(338,707,cs),
(87,707,l),
(87,0,l)
);
},
{
closed = 1;
nodes = (
(174,628,l),
(337,628,ls),
(505,628,o),
(582,510,o),
(582,353,cs),
(582,191,o),
(503,79,o),
(332,79,cs),
(174,79,l)
);
}
);
};
layerId = "4D7D8508-C814-4895-A1FC-EEB9C269F35C";
shapes = (
{
closed = 1;
nodes = (
(338,0,ls),
(559,0,o),
(671,142,o),
(671,353,cs),
(671,565,o),
(558,707,o),
(338,707,cs),
(87,707,l),
(87,0,l)
);
},
{
closed = 1;
nodes = (
(174,628,l),
(337,628,ls),
(505,628,o),
(582,510,o),
(582,353,cs),
(582,191,o),
(503,79,o),
(332,79,cs),
(174,79,l)
);
}
);
width = 720;
}
);
unicode = 68;
},
{
glyphname = Dcaron;
kernLeft = _kern1;
kernRight = _kern4;
lastChange = "2023-07-19 12:46:55 +0000";
layers = (
{
background = {
shapes = (
{
closed = 1;
nodes = (
(336,0,ls),
(552,0,o),
(665,145,o),
(665,353,cs),
(665,565,o),
(554,707,o),
(336,707,cs),
(93,707,l),
(93,0,l)
);
},
{
closed = 1;
nodes = (
(135,669,l),
(335,669,ls),
(528,669,o),
(621,535,o),
(621,353,cs),
(621,166,o),
(522,38,o),
(328,38,cs),
(135,38,l)
);
},
{
closed = 1;
nodes = (
(352,796,l),
(463,923,l),
(419,923,l),
(337,826,l),
(252,923,l),
(209,923,l),
(320,796,l)
);
}
);
};
layerId = "C40D20BD-ED25-41E0-AB09-CBCE7F0BE71F";
shapes = (
{
ref = D;
},
{
pos = (360,180);
ref = caroncomb;
}
);
width = 720;
},
{
background = {
shapes = (
{
closed = 1;
nodes = (
(346,0,ls),
(574,0,o),
(708,119,o),
(708,351,cs),
(708,588,o),
(568,708,o),
(344,708,cs),
(67,708,l),
(67,0,l)
);
},
{
closed = 1;
nodes = (
(248,540,l),
(341,540,ls),
(485,540,o),
(525,459,o),
(525,353,cs),
(525,243,o),
(481,167,o),
(348,167,cs),
(248,167,l)
);
},
{
closed = 1;
nodes = (
(408,758,l),
(574,950,l),
(408,950,l),
(350,866,l),
(289,950,l),
(123,950,l),
(291,758,l)
);
}
);
};
layerId = "23E38C8A-2B24-4DB5-9E17-0B4F7F415987";
shapes = (
{
ref = D;
},
{
pos = (368,181);
ref = caroncomb;
}
);
width = 737;
},
{
background = {
shapes = (
{
closed = 1;
nodes = (
(338,0,ls),
(559,0,o),
(670,142,o),
(671,353,cs),
(673,565,o),
(558,707,o),
(338,707,cs),
(87,707,l),
(87,0,l)
);
},
{
closed = 1;
nodes = (
(174,628,l),
(337,628,ls),
(421,628,o),
(482,598,o),
(522,550,cs),
(562,502,o),
(582,437,o),
(582,353,cs),
(582,272,o),
(563,203,o),
(520,154,c),
(473,98,o),
(404,79,o),
(332,79,cs),
(174,79,l)
);
},
{
closed = 1;
nodes = (
(369,786,l),
(503,949,l),
(418,949,l),
(340,853,l),
(262,949,l),
(175,949,l),
(310,786,l)
);
}
);
};
layerId = "4D7D8508-C814-4895-A1FC-EEB9C269F35C";
shapes = (
{
ref = D;
},
{
pos = (360,180);
ref = caroncomb;
}
);
width = 720;
}
);
unicode = 270;
},
{
glyphname = Dcroat;
kernLeft = _kern1;
kernRight = _kern4;
lastChange = "2023-07-18 14:41:33 +0000";
layers = (
{
background = {
shapes = (
{
closed = 1;
nodes = (
(336,0,ls),
(552,0,o),
(665,145,o),
(665,353,cs),
(665,563,o),
(555,707,o),
(336,707,cs),
(93,707,l),
(93,372,l),
(7,372,l),
(7,334,l),
(93,334,l),
(93,0,l)
);
},
{
closed = 1;
nodes = (
(135,334,l),
(318,334,l),
(318,372,l),
(135,372,l),
(135,669,l),
(335,669,ls),
(528,669,o),
(621,537,o),
(621,353,cs),
(621,166,o),
(523,38,o),
(328,38,cs),
(135,38,l)
);
}
);
};
layerId = "C40D20BD-ED25-41E0-AB09-CBCE7F0BE71F";
shapes = (
{
closed = 1;
nodes = (
(336,0,ls),
(552,0,o),
(665,145,o),
(665,353,cs),
(665,563,o),
(555,707,o),
(336,707,cs),
(93,707,l),
(93,372,l),
(7,372,l),
(7,334,l),
(93,334,l),
(93,0,l)
);
},
{
closed = 1;
nodes = (
(135,334,l),
(318,334,l),
(318,372,l),
(135,372,l),
(135,669,l),
(335,669,ls),
(528,669,o),
(621,537,o),
(621,353,cs),
(621,166,o),
(523,38,o),
(328,38,cs),
(135,38,l)
);
}
);
width = 720;
},
{
background = {
shapes = (
{
closed = 1;
nodes = (
(346,0,ls),
(579,0,o),
(708,120,o),
(708,349,cs),
(708,586,o),
(571,708,o),
(344,708,cs),
(67,708,l),
(67,430,l),
(-15,430,l),
(-15,278,l),
(67,278,l),
(67,0,l)
);
},
{
closed = 1;
nodes = (
(248,278,l),
(375,278,l),
(375,430,l),
(248,430,l),
(248,540,l),
(341,540,ls),
(470,540,o),
(525,476,o),
(525,353,cs),
(525,232,o),
(473,167,o),
(348,167,cs),
(248,167,l)
);
}
);
};
layerId = "23E38C8A-2B24-4DB5-9E17-0B4F7F415987";
shapes = (
{
closed = 1;
nodes = (
(346,0,ls),
(579,0,o),
(708,120,o),
(708,349,cs),
(708,586,o),
(571,708,o),
(344,708,cs),
(67,708,l),
(67,430,l),
(-15,430,l),
(-15,278,l),
(67,278,l),
(67,0,l)
);
},
{
closed = 1;
nodes = (
(248,278,l),
(375,278,l),
(375,430,l),
(248,430,l),
(248,540,l),
(341,540,ls),
(470,540,o),
(525,476,o),
(525,353,cs),
(525,232,o),
(473,167,o),
(348,167,cs),
(248,167,l)
);
}
);
width = 737;
},
{
background = {
shapes = (
{
closed = 1;
nodes = (
(338,0,ls),
(559,0,o),
(671,142,o),
(671,353,cs),
(671,565,o),
(558,707,o),
(338,707,cs),
(87,707,l),
(87,392,l),
(9,392,l),
(9,314,l),
(87,314,l),
(87,0,l)
);
},
{
closed = 1;
nodes = (
(174,314,l),
(333,314,l),
(333,392,l),
(174,392,l),
(174,628,l),
(337,628,ls),
(421,628,o),
(482,598,o),
(522,550,cs),
(562,502,o),
(582,437,o),
(582,353,cs),
(582,272,o),
(563,203,o),
(520,154,c),
(473,98,o),
(404,79,o),
(332,79,cs),
(174,79,l)
);
}
);
};
layerId = "4D7D8508-C814-4895-A1FC-EEB9C269F35C";
shapes = (
{
closed = 1;
nodes = (
(338,0,ls),
(559,0,o),
(671,142,o),
(671,353,cs),
(671,565,o),
(558,707,o),
(338,707,cs),
(87,707,l),
(87,392,l),
(9,392,l),
(9,314,l),
(87,314,l),
(87,0,l)
);
},
{
closed = 1;
nodes = (
(174,314,l),
(333,314,l),
(333,392,l),
(174,392,l),
(174,628,l),
(337,628,ls),
(500,628,o),
(582,516,o),
(582,353,cs),
(582,190,o),
(503,79,o),
(332,79,cs),
(174,79,l)
);
}
);
width = 720;
}
);
unicode = 272;
},
{
glyphname = Eth;
kernLeft = _kern1;
kernRight = _kern4;
lastChange = "2023-07-18 14:39:23 +0000";
layers = (
{
background = {
shapes = (
{
closed = 1;
nodes = (
(336,0,ls),
(552,0,o),
(665,145,o),
(665,353,cs),
(665,563,o),
(555,707,o),
(336,707,cs),
(93,707,l),
(93,372,l),
(7,372,l),
(7,334,l),
(93,334,l),
(93,0,l)
);
},
{
closed = 1;
nodes = (
(135,334,l),
(318,334,l),
(318,372,l),
(135,372,l),
(135,669,l),
(335,669,ls),
(528,669,o),
(621,537,o),
(621,353,cs),
(621,166,o),
(523,38,o),
(328,38,cs),
(135,38,l)
);
}
);
};
layerId = "C40D20BD-ED25-41E0-AB09-CBCE7F0BE71F";
shapes = (
{
closed = 1;
nodes = (
(336,0,ls),
(552,0,o),
(665,145,o),
(665,353,cs),
(665,563,o),
(555,707,o),
(336,707,cs),
(93,707,l),
(93,372,l),
(7,372,l),
(7,334,l),
(93,334,l),
(93,0,l)
);
},
{
closed = 1;
nodes = (
(135,334,l),
(318,334,l),
(318,372,l),
(135,372,l),
(135,669,l),
(335,669,ls),
(528,669,o),
(621,537,o),
(621,353,cs),
(621,166,o),
(523,38,o),
(328,38,cs),
(135,38,l)
);
}
);
width = 720;
},
{
background = {
shapes = (
{
closed = 1;
nodes = (
(346,0,ls),
(579,0,o),
(708,120,o),
(708,349,cs),
(708,586,o),
(571,708,o),
(344,708,cs),
(67,708,l),
(67,430,l),
(-15,430,l),
(-15,278,l),
(67,278,l),
(67,0,l)
);
},
{
closed = 1;
nodes = (
(248,278,l),
(375,278,l),
(375,430,l),
(248,430,l),
(248,540,l),
(341,540,ls),
(470,540,o),
(525,476,o),
(525,353,cs),
(525,232,o),
(473,167,o),
(348,167,cs),
(248,167,l)
);
}
);
};
layerId = "23E38C8A-2B24-4DB5-9E17-0B4F7F415987";
shapes = (
{
closed = 1;
nodes = (
(346,0,ls),
(579,0,o),
(708,120,o),
(708,349,cs),
(708,586,o),
(571,708,o),
(344,708,cs),
(67,708,l),
(67,430,l),
(-15,430,l),
(-15,278,l),
(67,278,l),
(67,0,l)
);
},
{
closed = 1;
nodes = (
(248,278,l),
(375,278,l),
(375,430,l),
(248,430,l),
(248,540,l),
(341,540,ls),
(470,540,o),
(525,476,o),
(525,353,cs),
(525,232,o),
(473,167,o),
(348,167,cs),
(248,167,l)
);
}
);
width = 737;
},
{
background = {
shapes = (
{
closed = 1;
nodes = (
(338,0,ls),
(559,0,o),
(671,142,o),
(671,353,cs),
(671,565,o),
(558,707,o),
(338,707,cs),
(87,707,l),
(87,392,l),
(9,392,l),
(9,314,l),
(87,314,l),
(87,0,l)
);
},
{
closed = 1;
nodes = (
(174,314,l),
(333,314,l),
(333,392,l),
(174,392,l),
(174,628,l),
(337,628,ls),
(421,628,o),
(482,598,o),
(522,550,cs),
(562,502,o),
(582,437,o),
(582,353,cs),
(582,272,o),
(562,203,o),
(520,154,cs),
(472,98,o),
(404,79,o),
(332,79,cs),
(174,79,l)
);
}
);
};
layerId = "4D7D8508-C814-4895-A1FC-EEB9C269F35C";
shapes = (
{
closed = 1;
nodes = (
(338,0,ls),
(559,0,o),
(671,142,o),
(671,353,cs),
(671,565,o),
(558,707,o),
(338,707,cs),
(87,707,l),
(87,392,l),
(9,392,l),
(9,314,l),
(87,314,l),
(87,0,l)
);
},
{
closed = 1;
nodes = (
(174,314,l),
(333,314,l),
(333,392,l),
(174,392,l),
(174,628,l),
(337,628,ls),
(500,628,o),
(582,516,o),
(582,353,cs),
(582,196,o),
(507,79,o),
(332,79,cs),
(174,79,l)
);
}
);
width = 720;
}
);
unicode = 208;
},
{
glyphname = E;
kernLeft = _kern1;
lastChange = "2023-07-19 12:48:36 +0000";
layers = (
{
anchors = (
{
name = bottom;
pos = (302,0);
},
{
name = ogonek;
pos = (543,10);
},
{
name = top;
pos = (322,707);
},
{
name = topleft;
pos = (20,707);
}
);
background = {
shapes = (
{
closed = 1;
nodes = (
(549,0,l),
(549,38,l),
(135,38,l),
(135,332,l),
(507,332,l),
(507,370,l),
(135,370,l),
(135,669,l),
(549,669,l),
(549,707,l),
(93,707,l),
(93,0,l)
);
}
);
};
layerId = "C40D20BD-ED25-41E0-AB09-CBCE7F0BE71F";
shapes = (
{
closed = 1;
nodes = (
(549,0,l),
(549,38,l),
(135,38,l),
(135,332,l),
(507,332,l),
(507,370,l),
(135,370,l),
(135,669,l),
(549,669,l),
(549,707,l),
(93,707,l),
(93,0,l)
);
}
);
width = 603;
},
{
anchors = (
{
name = bottom;
pos = (315,0);
},
{
name = ogonek;
pos = (566,10);
},
{
name = top;
pos = (334,708);
},
{
name = topleft;
pos = (20,708);
}
);
background = {
shapes = (
{
closed = 1;
nodes = (
(601,0,l),
(601,167,l),
(248,167,l),
(248,272,l),
(539,272,l),
(539,432,l),
(248,432,l),
(248,540,l),
(601,540,l),
(601,708,l),
(67,708,l),
(67,0,l)
);
}
);
};
layerId = "23E38C8A-2B24-4DB5-9E17-0B4F7F415987";
shapes = (
{
closed = 1;
nodes = (
(601,0,l),
(601,167,l),
(248,167,l),
(248,272,l),
(539,272,l),
(539,432,l),
(248,432,l),
(248,540,l),
(601,540,l),
(601,708,l),
(67,708,l),
(67,0,l)
);
}
);
width = 629;
},
{
anchors = (
{
name = bottom;
pos = (305,0);
},
{
name = ogonek;
pos = (549,10);
},
{
name = top;
pos = (330,707);
},
{
name = topleft;
pos = (20,707);
}
);
background = {
shapes = (
{
closed = 1;
nodes = (
(562,0,l),
(562,79,l),
(174,79,l),
(174,310,l),
(523,310,l),
(523,390,l),
(174,390,l),
(174,628,l),
(562,628,l),
(562,707,l),
(87,707,l),
(87,0,l)
);
}
);
};
layerId = "4D7D8508-C814-4895-A1FC-EEB9C269F35C";
shapes = (
{
closed = 1;
nodes = (
(562,0,l),
(562,79,l),
(174,79,l),
(174,310,l),
(523,310,l),
(523,390,l),
(174,390,l),
(174,628,l),
(562,628,l),
(562,707,l),
(87,707,l),
(87,0,l)
);
}
);
width = 610;
}
);
unicode = 69;
},
{
glyphname = Eacute;
lastChange = "2023-07-19 12:48:36 +0000";
layers = (
{
background = {
shapes = (
{
closed = 1;
nodes = (
(549,0,l),
(549,38,l),
(135,38,l),
(135,332,l),
(507,332,l),
(507,370,l),
(135,370,l),
(135,669,l),
(549,669,l),
(549,707,l),
(93,707,l),
(93,0,l)
);
},
{
closed = 1;
nodes = (
(335,796,l),
(423,923,l),
(373,923,l),
(297,796,l)
);
}
);
};
layerId = "C40D20BD-ED25-41E0-AB09-CBCE7F0BE71F";
shapes = (
{
ref = E;
},
{
pos = (322,180);
ref = acutecomb;
}
);
width = 603;
},
{
background = {
shapes = (
{
closed = 1;
nodes = (
(601,0,l),
(601,167,l),
(248,167,l),
(248,272,l),
(539,272,l),
(539,432,l),
(248,432,l),
(248,540,l),
(601,540,l),
(601,708,l),
(67,708,l),
(67,0,l)
);
},
{
closed = 1;
nodes = (
(353,758,l),
(524,950,l),
(337,950,l),
(205,758,l)
);
}
);
};
layerId = "23E38C8A-2B24-4DB5-9E17-0B4F7F415987";
shapes = (
{
ref = E;
},
{
pos = (334,181);
ref = acutecomb;
}
);
width = 629;
},
{
background = {
shapes = (
{
closed = 1;
nodes = (
(562,0,l),
(562,79,l),
(174,79,l),
(174,310,l),
(523,310,l),
(523,390,l),
(174,390,l),
(174,628,l),
(562,628,l),
(562,707,l),
(87,707,l),
(87,0,l)
);
},
{
closed = 1;
nodes = (
(350,786,l),
(450,927,l),
(358,927,l),
(273,786,l)
);
}
);
};
layerId = "4D7D8508-C814-4895-A1FC-EEB9C269F35C";
shapes = (
{
ref = E;
},
{
pos = (330,174);
ref = acutecomb;
}
);
width = 610;
}
);
unicode = 201;
},
{
glyphname = Ebreve;
kernLeft = _kern1;
lastChange = "2023-07-19 12:48:36 +0000";
layers = (
{
background = {
shapes = (
{
closed = 1;
nodes = (
(549,0,l),
(549,38,l),
(135,38,l),
(135,332,l),
(507,332,l),
(507,370,l),
(135,370,l),
(135,669,l),
(549,669,l),
(549,707,l),
(93,707,l),
(93,0,l)
);
},
{
closed = 1;
nodes = (
(397,796,o),
(462,818,o),
(473,895,c),
(434,895,l),
(423,840,o),
(378,829,o),
(326,829,cs),
(273,829,o),
(229,840,o),
(218,895,c),
(179,895,l),
(190,817,o),
(252,796,o),
(325,796,cs)
);
}
);
};
layerId = "C40D20BD-ED25-41E0-AB09-CBCE7F0BE71F";
shapes = (
{
ref = E;
},
{
pos = (322,160);
ref = brevecomb;
}
);
width = 603;
},
{
background = {
shapes = (
{
closed = 1;
nodes = (
(601,0,l),
(601,167,l),
(248,167,l),
(248,272,l),
(539,272,l),
(539,432,l),
(248,432,l),
(248,540,l),
(601,540,l),
(601,708,l),
(67,708,l),
(67,0,l)
);
},
{
closed = 1;
nodes = (
(465,758,o),
(542,821,o),
(542,950,c),
(400,950,l),
(400,938,ls),
(400,901,o),
(376,879,o),
(339,879,cs),
(303,879,o),
(278,902,o),
(278,938,cs),
(278,950,l),
(136,950,l),
(136,819,o),
(213,758,o),
(338,758,cs)
);
}
);
};
layerId = "23E38C8A-2B24-4DB5-9E17-0B4F7F415987";
shapes = (
{
ref = E;
},
{
pos = (334,181);
ref = brevecomb;
}
);
width = 629;
},
{
background = {
shapes = (
{
closed = 1;
nodes = (
(562,0,l),
(562,79,l),
(174,79,l),
(174,310,l),
(523,310,l),
(523,390,l),
(174,390,l),
(174,628,l),
(562,628,l),
(562,707,l),
(87,707,l),
(87,0,l)
);
},
{
closed = 1;
nodes = (
(438,781,o),
(502,827,o),
(505,914,c),
(427,914,l),
(424,867,o),
(390,847,o),
(334,847,cs),
(278,847,o),
(244,867,o),
(241,914,c),
(163,914,l),
(166,827,o),
(228,781,o),
(333,781,cs)
);
}
);
};
layerId = "4D7D8508-C814-4895-A1FC-EEB9C269F35C";
shapes = (
{
ref = E;
},
{
pos = (330,180);
ref = brevecomb;
}
);
width = 610;
}
);
unicode = 276;
},
{
glyphname = Ecaron;
kernLeft = _kern1;
lastChange = "2023-07-19 12:48:36 +0000";
layers = (
{
background = {
shapes = (
{
closed = 1;
nodes = (
(549,0,l),
(549,38,l),
(135,38,l),
(135,332,l),
(507,332,l),
(507,370,l),
(135,370,l),
(135,669,l),
(549,669,l),
(549,707,l),
(93,707,l),
(93,0,l)
);
},
{
closed = 1;
nodes = (
(340,796,l),
(451,923,l),
(407,923,l),
(325,826,l),
(240,923,l),
(197,923,l),
(308,796,l)
);
}
);
};
layerId = "C40D20BD-ED25-41E0-AB09-CBCE7F0BE71F";
shapes = (
{
ref = E;
},
{
pos = (322,180);
ref = caroncomb;
}
);
width = 603;
},
{
background = {
shapes = (
{
closed = 1;
nodes = (
(601,0,l),
(601,167,l),
(248,167,l),
(248,272,l),
(539,272,l),
(539,432,l),
(248,432,l),
(248,540,l),
(601,540,l),
(601,708,l),
(67,708,l),
(67,0,l)
);
},
{
closed = 1;
nodes = (
(399,758,l),
(565,950,l),
(399,950,l),
(341,866,l),
(280,950,l),
(114,950,l),
(282,758,l)
);
}
);
};
layerId = "23E38C8A-2B24-4DB5-9E17-0B4F7F415987";
shapes = (
{
ref = E;
},
{
pos = (333,181);
ref = caroncomb;
}
);
width = 629;
},
{
background = {
shapes = (
{
closed = 1;
nodes = (
(562,0,l),
(562,79,l),
(174,79,l),
(174,310,l),
(523,310,l),
(523,390,l),
(174,390,l),
(174,628,l),
(562,628,l),
(562,707,l),
(87,707,l),
(87,0,l)
);
},
{
closed = 1;
nodes = (
(363,786,l),
(497,949,l),
(412,949,l),
(334,853,l),
(256,949,l),
(169,949,l),
(304,786,l)
);
}
);
};
layerId = "4D7D8508-C814-4895-A1FC-EEB9C269F35C";
shapes = (
{
ref = E;
},
{
pos = (330,180);
ref = caroncomb;
}
);
width = 610;
}
);
unicode = 282;
},
{
glyphname = Ecircumflex;
lastChange = "2023-07-19 12:48:36 +0000";
layers = (
{
background = {
shapes = (
{
closed = 1;
nodes = (
(549,0,l),
(549,38,l),
(135,38,l),
(135,332,l),
(507,332,l),
(507,370,l),
(135,370,l),
(135,669,l),
(549,669,l),
(549,707,l),
(93,707,l),
(93,0,l)
);
},
{
closed = 1;
nodes = (
(238,796,l),
(320,894,l),
(405,796,l),
(448,796,l),
(337,923,l),
(305,923,l),
(194,796,l)
);
}
);
};
layerId = "C40D20BD-ED25-41E0-AB09-CBCE7F0BE71F";
shapes = (
{
ref = E;
},
{
pos = (322,180);
ref = circumflexcomb;
}
);
width = 603;
},
{
background = {
shapes = (
{
closed = 1;
nodes = (
(601,0,l),
(601,167,l),
(248,167,l),
(248,272,l),
(539,272,l),
(539,432,l),
(248,432,l),
(248,540,l),
(601,540,l),
(601,708,l),
(67,708,l),
(67,0,l)
);
},
{
closed = 1;
nodes = (
(272,758,l),
(330,842,l),
(391,758,l),
(557,758,l),
(388,950,l),
(272,950,l),
(106,758,l)
);
}
);
};
layerId = "23E38C8A-2B24-4DB5-9E17-0B4F7F415987";
shapes = (
{
ref = E;
},
{
pos = (333,181);
ref = circumflexcomb;
}
);
width = 629;
},
{
background = {
shapes = (
{
closed = 1;
nodes = (
(562,0,l),
(562,79,l),
(174,79,l),
(174,310,l),
(523,310,l),
(523,390,l),
(174,390,l),
(174,628,l),
(562,628,l),
(562,707,l),
(87,707,l),
(87,0,l)
);
},
{
closed = 1;
nodes = (
(252,786,l),
(330,883,l),
(408,786,l),
(494,786,l),
(360,949,l),
(300,949,l),
(167,786,l)
);
}
);
};
layerId = "4D7D8508-C814-4895-A1FC-EEB9C269F35C";
shapes = (
{
ref = E;
},
{
pos = (329,180);
ref = circumflexcomb;
}
);
width = 610;
}
);
unicode = 202;
},
{
glyphname = Edieresis;
lastChange = "2023-07-19 12:48:36 +0000";
layers = (
{
background = {
shapes = (
{
closed = 1;
nodes = (
(549,0,l),
(549,38,l),
(135,38,l),
(135,332,l),
(507,332,l),
(507,370,l),
(135,370,l),
(135,669,l),
(549,669,l),
(549,707,l),
(93,707,l),
(93,0,l)
);
},
{
closed = 1;
nodes = (
(245,816,o),
(261,832,o),
(261,855,cs),
(261,878,o),
(245,894,o),
(220,894,cs),
(196,894,o),
(181,876,o),
(181,855,cs),
(181,834,o),
(196,816,o),
(220,816,cs)
);
},
{
closed = 1;
nodes = (
(456,816,o),
(472,832,o),
(472,855,cs),
(472,878,o),
(456,894,o),
(431,894,cs),
(407,894,o),
(392,876,o),
(392,855,cs),
(392,834,o),
(407,816,o),
(431,816,cs)
);
}
);
};
layerId = "C40D20BD-ED25-41E0-AB09-CBCE7F0BE71F";
shapes = (
{
ref = E;
},
{
pos = (321,180);
ref = dieresiscomb;
}
);
width = 603;
},
{
background = {
shapes = (
{
closed = 1;
nodes = (
(601,0,l),
(601,167,l),
(248,167,l),
(248,272,l),
(539,272,l),
(539,432,l),
(248,432,l),
(248,540,l),
(601,540,l),
(601,708,l),
(67,708,l),
(67,0,l)
);
},
{
closed = 1;
nodes = (
(257,757,o),
(301,788,o),
(301,848,cs),
(301,910,o),
(255,944,o),
(206,944,cs),
(156,944,o),
(111,909,o),
(111,848,cs),
(111,788,o),
(155,757,o),
(206,757,cs)
);
},
{
closed = 1;
nodes = (
(516,757,o),
(558,788,o),
(558,849,cs),
(558,910,o),
(514,944,o),
(465,944,cs),
(415,944,o),
(368,909,o),
(368,848,cs),
(368,788,o),
(415,757,o),
(465,757,cs)
);
}
);
};
layerId = "23E38C8A-2B24-4DB5-9E17-0B4F7F415987";
shapes = (
{
ref = E;
},
{
pos = (333,181);
ref = dieresiscomb;
}
);
width = 629;
},
{
background = {
shapes = (
{
closed = 1;
nodes = (
(562,0,l),
(562,79,l),
(174,79,l),
(174,310,l),
(523,310,l),
(523,390,l),
(174,390,l),
(174,628,l),
(562,628,l),
(562,707,l),
(87,707,l),
(87,0,l)
);
},
{
closed = 1;
nodes = (
(249,788,o),
(274,811,o),
(274,844,cs),
(274,877,o),
(249,900,o),
(216,900,cs),
(184,900,o),
(159,877,o),
(159,844,cs),
(159,811,o),
(184,788,o),
(216,788,cs)
);
},
{
closed = 1;
nodes = (
(474,788,o),
(499,811,o),
(499,844,cs),
(499,877,o),
(474,900,o),
(441,900,cs),
(409,900,o),
(385,877,o),
(385,844,cs),
(385,811,o),
(409,788,o),
(441,788,cs)
);
}
);
};
layerId = "4D7D8508-C814-4895-A1FC-EEB9C269F35C";
shapes = (
{
ref = E;
},
{
pos = (330,180);
ref = dieresiscomb;
}
);
width = 610;
}
);
unicode = 203;
},
{
glyphname = Edotaccent;
kernLeft = _kern1;
lastChange = "2023-07-19 12:48:36 +0000";
layers = (
{
background = {
shapes = (
{
closed = 1;
nodes = (
(549,0,l),
(549,38,l),
(135,38,l),
(135,332,l),
(507,332,l),
(507,370,l),
(135,370,l),
(135,669,l),
(549,669,l),
(549,707,l),
(93,707,l),
(93,0,l)
);
},
{
closed = 1;
nodes = (
(348,796,o),
(365,811,o),
(365,836,cs),
(365,860,o),
(349,874,o),
(326,874,cs),
(303,874,o),
(286,861,o),
(286,836,cs),
(286,809,o),
(302,796,o),
(325,796,cs)
);
}
);
};
layerId = "C40D20BD-ED25-41E0-AB09-CBCE7F0BE71F";
shapes = (
{
ref = E;
},
{
pos = (321,180);
ref = dotaccentcomb;
}
);
width = 603;
},
{
background = {
shapes = (
{
closed = 1;
nodes = (
(601,0,l),
(601,167,l),
(248,167,l),
(248,272,l),
(539,272,l),
(539,432,l),
(248,432,l),
(248,540,l),
(601,540,l),
(601,708,l),
(67,708,l),
(67,0,l)
);
},
{
closed = 1;
nodes = (
(403,744,o),
(446,785,o),
(446,848,cs),
(446,913,o),
(399,954,o),
(340,954,cs),
(279,954,o),
(232,910,o),
(232,847,cs),
(232,786,o),
(275,744,o),
(339,744,cs)
);
}
);
};
layerId = "23E38C8A-2B24-4DB5-9E17-0B4F7F415987";
shapes = (
{
ref = E;
},
{
pos = (334,181);
ref = dotaccentcomb;
}
);
width = 629;
},
{
background = {
shapes = (
{
closed = 1;
nodes = (
(562,0,l),
(562,79,l),
(174,79,l),
(174,310,l),
(523,310,l),
(523,390,l),
(174,390,l),
(174,628,l),
(562,628,l),
(562,707,l),
(87,707,l),
(87,0,l)
);
},
{
closed = 1;
nodes = (
(362,785,o),
(388,809,o),
(388,842,cs),
(388,874,o),
(361,898,o),
(330,898,cs),
(297,898,o),
(273,875,o),
(273,842,cs),
(273,809,o),
(295,785,o),
(330,785,cs)
);
}
);
};
layerId = "4D7D8508-C814-4895-A1FC-EEB9C269F35C";
shapes = (
{
ref = E;
},
{
pos = (329,180);
ref = dotaccentcomb;
}
);
width = 610;
}
);
unicode = 278;
},
{
glyphname = Egrave;
lastChange = "2023-07-20 10:00:36 +0000";
layers = (
{
background = {
shapes = (
{
closed = 1;
nodes = (
(549,0,l),
(549,38,l),
(135,38,l),
(135,332,l),
(507,332,l),
(507,370,l),
(135,370,l),
(135,669,l),
(549,669,l),
(549,707,l),
(93,707,l),
(93,0,l)
);
},
{
closed = 1;
nodes = (
(356,796,l),
(280,923,l),
(230,923,l),
(318,796,l)
);
}
);
};
layerId = "C40D20BD-ED25-41E0-AB09-CBCE7F0BE71F";
shapes = (
{
ref = E;
},
{
pos = (322,180);
ref = gravecomb;
}
);
width = 603;
},
{
background = {
shapes = (
{
closed = 1;
nodes = (
(601,0,l),
(601,167,l),
(248,167,l),
(248,272,l),
(539,272,l),
(539,432,l),
(248,432,l),
(248,540,l),
(601,540,l),
(601,708,l),
(67,708,l),
(67,0,l)
);
},
{
closed = 1;
nodes = (
(454,758,l),
(322,950,l),
(135,950,l),
(306,758,l)
);
}
);
};
layerId = "23E38C8A-2B24-4DB5-9E17-0B4F7F415987";
shapes = (
{
ref = E;
},
{
pos = (308,181);
ref = gravecomb;
}
);
width = 629;
},
{
background = {
shapes = (
{
closed = 1;
nodes = (
(562,0,l),
(562,79,l),
(174,79,l),
(174,310,l),
(523,310,l),
(523,390,l),
(174,390,l),
(174,628,l),
(562,628,l),
(562,707,l),
(87,707,l),
(87,0,l)
);
},
{
closed = 1;
nodes = (
(393,786,l),
(308,927,l),
(216,927,l),
(316,786,l)
);
}
);
};
layerId = "4D7D8508-C814-4895-A1FC-EEB9C269F35C";
shapes = (
{
ref = E;
},
{
pos = (323,180);
ref = gravecomb;
}
);
width = 610;
}
);
unicode = 200;
},
{
glyphname = Emacron;
kernLeft = _kern1;
lastChange = "2023-07-19 12:58:09 +0000";
layers = (
{
background = {
shapes = (
{
closed = 1;
nodes = (
(549,0,l),
(549,38,l),
(135,38,l),
(135,332,l),
(507,332,l),
(507,370,l),
(135,370,l),
(135,669,l),
(549,669,l),
(549,707,l),
(93,707,l),
(93,0,l)
);
},
{
closed = 1;
nodes = (
(474,822,l),
(474,857,l),
(175,857,l),
(175,822,l)
);
}
);
};
layerId = "C40D20BD-ED25-41E0-AB09-CBCE7F0BE71F";
shapes = (
{
ref = E;
},
{
pos = (321,180);
ref = macroncomb;
}
);
width = 603;
},
{
background = {
shapes = (
{
closed = 1;
nodes = (
(601,0,l),
(601,167,l),
(248,167,l),
(248,272,l),
(539,272,l),
(539,432,l),
(248,432,l),
(248,540,l),
(601,540,l),
(601,708,l),
(67,708,l),
(67,0,l)
);
},
{
closed = 1;
nodes = (
(537,797,l),
(537,950,l),
(141,950,l),
(141,797,l)
);
}
);
};
layerId = "23E38C8A-2B24-4DB5-9E17-0B4F7F415987";
shapes = (
{
ref = E;
},
{
pos = (334,181);
ref = macroncomb;
}
);
width = 629;
},
{
background = {
shapes = (
{
closed = 1;
nodes = (
(562,0,l),
(562,79,l),
(174,79,l),
(174,310,l),
(523,310,l),
(523,390,l),
(174,390,l),
(174,628,l),
(562,628,l),
(562,707,l),
(87,707,l),
(87,0,l)
);
},
{
closed = 1;
nodes = (
(487,813,l),
(487,887,l),
(168,887,l),
(168,813,l)
);
}
);
};
layerId = "4D7D8508-C814-4895-A1FC-EEB9C269F35C";
shapes = (
{
ref = E;
},
{
pos = (329,180);
ref = macroncomb;
}
);
width = 610;
}
);
unicode = 274;
},
{
glyphname = Eogonek;
kernLeft = _kern1;
lastChange = "2023-07-19 12:45:51 +0000";
layers = (
{
background = {
shapes = (
{
closed = 1;
nodes = (
(392,-201,o),
(410,-198,o),
(426,-191,c),
(418,-161,l),
(407,-165,o),
(390,-168,o),
(378,-168,cs),
(331,-167,o),
(301,-145,o),
(301,-97,cs),
(301,-57,o),
(329,-23,o),
(361,0,c),
(549,0,l),
(549,38,l),
(135,38,l),
(135,332,l),
(507,332,l),
(507,370,l),
(135,370,l),
(135,669,l),
(549,669,l),
(549,707,l),
(93,707,l),
(93,0,l),
(325,0,l),
(291,-20,o),
(262,-66,o),
(262,-105,cs),
(262,-172,o),
(312,-201,o),
(373,-201,cs)
);
}
);
};
layerId = "C40D20BD-ED25-41E0-AB09-CBCE7F0BE71F";
shapes = (
{
ref = E;
},
{
pos = (566,0);
ref = ogonekcomb;
}
);
width = 603;
},
{
background = {
shapes = (
{
closed = 1;
nodes = (
(394,-197,o),
(426,-194,o),
(451,-179,c),
(435,-83,l),
(423,-88,o),
(411,-92,o),
(397,-92,cs),
(371,-92,o),
(352,-78,o),
(353,-51,c),
(355,-22,o),
(378,-8,o),
(403,0,c),
(601,0,l),
(601,167,l),
(248,167,l),
(248,272,l),
(539,272,l),
(539,432,l),
(248,432,l),
(248,540,l),
(601,540,l),
(601,708,l),
(67,708,l),
(67,0,l),
(290,0,l),
(261,-17,o),
(240,-56,o),
(240,-95,cs),
(240,-157,o),
(292,-197,o),
(372,-197,cs)
);
}
);
};
layerId = "23E38C8A-2B24-4DB5-9E17-0B4F7F415987";
shapes = (
{
ref = E;
},
{
pos = (517,0);
ref = ogonekcomb;
}
);
width = 629;
},
{
background = {
shapes = (
{
closed = 1;
nodes = (
(392,-224,o),
(412,-220,o),
(436,-207,c),
(422,-148,l),
(406,-156,o),
(390,-160,o),
(374,-160,cs),
(335,-160,o),
(310,-138,o),
(310,-101,cs),
(310,-57,o),
(351,-22,o),
(386,0,c),
(562,0,l),
(562,79,l),
(174,79,l),
(174,310,l),
(523,310,l),
(523,390,l),
(174,390,l),
(174,628,l),
(562,628,l),
(562,707,l),
(87,707,l),
(87,0,l),
(304,0,l),
(265,-25,o),
(236,-63,o),
(236,-111,cs),
(236,-179,o),
(284,-223,o),
(365,-224,c)
);
}
);
};
layerId = "4D7D8508-C814-4895-A1FC-EEB9C269F35C";
shapes = (
{
ref = E;
},
{
pos = (532,0);
ref = ogonekcomb;
}
);
width = 610;
}
);
unicode = 280;
},
{
glyphname = F;
kernLeft = _kern1;
lastChange = "2023-07-18 14:39:23 +0000";
layers = (
{
anchors = (
{
name = bottom;
pos = (296,0);
},
{
name = top;
pos = (296,707);
}
);
background = {
shapes = (
{
closed = 1;
nodes = (
(135,0,l),
(135,309,l),
(489,309,l),
(489,346,l),
(135,346,l),
(135,669,l),
(549,669,l),
(549,707,l),
(93,707,l),
(93,0,l)
);
}
);
};
layerId = "C40D20BD-ED25-41E0-AB09-CBCE7F0BE71F";
shapes = (
{
closed = 1;
nodes = (
(135,0,l),
(135,309,l),
(489,309,l),
(489,346,l),
(135,346,l),
(135,669,l),
(549,669,l),
(549,707,l),
(93,707,l),
(93,0,l)
);
}
);
width = 592;
},
{
anchors = (
{
name = bottom;
pos = (304,0);
},
{
name = top;
pos = (304,708);
}
);
background = {
shapes = (
{
closed = 1;
nodes = (
(248,0,l),
(248,245,l),
(530,245,l),
(530,411,l),
(248,411,l),
(248,540,l),
(590,540,l),
(590,708,l),
(67,708,l),
(67,0,l)
);
}
);
};
layerId = "23E38C8A-2B24-4DB5-9E17-0B4F7F415987";
shapes = (
{
closed = 1;
nodes = (
(248,0,l),
(248,245,l),
(530,245,l),
(530,411,l),
(248,411,l),
(248,540,l),
(590,540,l),
(590,708,l),
(67,708,l),
(67,0,l)
);
}
);
width = 607;
},
{
anchors = (
{
name = bottom;
pos = (300,0);
},
{
name = top;
pos = (300,707);
}
);
background = {
shapes = (
{
closed = 1;
nodes = (
(174,0,l),
(174,283,l),
(513,283,l),
(513,363,l),
(174,363,l),
(174,628,l),
(562,628,l),
(562,707,l),
(87,707,l),
(87,0,l)
);
}
);
};
layerId = "4D7D8508-C814-4895-A1FC-EEB9C269F35C";
shapes = (
{
closed = 1;
nodes = (
(174,0,l),
(174,283,l),
(513,283,l),
(513,363,l),
(174,363,l),
(174,628,l),
(562,628,l),
(562,707,l),
(87,707,l),
(87,0,l)
);
}
);
width = 599;
}
);
unicode = 70;
},
{
glyphname = G;
kernLeft = _kern3;
kernRight = _kern4;
lastChange = "2023-07-19 12:55:53 +0000";
layers = (
{
anchors = (
{
name = bottom;
pos = (378,0);
},
{
name = top;
pos = (362,707);
}
);
background = {
shapes = (
{
closed = 1;
nodes = (
(555,-8,o),
(670,115,o),
(670,294,cs),
(670,333,l),
(384,333,l),
(384,296,l),
(632,296,l),
(629,135,o),
(538,28,o),
(376,28,cs),
(183,28,o),
(99,175,o),
(99,349,cs),
(99,524,o),
(179,679,o),
(375,679,cs),
(460,679,o),
(556,640,o),
(593,558,c),
(643,558,l),
(595,672,o),
(493,715,o),
(373,715,cs),
(157,715,o),
(51,548,o),
(54,344,cs),
(57,145,o),
(161,-8,o),
(375,-8,cs)
);
}
);
};
layerId = "C40D20BD-ED25-41E0-AB09-CBCE7F0BE71F";
shapes = (
{
closed = 1;
nodes = (
(555,-8,o),
(670,115,o),
(670,294,cs),
(670,333,l),
(384,333,l),
(384,296,l),
(632,296,l),
(629,135,o),
(538,28,o),
(376,28,cs),
(183,28,o),
(99,175,o),
(99,349,cs),
(99,524,o),
(179,679,o),
(375,679,cs),
(460,679,o),
(556,640,o),
(593,558,c),
(643,558,l),
(595,672,o),
(493,715,o),
(373,715,cs),
(157,715,o),
(51,548,o),
(54,344,cs),
(57,145,o),
(161,-8,o),
(375,-8,cs)
);
}
);
width = 724;
},
{
anchors = (
{
name = bottom;
pos = (383,0);
},
{
name = top;
pos = (370,708);
}
);
background = {
shapes = (
{
closed = 1;
nodes = (
(483,-8,o),
(586,27,o),
(648,111,cs),
(699,181,o),
(712,271,o),
(712,368,cs),
(712,394,l),
(355,394,l),
(355,242,l),
(522,242,l),
(511,186,o),
(451,163,o),
(387,163,cs),
(259,163,o),
(215,256,o),
(215,351,cs),
(215,445,o),
(258,546,o),
(392,546,cs),
(459,546,o),
(507,521,o),
(520,458,c),
(699,458,l),
(675,636,o),
(541,717,o),
(377,717,cs),
(165,717,o),
(28,581,o),
(28,357,cs),
(28,133,o),
(164,-8,o),
(377,-8,cs)
);
}
);
};
layerId = "23E38C8A-2B24-4DB5-9E17-0B4F7F415987";
shapes = (
{
closed = 1;
nodes = (
(607,-8,o),
(712,130,o),
(712,368,cs),
(712,394,l),
(355,394,l),
(355,242,l),
(522,242,l),
(511,186,o),
(451,163,o),
(387,163,cs),
(259,163,o),
(215,256,o),
(215,351,cs),
(215,445,o),
(258,546,o),
(392,546,cs),
(459,546,o),
(507,521,o),
(520,458,c),
(699,458,l),
(675,636,o),
(541,717,o),
(377,717,cs),
(165,717,o),
(28,581,o),
(28,357,cs),
(28,133,o),
(164,-8,o),
(377,-8,cs)
);
}
);
width = 740;
},
{
anchors = (
{
name = bottom;
pos = (373,0);
},
{
name = top;
pos = (360,707);
}
);
background = {
shapes = (
{
closed = 1;
nodes = (
(466,-8,o),
(539,22,o),
(591,74,cs),
(648,129,o),
(672,220,o),
(672,298,cs),
(672,357,l),
(357,357,l),
(357,278,l),
(589,278,l),
(589,218,o),
(573,170,o),
(532,127,cs),
(497,90,o),
(444,71,o),
(373,71,cs),
(209,71,o),
(137,197,o),
(137,353,cs),
(137,510,o),
(204,636,o),
(369,636,cs),
(469,636,o),
(539,591,o),
(559,522,c),
(654,522,l),
(623,639,o),
(526,715,o),
(370,715,cs),
(151,715,o),
(48,558,o),
(48,351,cs),
(48,143,o),
(154,-8,o),
(374,-8,cs)
);
}
);
};
layerId = "4D7D8508-C814-4895-A1FC-EEB9C269F35C";
shapes = (
{
closed = 1;
nodes = (
(559,-8,o),
(672,113,o),
(672,298,cs),
(672,357,l),
(357,357,l),
(357,278,l),
(589,278,l),
(589,147,o),
(508,71,o),
(373,71,cs),
(209,71,o),
(137,197,o),
(137,353,cs),
(137,510,o),
(204,636,o),
(369,636,cs),
(469,636,o),
(539,591,o),
(559,522,c),
(654,522,l),
(623,639,o),
(526,715,o),
(370,715,cs),
(151,715,o),
(48,558,o),
(48,351,cs),
(48,143,o),
(154,-8,o),
(374,-8,cs)
);
}
);
width = 720;
}
);
unicode = 71;
},
{
glyphname = Gbreve;
kernLeft = _kern3;
kernRight = _kern4;
lastChange = "2023-07-18 14:39:28 +0000";
layers = (
{
background = {
shapes = (
{
closed = 1;
nodes = (
(555,-8,o),
(670,115,o),
(670,294,cs),
(670,333,l),
(384,333,l),
(384,296,l),
(632,296,l),
(629,135,o),
(538,28,o),
(376,28,cs),
(183,28,o),
(99,175,o),
(99,349,cs),
(99,524,o),
(179,679,o),
(375,679,cs),
(460,679,o),
(556,640,o),
(593,558,c),
(643,558,l),
(595,672,o),
(493,715,o),
(373,715,cs),
(157,715,o),
(51,548,o),
(54,344,cs),
(57,145,o),
(161,-8,o),
(375,-8,cs)
);
},
{
closed = 1;
nodes = (
(447,796,o),
(512,818,o),
(523,895,c),
(484,895,l),
(473,840,o),
(428,829,o),
(376,829,cs),
(323,829,o),
(279,840,o),
(268,895,c),
(229,895,l),
(240,817,o),
(302,796,o),
(375,796,cs)
);
}
);
};
layerId = "C40D20BD-ED25-41E0-AB09-CBCE7F0BE71F";
shapes = (
{
ref = G;
},
{
pos = (362,160);
ref = brevecomb;
}
);
width = 724;
},
{
background = {
shapes = (
{
closed = 1;
nodes = (
(483,-8,o),
(586,27,o),
(648,111,cs),
(699,181,o),
(712,271,o),
(712,368,cs),
(712,394,l),
(355,394,l),
(355,242,l),
(522,242,l),
(511,186,o),
(451,163,o),
(387,163,cs),
(259,163,o),
(215,256,o),
(215,351,cs),
(215,445,o),
(258,546,o),
(392,546,cs),
(459,546,o),
(507,521,o),
(520,458,c),
(699,458,l),
(675,636,o),
(541,717,o),
(377,717,cs),
(165,717,o),
(28,581,o),
(28,357,cs),
(28,133,o),
(164,-8,o),
(377,-8,cs)
);
},
{
closed = 1;
nodes = (
(505,758,o),
(582,821,o),
(582,950,c),
(440,950,l),
(440,938,ls),
(440,901,o),
(416,879,o),
(379,879,cs),
(343,879,o),
(318,902,o),
(318,938,cs),
(318,950,l),
(176,950,l),
(176,819,o),
(253,758,o),
(378,758,cs)
);
}
);
};
layerId = "23E38C8A-2B24-4DB5-9E17-0B4F7F415987";
shapes = (
{
ref = G;
},
{
pos = (370,181);
ref = brevecomb;
}
);
width = 740;
},
{
background = {
shapes = (
{
closed = 1;
nodes = (
(464,-8,o),
(538,22,o),
(590,74,cs),
(647,129,o),
(672,220,o),
(672,298,cs),
(672,357,l),
(357,357,l),
(357,278,l),
(589,278,l),
(589,218,o),
(573,170,o),
(532,127,cs),
(497,90,o),
(444,71,o),
(373,71,cs),
(209,71,o),
(137,197,o),
(137,353,cs),
(137,510,o),
(204,636,o),
(369,636,cs),
(469,636,o),
(539,591,o),
(559,522,c),
(654,522,l),
(623,639,o),
(526,715,o),
(370,715,cs),
(150,715,o),
(48,558,o),
(48,351,cs),
(48,143,o),
(152,-8,o),
(372,-8,cs)
);
},
{
closed = 1;
nodes = (
(471,794,o),
(535,840,o),
(538,927,c),
(460,927,l),
(457,880,o),
(423,860,o),
(367,860,cs),
(311,860,o),
(277,880,o),
(274,927,c),
(196,927,l),
(199,840,o),
(261,794,o),
(366,794,cs)
);
}
);
};
layerId = "4D7D8508-C814-4895-A1FC-EEB9C269F35C";
shapes = (
{
ref = G;
},
{
pos = (360,180);
ref = brevecomb;
}
);
width = 720;
}
);
unicode = 286;
},
{
glyphname = Gcircumflex;
kernLeft = _kern3;
kernRight = _kern4;
lastChange = "2023-07-19 12:43:11 +0000";
layers = (
{
background = {
shapes = (
{
closed = 1;
nodes = (
(555,-8,o),
(670,115,o),
(670,294,cs),
(670,333,l),
(384,333,l),
(384,296,l),
(632,296,l),
(629,135,o),
(538,28,o),
(376,28,cs),
(183,28,o),
(99,175,o),
(99,349,cs),
(99,524,o),
(179,679,o),
(375,679,cs),
(460,679,o),
(556,640,o),
(593,558,c),
(643,558,l),
(595,672,o),
(493,715,o),
(373,715,cs),
(157,715,o),
(51,548,o),
(54,344,cs),
(57,145,o),
(161,-8,o),
(375,-8,cs)
);
},
{
closed = 1;
nodes = (
(283,796,l),
(365,894,l),
(450,796,l),
(493,796,l),
(382,923,l),
(350,923,l),
(239,796,l)
);
}
);
};
layerId = "C40D20BD-ED25-41E0-AB09-CBCE7F0BE71F";
shapes = (
{
ref = G;
},
{
pos = (362,180);
ref = circumflexcomb;
}
);
width = 724;
},
{
background = {
shapes = (
{
closed = 1;
nodes = (
(483,-8,o),
(586,27,o),
(648,111,cs),
(699,181,o),
(712,271,o),
(712,368,cs),
(712,394,l),
(355,394,l),
(355,242,l),
(522,242,l),
(511,186,o),
(451,163,o),
(387,163,cs),
(259,163,o),
(215,256,o),
(215,351,cs),
(215,445,o),
(258,546,o),
(392,546,cs),
(459,546,o),
(507,521,o),
(520,458,c),
(699,458,l),
(675,636,o),
(541,717,o),
(377,717,cs),
(165,717,o),
(28,581,o),
(28,357,cs),
(28,133,o),
(164,-8,o),
(377,-8,cs)
);
},
{
closed = 1;
nodes = (
(323,758,l),
(381,842,l),
(442,758,l),
(608,758,l),
(439,950,l),
(323,950,l),
(157,758,l)
);
}
);
};
layerId = "23E38C8A-2B24-4DB5-9E17-0B4F7F415987";
shapes = (
{
ref = G;
},
{
pos = (369,181);
ref = circumflexcomb;
}
);
width = 740;
},
{
background = {
shapes = (
{
closed = 1;
nodes = (
(464,-8,o),
(538,22,o),
(590,74,cs),
(647,129,o),
(672,220,o),
(672,298,cs),
(672,357,l),
(357,357,l),
(357,278,l),
(589,278,l),
(589,218,o),
(573,170,o),
(532,127,cs),
(497,90,o),
(444,71,o),
(373,71,cs),
(209,71,o),
(137,197,o),
(137,353,cs),
(137,510,o),
(204,636,o),
(369,636,cs),
(469,636,o),
(539,591,o),
(559,522,c),
(654,522,l),
(623,639,o),
(526,715,o),
(370,715,cs),
(150,715,o),
(48,558,o),
(48,351,cs),
(48,143,o),
(152,-8,o),
(372,-8,cs)
);
},
{
closed = 1;
nodes = (
(290,786,l),
(368,882,l),
(446,786,l),
(532,786,l),
(398,949,l),
(338,949,l),
(205,786,l)
);
}
);
};
layerId = "4D7D8508-C814-4895-A1FC-EEB9C269F35C";
shapes = (
{
ref = G;
},
{
pos = (359,180);
ref = circumflexcomb;
}
);
width = 720;
}
);
unicode = 284;
},
{
glyphname = Gcommaaccent;
kernLeft = _kern3;
kernRight = _kern4;
lastChange = "2023-07-19 12:55:53 +0000";
layers = (
{
background = {
shapes = (
{
closed = 1;
nodes = (
(555,-8,o),
(670,115,o),
(670,294,cs),
(670,333,l),
(384,333,l),
(384,296,l),
(632,296,l),
(629,135,o),
(538,28,o),
(376,28,cs),
(183,28,o),
(99,175,o),
(99,349,cs),
(99,524,o),
(179,679,o),
(375,679,cs),
(460,679,o),
(556,640,o),
(593,558,c),
(643,558,l),
(595,672,o),
(493,715,o),
(373,715,cs),
(157,715,o),
(51,548,o),
(54,344,cs),
(57,145,o),
(161,-8,o),
(375,-8,cs)
);
},
{
closed = 1;
nodes = (
(393,-275,o),
(423,-229,o),
(423,-172,cs),
(423,-144,o),
(407,-119,o),
(378,-119,cs),
(354,-119,o),
(337,-136,o),
(337,-159,cs),
(337,-195,o),
(371,-204,o),
(388,-198,c),
(383,-238,o),
(356,-267,o),
(333,-280,c),
(348,-300,l)
);
}
);
};
layerId = "C40D20BD-ED25-41E0-AB09-CBCE7F0BE71F";
shapes = (
{
ref = G;
},
{
pos = (378,0);
ref = commaaccentcomb;
}
);
width = 724;
},
{
background = {
shapes = (
{
closed = 1;
nodes = (
(483,-8,o),
(586,27,o),
(648,111,cs),
(699,181,o),
(712,271,o),
(712,368,cs),
(712,394,l),
(355,394,l),
(355,242,l),
(522,242,l),
(511,186,o),
(451,163,o),
(387,163,cs),
(259,163,o),
(215,256,o),
(215,351,cs),
(215,445,o),
(258,546,o),
(392,546,cs),
(459,546,o),
(507,521,o),
(520,458,c),
(699,458,l),
(675,636,o),
(541,717,o),
(377,717,cs),
(165,717,o),
(28,581,o),
(28,357,cs),
(28,133,o),
(164,-8,o),
(377,-8,cs)
);
},
{
closed = 1;
nodes = (
(404,-272,o),
(473,-216,o),
(473,-134,cs),
(473,-75,o),
(443,-33,o),
(387,-32,cs),
(343,-32,o),
(305,-58,o),
(306,-106,cs),
(306,-150,o),
(340,-174,o),
(375,-175,c),
(367,-196,o),
(318,-231,o),
(294,-240,c),
(333,-297,l)
);
}
);
};
layerId = "23E38C8A-2B24-4DB5-9E17-0B4F7F415987";
shapes = (
{
ref = G;
},
{
pos = (382,0);
ref = commaaccentcomb;
}
);
width = 740;
},
{
background = {
shapes = (
{
closed = 1;
nodes = (
(464,-8,o),
(538,22,o),
(590,74,cs),
(647,129,o),
(672,220,o),
(672,298,cs),
(672,357,l),
(357,357,l),
(357,278,l),
(589,278,l),
(589,218,o),
(573,170,o),
(532,127,cs),
(497,90,o),
(444,71,o),
(373,71,cs),
(209,71,o),
(137,197,o),
(137,353,cs),
(137,510,o),
(204,636,o),
(369,636,cs),
(469,636,o),
(539,591,o),
(559,522,c),
(654,522,l),
(623,639,o),
(526,715,o),
(370,715,cs),
(150,715,o),
(48,558,o),
(48,351,cs),
(48,143,o),
(152,-8,o),
(372,-8,cs)
);
},
{
closed = 1;
nodes = (
(389,-285,o),
(435,-216,o),
(437,-149,cs),
(438,-108,o),
(419,-69,o),
(370,-70,cs),
(341,-70,o),
(314,-91,o),
(314,-128,cs),
(314,-161,o),
(337,-182,o),
(372,-185,c),
(364,-217,o),
(338,-252,o),
(311,-271,c),
(335,-304,l)
);
}
);
};
layerId = "4D7D8508-C814-4895-A1FC-EEB9C269F35C";
shapes = (
{
ref = G;
},
{
pos = (373,0);
ref = commaaccentcomb;
}
);
width = 720;
}
);
unicode = 290;
},
{
glyphname = Gdotaccent;
kernLeft = _kern3;
kernRight = _kern4;
lastChange = "2023-07-19 12:48:01 +0000";
layers = (
{
background = {
shapes = (
{
closed = 1;
nodes = (
(555,-8,o),
(670,115,o),
(670,294,cs),
(670,333,l),
(384,333,l),
(384,296,l),
(632,296,l),
(629,135,o),
(538,28,o),
(376,28,cs),
(183,28,o),
(99,175,o),
(99,349,cs),
(99,524,o),
(179,679,o),
(375,679,cs),
(460,679,o),
(556,640,o),
(593,558,c),
(643,558,l),
(595,672,o),
(493,715,o),
(373,715,cs),
(157,715,o),
(51,548,o),
(54,344,cs),
(57,145,o),
(161,-8,o),
(375,-8,cs)
);
},
{
closed = 1;
nodes = (
(396,796,o),
(413,811,o),
(413,836,cs),
(413,860,o),
(397,874,o),
(374,874,cs),
(351,874,o),
(334,861,o),
(334,836,cs),
(334,809,o),
(350,796,o),
(373,796,cs)
);
}
);
};
layerId = "C40D20BD-ED25-41E0-AB09-CBCE7F0BE71F";
shapes = (
{
ref = G;
},
{
pos = (361,180);
ref = dotaccentcomb;
}
);
width = 724;
},
{
background = {
shapes = (
{
closed = 1;
nodes = (
(483,-8,o),
(586,27,o),
(648,111,cs),
(699,181,o),
(712,271,o),
(712,368,cs),
(712,394,l),
(355,394,l),
(355,242,l),
(522,242,l),
(511,186,o),
(451,163,o),
(387,163,cs),
(259,163,o),
(215,256,o),
(215,351,cs),
(215,445,o),
(258,546,o),
(392,546,cs),
(459,546,o),
(507,521,o),
(520,458,c),
(699,458,l),
(675,636,o),
(541,717,o),
(377,717,cs),
(165,717,o),
(28,581,o),
(28,357,cs),
(28,133,o),
(164,-8,o),
(377,-8,cs)
);
},
{
closed = 1;
nodes = (
(441,744,o),
(484,785,o),
(484,848,cs),
(484,913,o),
(437,954,o),
(378,954,cs),
(317,954,o),
(270,910,o),
(270,847,cs),
(270,786,o),
(313,744,o),
(377,744,cs)
);
}
);
};
layerId = "23E38C8A-2B24-4DB5-9E17-0B4F7F415987";
shapes = (
{
ref = G;
},
{
pos = (370,181);
ref = dotaccentcomb;
}
);
width = 740;
},
{
background = {
shapes = (
{
closed = 1;
nodes = (
(464,-8,o),
(537,23,o),
(590,74,c),
(646,130,o),
(672,220,o),
(672,298,cs),
(672,357,l),
(357,357,l),
(357,278,l),
(589,278,l),
(589,218,o),
(573,170,o),
(532,127,cs),
(497,90,o),
(444,71,o),
(373,71,cs),
(209,71,o),
(137,197,o),
(137,353,cs),
(137,510,o),
(204,636,o),
(369,636,cs),
(469,636,o),
(539,591,o),
(559,522,c),
(654,522,l),
(623,639,o),
(526,715,o),
(370,715,cs),
(150,715,o),
(48,558,o),
(48,351,cs),
(48,143,o),
(152,-8,o),
(372,-8,cs)
);
},
{
closed = 1;
nodes = (
(401,785,o),
(427,809,o),
(427,842,cs),
(427,874,o),
(400,898,o),
(369,898,cs),
(336,898,o),
(312,875,o),
(312,842,cs),
(312,809,o),
(334,785,o),
(369,785,cs)
);
}
);
};
layerId = "4D7D8508-C814-4895-A1FC-EEB9C269F35C";
shapes = (
{
ref = G;
},
{
pos = (359,180);
ref = dotaccentcomb;
}
);
width = 720;
}
);
unicode = 288;
},
{
glyphname = H;
kernLeft = _kern1;
kernRight = _kern2;
lastChange = "2023-07-18 14:39:23 +0000";
layers = (
{
anchors = (
{
name = bottom;
pos = (363,0);
},
{
name = center;
pos = (363,354);
},
{
name = top;
pos = (363,707);
},
{
name = topleft;
pos = (20,707);
}
);
background = {
shapes = (
{
closed = 1;
nodes = (
(135,0,l),
(135,328,l),
(590,328,l),
(590,0,l),
(632,0,l),
(632,707,l),
(590,707,l),
(590,365,l),
(135,365,l),
(135,707,l),
(93,707,l),
(93,0,l)
);
}
);
};
layerId = "C40D20BD-ED25-41E0-AB09-CBCE7F0BE71F";
shapes = (
{
closed = 1;
nodes = (
(135,0,l),
(135,328,l),
(590,328,l),
(590,0,l),
(632,0,l),
(632,707,l),
(590,707,l),
(590,365,l),
(135,365,l),
(135,707,l),
(93,707,l),
(93,0,l)
);
}
);
width = 725;
},
{
anchors = (
{
name = bottom;
pos = (377,0);
},
{
name = center;
pos = (377,354);
},
{
name = top;
pos = (377,708);
},
{
name = topleft;
pos = (20,708);
}
);
background = {
shapes = (
{
closed = 1;
nodes = (
(248,0,l),
(248,267,l),
(505,267,l),
(505,0,l),
(686,0,l),
(686,708,l),
(505,708,l),
(505,433,l),
(248,433,l),
(248,708,l),
(67,708,l),
(67,0,l)
);
}
);
};
layerId = "23E38C8A-2B24-4DB5-9E17-0B4F7F415987";
shapes = (
{
closed = 1;
nodes = (
(248,0,l),
(248,267,l),
(505,267,l),
(505,0,l),
(686,0,l),
(686,708,l),
(505,708,l),
(505,433,l),
(248,433,l),
(248,708,l),
(67,708,l),
(67,0,l)
);
}
);
width = 753;
},
{
anchors = (
{
name = bottom;
pos = (364,0);
},
{
name = center;
pos = (364,354);
},
{
name = top;
pos = (364,707);
},
{
name = topleft;
pos = (20,707);
}
);
background = {
shapes = (
{
closed = 1;
nodes = (
(174,0,l),
(174,307,l),
(553,307,l),
(553,0,l),
(640,0,l),
(640,707,l),
(553,707,l),
(553,387,l),
(174,387,l),
(174,707,l),
(87,707,l),
(87,0,l)
);
}
);
};
layerId = "4D7D8508-C814-4895-A1FC-EEB9C269F35C";
shapes = (
{
closed = 1;
nodes = (
(174,0,l),
(174,307,l),
(553,307,l),
(553,0,l),
(640,0,l),
(640,707,l),
(553,707,l),
(553,387,l),
(174,387,l),
(174,707,l),
(87,707,l),
(87,0,l)
);
}
);
width = 727;
}
);
unicode = 72;
},
{
glyphname = Hbar;
kernLeft = _kern1;
kernRight = _kern2;
lastChange = "2023-07-18 14:39:23 +0000";
layers = (
{
background = {
shapes = (
{
closed = 1;
nodes = (
(135,0,l),
(135,328,l),
(590,328,l),
(590,0,l),
(632,0,l),
(632,517,l),
(701,517,l),
(701,554,l),
(632,554,l),
(632,707,l),
(590,707,l),
(590,554,l),
(135,554,l),
(135,707,l),
(93,707,l),
(93,554,l),
(23,554,l),
(23,517,l),
(93,517,l),
(93,0,l)
);
},
{
closed = 1;
nodes = (
(135,517,l),
(590,517,l),
(590,365,l),
(135,365,l)
);
}
);
};
layerId = "C40D20BD-ED25-41E0-AB09-CBCE7F0BE71F";
shapes = (
{
closed = 1;
nodes = (
(135,0,l),
(135,328,l),
(590,328,l),
(590,0,l),
(632,0,l),
(632,517,l),
(701,517,l),
(701,554,l),
(632,554,l),
(632,707,l),
(590,707,l),
(590,554,l),
(135,554,l),
(135,707,l),
(93,707,l),
(93,554,l),
(23,554,l),
(23,517,l),
(93,517,l),
(93,0,l)
);
},
{
closed = 1;
nodes = (
(135,517,l),
(590,517,l),
(590,365,l),
(135,365,l)
);
}
);
width = 725;
},
{
background = {
shapes = (
{
closed = 1;
nodes = (
(248,0,l),
(248,237,l),
(505,237,l),
(505,0,l),
(686,0,l),
(686,482,l),
(751,482,l),
(751,629,l),
(686,629,l),
(686,708,l),
(505,708,l),
(505,629,l),
(248,629,l),
(248,708,l),
(67,708,l),
(67,629,l),
(2,629,l),
(2,482,l),
(67,482,l),
(67,0,l)
);
},
{
closed = 1;
nodes = (
(248,482,l),
(505,482,l),
(505,403,l),
(248,403,l)
);
}
);
};
layerId = "23E38C8A-2B24-4DB5-9E17-0B4F7F415987";
shapes = (
{
closed = 1;
nodes = (
(248,0,l),
(248,237,l),
(505,237,l),
(505,0,l),
(686,0,l),
(686,482,l),
(751,482,l),
(751,629,l),
(686,629,l),
(686,708,l),
(505,708,l),
(505,629,l),
(248,629,l),
(248,708,l),
(67,708,l),
(67,629,l),
(2,629,l),
(2,482,l),
(67,482,l),
(67,0,l)
);
},
{
closed = 1;
nodes = (
(248,482,l),
(505,482,l),
(505,403,l),
(248,403,l)
);
}
);
width = 753;
},
{
background = {
shapes = (
{
closed = 1;
nodes = (
(174,0,l),
(174,307,l),
(553,307,l),
(553,0,l),
(640,0,l),
(640,510,l),
(728,510,l),
(728,584,l),
(640,584,l),
(640,707,l),
(553,707,l),
(553,584,l),
(174,584,l),
(174,707,l),
(87,707,l),
(87,584,l),
(0,584,l),
(0,510,l),
(87,510,l),
(87,0,l)
);
},
{
closed = 1;
nodes = (
(174,510,l),
(553,510,l),
(553,387,l),
(174,387,l)
);
}
);
};
layerId = "4D7D8508-C814-4895-A1FC-EEB9C269F35C";
shapes = (
{
closed = 1;
nodes = (
(174,0,l),
(174,307,l),
(553,307,l),
(553,0,l),
(640,0,l),
(640,510,l),
(728,510,l),
(728,584,l),
(640,584,l),
(640,707,l),
(553,707,l),
(553,584,l),
(174,584,l),
(174,707,l),
(87,707,l),
(87,584,l),
(0,584,l),
(0,510,l),
(87,510,l),
(87,0,l)
);
},
{
closed = 1;
nodes = (
(174,510,l),
(553,510,l),
(553,387,l),
(174,387,l)
);
}
);
width = 727;
}
);
unicode = 294;
},
{
glyphname = Hcircumflex;
kernLeft = _kern1;
kernRight = _kern2;
lastChange = "2023-07-19 12:43:11 +0000";
layers = (
{
background = {
shapes = (
{
closed = 1;
nodes = (
(135,0,l),
(135,328,l),
(590,328,l),
(590,0,l),
(632,0,l),
(632,707,l),
(590,707,l),
(590,365,l),
(135,365,l),
(135,707,l),
(93,707,l),
(93,0,l)
);
},
{
closed = 1;
nodes = (
(281,796,l),
(363,894,l),
(448,796,l),
(491,796,l),
(380,923,l),
(348,923,l),
(237,796,l)
);
}
);
};
layerId = "C40D20BD-ED25-41E0-AB09-CBCE7F0BE71F";
shapes = (
{
ref = H;
},
{
pos = (363,180);
ref = circumflexcomb;
}
);
width = 725;
},
{
background = {
shapes = (
{
closed = 1;
nodes = (
(248,0,l),
(248,267,l),
(505,267,l),
(505,0,l),
(686,0,l),
(686,708,l),
(505,708,l),
(505,433,l),
(248,433,l),
(248,708,l),
(67,708,l),
(67,0,l)
);
},
{
closed = 1;
nodes = (
(313,758,l),
(371,842,l),
(432,758,l),
(598,758,l),
(429,950,l),
(313,950,l),
(147,758,l)
);
}
);
};
layerId = "23E38C8A-2B24-4DB5-9E17-0B4F7F415987";
shapes = (
{
ref = H;
},
{
pos = (376,181);
ref = circumflexcomb;
}
);
width = 753;
},
{
background = {
shapes = (
{
closed = 1;
nodes = (
(174,0,l),
(174,307,l),
(553,307,l),
(553,0,l),
(640,0,l),
(640,707,l),
(553,707,l),
(553,387,l),
(174,387,l),
(174,707,l),
(87,707,l),
(87,0,l)
);
},
{
closed = 1;
nodes = (
(286,786,l),
(364,882,l),
(442,786,l),
(528,786,l),
(394,949,l),
(334,949,l),
(201,786,l)
);
}
);
};
layerId = "4D7D8508-C814-4895-A1FC-EEB9C269F35C";
shapes = (
{
ref = H;
},
{
pos = (363,180);
ref = circumflexcomb;
}
);
width = 727;
}
);
unicode = 292;
},
{
glyphname = I;
kernLeft = _kern1;
kernRight = _kern2;
lastChange = "2023-07-19 12:47:52 +0000";
layers = (
{
anchors = (
{
name = bottom;
pos = (114,0);
},
{
name = ogonek;
pos = (91,10);
},
{
name = top;
pos = (114,707);
},
{
name = topleft;
pos = (20,707);
}
);
background = {
shapes = (
{
closed = 1;
nodes = (
(135,0,l),
(135,707,l),
(93,707,l),
(93,0,l)
);
}
);
};
layerId = "C40D20BD-ED25-41E0-AB09-CBCE7F0BE71F";
shapes = (
{
closed = 1;
nodes = (
(135,0,l),
(135,707,l),
(93,707,l),
(93,0,l)
);
}
);
width = 228;
},
{
anchors = (
{
name = bottom;
pos = (158,0);
},
{
name = ogonek;
pos = (211,10);
},
{
name = top;
pos = (158,708);
},
{
name = topleft;
pos = (20,708);
}
);
background = {
shapes = (
{
closed = 1;
nodes = (
(248,0,l),
(248,708,l),
(67,708,l),
(67,0,l)
);
}
);
};
layerId = "23E38C8A-2B24-4DB5-9E17-0B4F7F415987";
shapes = (
{
closed = 1;
nodes = (
(248,0,l),
(248,708,l),
(67,708,l),
(67,0,l)
);
}
);
width = 315;
},
{
anchors = (
{
name = bottom;
pos = (131,0);
},
{
name = ogonek;
pos = (132,10);
},
{
name = top;
pos = (131,707);
},
{
name = topleft;
pos = (20,707);
}
);
background = {
shapes = (
{
closed = 1;
nodes = (
(174,0,l),
(174,707,l),
(87,707,l),
(87,0,l)
);
}
);
};
layerId = "4D7D8508-C814-4895-A1FC-EEB9C269F35C";
shapes = (
{
closed = 1;
nodes = (
(174,0,l),
(174,707,l),
(87,707,l),
(87,0,l)
);
}
);
width = 261;
}
);
unicode = 73;
},
{
glyphname = IJ;
kernLeft = _kern1;
kernRight = _kern2;
lastChange = "2023-07-18 14:41:58 +0000";
layers = (
{
background = {
shapes = (
{
closed = 1;
nodes = (
(566,-8,o),
(598,115,o),
(598,235,cs),
(598,707,l),
(555,707,l),
(555,243,ls),
(555,128,o),
(529,28,o),
(395,28,cs),
(302,28,o),
(248,69,o),
(233,161,c),
(186,161,l),
(203,41,o),
(277,-8,o),
(392,-8,cs)
);
},
{
closed = 1;
nodes = (
(135,0,l),
(135,707,l),
(93,707,l),
(93,0,l)
);
}
);
};
layerId = "C40D20BD-ED25-41E0-AB09-CBCE7F0BE71F";
shapes = (
{
closed = 1;
nodes = (
(566,-8,o),
(598,115,o),
(598,235,cs),
(598,707,l),
(555,707,l),
(555,243,ls),
(555,128,o),
(529,28,o),
(395,28,cs),
(302,28,o),
(248,69,o),
(233,161,c),
(186,161,l),
(203,41,o),
(277,-8,o),
(392,-8,cs)
);
},
{
closed = 1;
nodes = (
(135,0,l),
(135,707,l),
(93,707,l),
(93,0,l)
);
}
);
width = 686;
},
{
background = {
shapes = (
{
closed = 1;
nodes = (
(710,-8,o),
(795,80,o),
(794,255,c),
(794,708,l),
(613,708,l),
(613,242,ls),
(613,202,o),
(602,161,o),
(540,161,cs),
(461,161,o),
(457,225,o),
(457,269,c),
(277,269,l),
(277,243,ls),
(277,85,o),
(377,-8,o),
(546,-8,cs)
);
},
{
closed = 1;
nodes = (
(248,0,l),
(248,708,l),
(67,708,l),
(67,0,l)
);
}
);
};
layerId = "23E38C8A-2B24-4DB5-9E17-0B4F7F415987";
shapes = (
{
closed = 1;
nodes = (
(710,-8,o),
(794,80,o),
(794,255,cs),
(794,708,l),
(613,708,l),
(613,242,ls),
(613,202,o),
(602,161,o),
(540,161,cs),
(461,161,o),
(457,225,o),
(457,269,c),
(277,269,l),
(277,53,o),
(400,-8,o),
(546,-8,cs)
);
},
{
closed = 1;
nodes = (
(248,0,l),
(248,708,l),
(67,708,l),
(67,0,l)
);
}
);
width = 857;
},
{
background = {
shapes = (
{
closed = 1;
nodes = (
(612,-8,o),
(667,96,o),
(667,244,cs),
(667,707,l),
(580,707,l),
(580,226,ls),
(580,135,o),
(550,71,o),
(457,71,c),
(369,72,o),
(329,119,o),
(321,195,c),
(233,195,l),
(241,55,o),
(318,-8,o),
(457,-8,cs)
);
},
{
closed = 1;
nodes = (
(174,0,l),
(174,707,l),
(87,707,l),
(87,0,l)
);
}
);
};
layerId = "4D7D8508-C814-4895-A1FC-EEB9C269F35C";
shapes = (
{
closed = 1;
nodes = (
(612,-8,o),
(667,96,o),
(667,244,cs),
(667,707,l),
(580,707,l),
(580,226,ls),
(580,135,o),
(550,71,o),
(457,71,cs),
(369,71,o),
(329,119,o),
(321,195,c),
(233,195,l),
(241,55,o),
(318,-8,o),
(457,-8,cs)
);
},
{
closed = 1;
nodes = (
(174,0,l),
(174,707,l),
(87,707,l),
(87,0,l)
);
}
);
width = 749;
}
);
unicode = 306;
},
{
glyphname = Iacute;
kernLeft = _kern1;
kernRight = _kern2;
lastChange = "2023-07-19 12:42:54 +0000";
layers = (
{
background = {
shapes = (
{
closed = 1;
nodes = (
(135,0,l),
(135,707,l),
(93,707,l),
(93,0,l)
);
},
{
closed = 1;
nodes = (
(128,796,l),
(216,923,l),
(166,923,l),
(90,796,l)
);
}
);
};
layerId = "C40D20BD-ED25-41E0-AB09-CBCE7F0BE71F";
shapes = (
{
ref = I;
},
{
pos = (114,180);
ref = acutecomb;
}
);
width = 228;
},
{
background = {
shapes = (
{
closed = 1;
nodes = (
(248,0,l),
(248,708,l),
(67,708,l),
(67,0,l)
);
},
{
closed = 1;
nodes = (
(201,758,l),
(372,950,l),
(185,950,l),
(53,758,l)
);
}
);
};
layerId = "23E38C8A-2B24-4DB5-9E17-0B4F7F415987";
shapes = (
{
ref = I;
},
{
pos = (158,181);
ref = acutecomb;
}
);
width = 315;
},
{
background = {
shapes = (
{
closed = 1;
nodes = (
(174,0,l),
(174,707,l),
(87,707,l),
(87,0,l)
);
},
{
closed = 1;
nodes = (
(157,786,l),
(257,927,l),
(165,927,l),
(80,786,l)
);
}
);
};
layerId = "4D7D8508-C814-4895-A1FC-EEB9C269F35C";
shapes = (
{
ref = I;
},
{
pos = (131,174);
ref = acutecomb;
}
);
width = 261;
}
);
unicode = 205;
},
{
glyphname = Ibreve;
kernLeft = _kern1;
kernRight = _kern2;
lastChange = "2023-07-18 14:39:28 +0000";
layers = (
{
background = {
shapes = (
{
closed = 1;
nodes = (
(135,0,l),
(135,707,l),
(93,707,l),
(93,0,l)
);
},
{
closed = 1;
nodes = (
(185,796,o),
(250,818,o),
(261,895,c),
(222,895,l),
(211,840,o),
(166,829,o),
(114,829,cs),
(61,829,o),
(17,840,o),
(6,895,c),
(-33,895,l),
(-22,817,o),
(40,796,o),
(113,796,cs)
);
}
);
};
layerId = "C40D20BD-ED25-41E0-AB09-CBCE7F0BE71F";
shapes = (
{
ref = I;
},
{
pos = (114,160);
ref = brevecomb;
}
);
width = 228;
},
{
background = {
shapes = (
{
closed = 1;
nodes = (
(248,0,l),
(248,708,l),
(67,708,l),
(67,0,l)
);
},
{
closed = 1;
nodes = (
(283,758,o),
(360,821,o),
(360,950,c),
(218,950,l),
(218,938,ls),
(218,901,o),
(194,879,o),
(157,879,cs),
(121,879,o),
(96,902,o),
(96,938,cs),
(96,950,l),
(-46,950,l),
(-46,819,o),
(31,758,o),
(156,758,cs)
);
}
);
};
layerId = "23E38C8A-2B24-4DB5-9E17-0B4F7F415987";
shapes = (
{
ref = I;
},
{
pos = (158,181);
ref = brevecomb;
}
);
width = 315;
},
{
background = {
shapes = (
{
closed = 1;
nodes = (
(174,0,l),
(174,707,l),
(87,707,l),
(87,0,l)
);
},
{
closed = 1;
nodes = (
(234,781,o),
(298,827,o),
(301,914,c),
(223,914,l),
(220,867,o),
(186,847,o),
(130,847,cs),
(74,847,o),
(40,867,o),
(37,914,c),
(-41,914,l),
(-38,827,o),
(24,781,o),
(129,781,cs)
);
}
);
};
layerId = "4D7D8508-C814-4895-A1FC-EEB9C269F35C";
shapes = (
{
ref = I;
},
{
pos = (131,180);
ref = brevecomb;
}
);
width = 261;
}
);
unicode = 300;
},
{
glyphname = Icircumflex;
kernLeft = _kern1;
kernRight = _kern2;
lastChange = "2023-07-19 12:43:11 +0000";
layers = (
{
background = {
shapes = (
{
closed = 1;
nodes = (
(31,796,l),
(113,894,l),
(198,796,l),
(241,796,l),
(130,923,l),
(98,923,l),
(-13,796,l)
);
},
{
closed = 1;
nodes = (
(135,0,l),
(135,707,l),
(93,707,l),
(93,0,l)
);
}
);
};
layerId = "C40D20BD-ED25-41E0-AB09-CBCE7F0BE71F";
shapes = (
{
ref = I;
},
{
pos = (114,180);
ref = circumflexcomb;
}
);
width = 228;
},
{
background = {
shapes = (
{
closed = 1;
nodes = (
(248,0,l),
(248,708,l),
(67,708,l),
(67,0,l)
);
},
{
closed = 1;
nodes = (
(98,758,l),
(156,842,l),
(217,758,l),
(383,758,l),
(214,950,l),
(98,950,l),
(-68,758,l)
);
}
);
};
layerId = "23E38C8A-2B24-4DB5-9E17-0B4F7F415987";
shapes = (
{
ref = I;
},
{
pos = (157,181);
ref = circumflexcomb;
}
);
width = 315;
},
{
background = {
shapes = (
{
closed = 1;
nodes = (
(16,792,l),
(103,914,l),
(190,792,l),
(276,792,l),
(133,982,l),
(73,982,l),
(-69,792,l)
);
},
{
closed = 1;
nodes = (
(147,0,l),
(147,707,l),
(60,707,l),
(60,0,l)
);
}
);
};
layerId = "4D7D8508-C814-4895-A1FC-EEB9C269F35C";
shapes = (
{
ref = I;
},
{
pos = (130,180);
ref = circumflexcomb;
}
);
width = 261;
}
);
unicode = 206;
},
{
glyphname = Idieresis;
kernLeft = _kern1;
kernRight = _kern2;
lastChange = "2023-07-19 12:43:47 +0000";
layers = (
{
background = {
shapes = (
{
closed = 1;
nodes = (
(135,0,l),
(135,707,l),
(93,707,l),
(93,0,l)
);
},
{
closed = 1;
nodes = (
(32,796,o),
(48,812,o),
(48,835,cs),
(48,858,o),
(32,874,o),
(7,874,cs),
(-17,874,o),
(-32,856,o),
(-32,835,cs),
(-32,814,o),
(-17,796,o),
(7,796,cs)
);
},
{
closed = 1;
nodes = (
(243,796,o),
(259,812,o),
(259,835,cs),
(259,858,o),
(243,874,o),
(218,874,cs),
(194,874,o),
(179,856,o),
(179,835,cs),
(179,814,o),
(194,796,o),
(218,796,cs)
);
}
);
};
layerId = "C40D20BD-ED25-41E0-AB09-CBCE7F0BE71F";
shapes = (
{
ref = I;
},
{
pos = (113,180);
ref = dieresiscomb;
}
);
width = 228;
},
{
background = {
shapes = (
{
closed = 1;
nodes = (
(248,0,l),
(248,708,l),
(67,708,l),
(67,0,l)
);
},
{
closed = 1;
nodes = (
(90,757,o),
(134,788,o),
(134,848,cs),
(134,910,o),
(88,944,o),
(39,944,cs),
(-11,944,o),
(-56,909,o),
(-56,848,cs),
(-56,788,o),
(-12,757,o),
(39,757,cs)
);
},
{
closed = 1;
nodes = (
(329,757,o),
(371,788,o),
(371,849,cs),
(371,910,o),
(327,944,o),
(278,944,cs),
(228,944,o),
(181,909,o),
(181,848,cs),
(181,788,o),
(228,757,o),
(278,757,cs)
);
}
);
};
layerId = "23E38C8A-2B24-4DB5-9E17-0B4F7F415987";
shapes = (
{
ref = I;
},
{
pos = (157,181);
ref = dieresiscomb;
}
);
width = 315;
},
{
background = {
shapes = (
{
closed = 1;
nodes = (
(174,0,l),
(174,707,l),
(87,707,l),
(87,0,l)
);
},
{
closed = 1;
nodes = (
(60,788,o),
(85,811,o),
(85,844,cs),
(85,877,o),
(60,900,o),
(27,900,cs),
(-5,900,o),
(-30,877,o),
(-30,844,cs),
(-30,811,o),
(-5,788,o),
(27,788,cs)
);
},
{
closed = 1;
nodes = (
(265,788,o),
(290,811,o),
(290,844,cs),
(290,877,o),
(265,900,o),
(232,900,cs),
(200,900,o),
(176,877,o),
(176,844,cs),
(176,811,o),
(200,788,o),
(232,788,cs)
);
}
);
};
layerId = "4D7D8508-C814-4895-A1FC-EEB9C269F35C";
shapes = (
{
ref = I;
},
{
pos = (131,180);
ref = dieresiscomb;
}
);
width = 261;
}
);
unicode = 207;
},
{
glyphname = Idotaccent;
kernLeft = _kern1;
kernRight = _kern2;
lastChange = "2023-07-19 12:48:01 +0000";
layers = (
{
background = {
shapes = (
{
closed = 1;
nodes = (
(135,0,l),
(135,707,l),
(93,707,l),
(93,0,l)
);
},
{
closed = 1;
nodes = (
(136,796,o),
(153,811,o),
(153,836,cs),
(153,860,o),
(137,874,o),
(114,874,cs),
(91,874,o),
(74,861,o),
(74,836,cs),
(74,809,o),
(90,796,o),
(113,796,cs)
);
}
);
};
layerId = "C40D20BD-ED25-41E0-AB09-CBCE7F0BE71F";
shapes = (
{
ref = I;
},
{
pos = (113,180);
ref = dotaccentcomb;
}
);
width = 228;
},
{
background = {
shapes = (
{
closed = 1;
nodes = (
(248,0,l),
(248,708,l),
(67,708,l),
(67,0,l)
);
},
{
closed = 1;
nodes = (
(221,746,o),
(264,787,o),
(264,850,cs),
(264,915,o),
(217,956,o),
(158,956,cs),
(97,956,o),
(50,912,o),
(50,849,cs),
(50,788,o),
(93,746,o),
(157,746,cs)
);
}
);
};
layerId = "23E38C8A-2B24-4DB5-9E17-0B4F7F415987";
shapes = (
{
ref = I;
},
{
pos = (158,181);
ref = dotaccentcomb;
}
);
width = 315;
},
{
background = {
shapes = (
{
closed = 1;
nodes = (
(174,0,l),
(174,707,l),
(87,707,l),
(87,0,l)
);
},
{
closed = 1;
nodes = (
(162,784,o),
(188,808,o),
(188,841,cs),
(188,874,o),
(162,897,o),
(130,897,cs),
(97,897,o),
(73,874,o),
(73,841,cs),
(73,808,o),
(97,784,o),
(130,784,cs)
);
}
);
};
layerId = "4D7D8508-C814-4895-A1FC-EEB9C269F35C";
shapes = (
{
ref = I;
},
{
pos = (130,180);
ref = dotaccentcomb;
}
);
width = 261;
}
);
unicode = 304;
},
{
glyphname = Igrave;
kernLeft = _kern1;
kernRight = _kern2;
lastChange = "2023-07-20 10:00:36 +0000";
layers = (
{
background = {
shapes = (
{
closed = 1;
nodes = (
(135,0,l),
(135,707,l),
(93,707,l),
(93,0,l)
);
},
{
closed = 1;
nodes = (
(147,796,l),
(71,923,l),
(21,923,l),
(109,796,l)
);
}
);
};
layerId = "C40D20BD-ED25-41E0-AB09-CBCE7F0BE71F";
shapes = (
{
ref = I;
},
{
pos = (114,180);
ref = gravecomb;
}
);
width = 228;
},
{
background = {
shapes = (
{
closed = 1;
nodes = (
(248,0,l),
(248,708,l),
(67,708,l),
(67,0,l)
);
},
{
closed = 1;
nodes = (
(280,758,l),
(148,950,l),
(-39,950,l),
(132,758,l)
);
}
);
};
layerId = "23E38C8A-2B24-4DB5-9E17-0B4F7F415987";
shapes = (
{
ref = I;
},
{
pos = (132,181);
ref = gravecomb;
}
);
width = 315;
},
{
background = {
shapes = (
{
closed = 1;
nodes = (
(174,0,l),
(174,707,l),
(87,707,l),
(87,0,l)
);
},
{
closed = 1;
nodes = (
(187,786,l),
(102,927,l),
(10,927,l),
(110,786,l)
);
}
);
};
layerId = "4D7D8508-C814-4895-A1FC-EEB9C269F35C";
shapes = (
{
ref = I;
},
{
pos = (124,180);
ref = gravecomb;
}
);
width = 261;
}
);
unicode = 204;
},
{
glyphname = Imacron;
kernLeft = _kern1;
kernRight = _kern2;
lastChange = "2023-07-19 12:58:09 +0000";
layers = (
{
background = {
shapes = (
{
closed = 1;
nodes = (
(135,0,l),
(135,707,l),
(93,707,l),
(93,0,l)
);
},
{
closed = 1;
nodes = (
(264,822,l),
(264,857,l),
(-35,857,l),
(-35,822,l)
);
}
);
};
layerId = "C40D20BD-ED25-41E0-AB09-CBCE7F0BE71F";
shapes = (
{
ref = I;
},
{
pos = (113,180);
ref = macroncomb;
}
);
width = 228;
},
{
background = {
shapes = (
{
closed = 1;
nodes = (
(248,0,l),
(248,708,l),
(67,708,l),
(67,0,l)
);
},
{
closed = 1;
nodes = (
(326,797,l),
(326,950,l),
(-10,950,l),
(-10,797,l)
);
}
);
};
layerId = "23E38C8A-2B24-4DB5-9E17-0B4F7F415987";
shapes = (
{
ref = I;
},
{
pos = (158,181);
ref = macroncomb;
}
);
width = 315;
},
{
background = {
shapes = (
{
closed = 1;
nodes = (
(174,0,l),
(174,707,l),
(87,707,l),
(87,0,l)
);
},
{
closed = 1;
nodes = (
(285,813,l),
(285,887,l),
(-24,887,l),
(-24,813,l)
);
}
);
};
layerId = "4D7D8508-C814-4895-A1FC-EEB9C269F35C";
shapes = (
{
ref = I;
},
{
pos = (130,180);
ref = macroncomb;
}
);
width = 261;
}
);
unicode = 298;
},
{
glyphname = Iogonek;
kernLeft = _kern1;
kernRight = _kern2;
lastChange = "2023-07-19 12:47:52 +0000";
layers = (
{
background = {
shapes = (
{
closed = 1;
nodes = (
(162,-201,o),
(180,-198,o),
(196,-191,c),
(188,-161,l),
(177,-165,o),
(160,-168,o),
(148,-168,cs),
(101,-167,o),
(71,-145,o),
(71,-97,cs),
(71,-57,o),
(99,-23,o),
(131,0,c),
(135,0,l),
(135,707,l),
(93,707,l),
(93,0,l),
(96,0,l),
(61,-20,o),
(32,-66,o),
(32,-105,cs),
(32,-172,o),
(82,-201,o),
(143,-201,cs)
);
}
);
};
layerId = "C40D20BD-ED25-41E0-AB09-CBCE7F0BE71F";
shapes = (
{
ref = I;
},
{
pos = (114,0);
ref = ogonekcomb;
}
);
width = 228;
},
{
background = {
shapes = (
{
closed = 1;
nodes = (
(211,-197,o),
(243,-194,o),
(268,-179,c),
(252,-83,l),
(240,-88,o),
(228,-92,o),
(214,-92,cs),
(188,-92,o),
(169,-78,o),
(170,-51,c),
(172,-22,o),
(195,-8,o),
(220,0,c),
(248,0,l),
(248,708,l),
(67,708,l),
(67,0,l),
(107,0,l),
(78,-17,o),
(57,-56,o),
(57,-95,cs),
(57,-157,o),
(109,-197,o),
(189,-197,cs)
);
}
);
};
layerId = "23E38C8A-2B24-4DB5-9E17-0B4F7F415987";
shapes = (
{
ref = I;
},
{
pos = (162,0);
ref = ogonekcomb;
}
);
width = 315;
},
{
background = {
shapes = (
{
closed = 1;
nodes = (
(182,-224,o),
(202,-220,o),
(226,-207,c),
(212,-148,l),
(196,-156,o),
(180,-160,o),
(164,-160,cs),
(125,-160,o),
(100,-138,o),
(100,-101,cs),
(100,-58,o),
(139,-24,o),
(167,0,c),
(174,0,l),
(174,707,l),
(87,707,l),
(87,0,l),
(94,0,l),
(55,-25,o),
(26,-63,o),
(26,-111,cs),
(26,-179,o),
(74,-223,o),
(155,-224,c)
);
}
);
};
layerId = "4D7D8508-C814-4895-A1FC-EEB9C269F35C";
shapes = (
{
ref = I;
},
{
pos = (115,0);
ref = ogonekcomb;
}
);
width = 261;
}
);
unicode = 302;
},
{
glyphname = Itilde;
kernLeft = _kern1;
kernRight = _kern2;
lastChange = "2023-07-19 12:57:27 +0000";
layers = (
{
background = {
shapes = (
{
closed = 1;
nodes = (
(240,812,o),
(262,855,o),
(262,914,c),
(225,914,l),
(225,881,o),
(221,842,o),
(181,842,cs),
(136,842,o),
(114,918,o),
(52,918,cs),
(-11,918,o),
(-31,874,o),
(-31,816,c),
(6,816,l),
(3,847,o),
(11,888,o),
(49,888,cs),
(94,888,o),
(116,812,o),
(179,812,cs)
);
},
{
closed = 1;
nodes = (
(135,0,l),
(135,707,l),
(93,707,l),
(93,0,l)
);
}
);
};
layerId = "C40D20BD-ED25-41E0-AB09-CBCE7F0BE71F";
shapes = (
{
ref = I;
},
{
pos = (113,180);
ref = tildecomb;
}
);
width = 228;
},
{
background = {
shapes = (
{
closed = 1;
nodes = (
(248,0,l),
(248,708,l),
(67,708,l),
(67,0,l)
);
},
{
closed = 1;
nodes = (
(353,758,o),
(379,835,o),
(379,911,cs),
(379,926,o),
(378,934,o),
(377,943,c),
(263,943,l),
(266,923,o),
(265,888,o),
(238,888,cs),
(201,888,o),
(171,950,o),
(100,950,cs),
(1,950,o),
(-36,876,o),
(-36,794,cs),
(-36,780,o),
(-35,772,o),
(-34,763,c),
(81,763,l),
(75,783,o),
(80,826,o),
(107,826,cs),
(142,826,o),
(182,758,o),
(265,758,cs)
);
}
);
};
layerId = "23E38C8A-2B24-4DB5-9E17-0B4F7F415987";
shapes = (
{
ref = I;
},
{
pos = (157,181);
ref = tildecomb;
}
);
width = 315;
},
{
background = {
shapes = (
{
closed = 1;
nodes = (
(174,0,l),
(174,707,l),
(87,707,l),
(87,0,l)
);
},
{
closed = 1;
nodes = (
(276,795,o),
(294,861,o),
(297,925,c),
(227,925,l),
(227,903,o),
(229,857,o),
(196,857,cs),
(163,857,o),
(130,930,o),
(64,930,cs),
(-16,930,o),
(-36,865,o),
(-36,800,c),
(33,800,l),
(33,821,o),
(32,867,o),
(63,867,cs),
(96,867,o),
(129,795,o),
(195,795,cs)
);
}
);
};
layerId = "4D7D8508-C814-4895-A1FC-EEB9C269F35C";
shapes = (
{
ref = I;
},
{
pos = (130,180);
ref = tildecomb;
}
);
width = 261;
}
);
unicode = 296;
},
{
glyphname = J;
lastChange = "2023-07-19 12:49:11 +0000";
layers = (
{
anchors = (
{
name = bottom;
pos = (274,0);
},
{
name = top;
pos = (438,707);
}
);
background = {
shapes = (
{
closed = 1;
nodes = (
(428,-8,o),
(460,115,o),
(460,235,cs),
(460,707,l),
(417,707,l),
(417,243,ls),
(417,128,o),
(391,28,o),
(257,28,cs),
(164,28,o),
(110,69,o),
(95,161,c),
(48,161,l),
(65,41,o),
(139,-8,o),
(254,-8,cs)
);
}
);
};
layerId = "C40D20BD-ED25-41E0-AB09-CBCE7F0BE71F";
shapes = (
{
closed = 1;
nodes = (
(428,-8,o),
(460,115,o),
(460,235,cs),
(460,707,l),
(417,707,l),
(417,243,ls),
(417,128,o),
(391,28,o),
(257,28,cs),
(164,28,o),
(110,69,o),
(95,161,c),
(48,161,l),
(65,41,o),
(139,-8,o),
(254,-8,cs)
);
}
);
width = 548;
},
{
anchors = (
{
name = bottom;
pos = (301,0);
},
{
name = top;
pos = (449,708);
}
);
background = {
shapes = (
{
closed = 1;
nodes = (
(455,-8,o),
(540,80,o),
(539,255,c),
(539,708,l),
(358,708,l),
(358,242,ls),
(358,202,o),
(347,161,o),
(285,161,cs),
(206,161,o),
(202,225,o),
(202,269,c),
(22,269,l),
(22,243,ls),
(22,85,o),
(122,-8,o),
(291,-8,cs)
);
}
);
};
layerId = "23E38C8A-2B24-4DB5-9E17-0B4F7F415987";
shapes = (
{
closed = 1;
nodes = (
(455,-8,o),
(539,80,o),
(539,255,cs),
(539,708,l),
(358,708,l),
(358,242,ls),
(358,202,o),
(347,161,o),
(285,161,cs),
(206,161,o),
(202,225,o),
(202,269,c),
(22,269,l),
(22,53,o),
(145,-8,o),
(291,-8,cs)
);
}
);
width = 602;
},
{
anchors = (
{
name = bottom;
pos = (279,0);
},
{
name = top;
pos = (433,707);
}
);
background = {
shapes = (
{
closed = 1;
nodes = (
(421,-8,o),
(476,96,o),
(476,244,cs),
(476,707,l),
(389,707,l),
(389,226,ls),
(389,135,o),
(359,71,o),
(266,71,c),
(178,72,o),
(138,119,o),
(130,195,c),
(42,195,l),
(50,55,o),
(127,-8,o),
(266,-8,cs)
);
}
);
};
layerId = "4D7D8508-C814-4895-A1FC-EEB9C269F35C";
shapes = (
{
closed = 1;
nodes = (
(421,-8,o),
(476,96,o),
(476,244,cs),
(476,707,l),
(389,707,l),
(389,226,ls),
(389,135,o),
(359,71,o),
(266,71,cs),
(178,71,o),
(138,119,o),
(130,195,c),
(42,195,l),
(50,55,o),
(127,-8,o),
(266,-8,cs)
);
}
);
width = 558;
}
);
unicode = 74;
},
{
glyphname = Jcircumflex;
kernRight = _kern2;
lastChange = "2023-07-19 12:49:11 +0000";
layers = (
{
background = {
shapes = (
{
closed = 1;
nodes = (
(428,-8,o),
(460,115,o),
(460,235,cs),
(460,707,l),
(417,707,l),
(417,243,ls),
(417,128,o),
(391,28,o),
(257,28,cs),
(164,28,o),
(110,69,o),
(95,161,c),
(48,161,l),
(65,41,o),
(139,-8,o),
(254,-8,cs)
);
},
{
closed = 1;
nodes = (
(351,796,l),
(433,894,l),
(518,796,l),
(561,796,l),
(450,923,l),
(418,923,l),
(307,796,l)
);
}
);
};
layerId = "C40D20BD-ED25-41E0-AB09-CBCE7F0BE71F";
shapes = (
{
ref = J;
},
{
pos = (438,180);
ref = circumflexcomb;
}
);
width = 548;
},
{
background = {
shapes = (
{
closed = 1;
nodes = (
(455,-8,o),
(540,80,o),
(539,255,c),
(539,708,l),
(358,708,l),
(358,242,ls),
(358,202,o),
(347,161,o),
(285,161,cs),
(206,161,o),
(202,225,o),
(202,269,c),
(22,269,l),
(22,243,ls),
(22,85,o),
(122,-8,o),
(291,-8,cs)
);
},
{
closed = 1;
nodes = (
(371,758,l),
(429,842,l),
(490,758,l),
(656,758,l),
(487,950,l),
(371,950,l),
(205,758,l)
);
}
);
};
layerId = "23E38C8A-2B24-4DB5-9E17-0B4F7F415987";
shapes = (
{
ref = J;
},
{
pos = (448,181);
ref = circumflexcomb;
}
);
width = 602;
},
{
background = {
shapes = (
{
closed = 1;
nodes = (
(421,-8,o),
(476,96,o),
(476,244,cs),
(476,707,l),
(389,707,l),
(389,226,ls),
(389,135,o),
(359,70,o),
(266,71,cs),
(178,71,o),
(138,119,o),
(130,195,c),
(42,195,l),
(50,55,o),
(127,-8,o),
(266,-8,cs)
);
},
{
closed = 1;
nodes = (
(348,786,l),
(426,882,l),
(504,786,l),
(590,786,l),
(456,949,l),
(396,949,l),
(263,786,l)
);
}
);
};
layerId = "4D7D8508-C814-4895-A1FC-EEB9C269F35C";
shapes = (
{
ref = J;
},
{
pos = (432,180);
ref = circumflexcomb;
}
);
width = 558;
}
);
unicode = 308;
},
{
glyphname = K;
kernLeft = _kern1;
kernRight = _kern16;
lastChange = "2023-07-18 14:39:23 +0000";
layers = (
{
anchors = (
{
name = bottom;
pos = (300,0);
},
{
name = top;
pos = (300,707);
}
);
background = {
shapes = (
{
closed = 1;
nodes = (
(135,0,l),
(135,323,l),
(293,323,l),
(528,0,l),
(579,0,l),
(324,355,l),
(576,707,l),
(528,707,l),
(280,360,l),
(135,360,l),
(135,707,l),
(93,707,l),
(93,0,l)
);
}
);
};
layerId = "C40D20BD-ED25-41E0-AB09-CBCE7F0BE71F";
shapes = (
{
closed = 1;
nodes = (
(135,0,l),
(135,323,l),
(293,323,l),
(528,0,l),
(579,0,l),
(324,355,l),
(576,707,l),
(528,707,l),
(280,360,l),
(135,360,l),
(135,707,l),
(93,707,l),
(93,0,l)
);
}
);
width = 599;
},
{
anchors = (
{
name = bottom;
pos = (352,0);
},
{
name = top;
pos = (352,708);
}
);
background = {
shapes = (
{
closed = 1;
nodes = (
(248,0,l),
(248,269,l),
(349,269,l),
(492,0,l),
(702,0,l),
(494,369,l),
(704,708,l),
(498,708,l),
(345,436,l),
(248,436,l),
(248,708,l),
(67,708,l),
(67,0,l)
);
}
);
};
layerId = "23E38C8A-2B24-4DB5-9E17-0B4F7F415987";
shapes = (
{
closed = 1;
nodes = (
(248,0,l),
(248,269,l),
(349,269,l),
(492,0,l),
(702,0,l),
(494,369,l),
(704,708,l),
(498,708,l),
(345,436,l),
(248,436,l),
(248,708,l),
(67,708,l),
(67,0,l)
);
}
);
width = 704;
},
{
anchors = (
{
name = bottom;
pos = (313,0);
},
{
name = top;
pos = (313,707);
}
);
background = {
shapes = (
{
closed = 1;
nodes = (
(174,0,l),
(174,302,l),
(286,302,l),
(508,0,l),
(611,0,l),
(355,356,l),
(609,707,l),
(509,707,l),
(278,381,l),
(174,381,l),
(174,707,l),
(87,707,l),
(87,0,l)
);
}
);
};
layerId = "4D7D8508-C814-4895-A1FC-EEB9C269F35C";
shapes = (
{
closed = 1;
nodes = (
(174,0,l),
(174,302,l),
(286,302,l),
(508,0,l),
(611,0,l),
(355,356,l),
(609,707,l),
(509,707,l),
(278,381,l),
(174,381,l),
(174,707,l),
(87,707,l),
(87,0,l)
);
}
);
width = 625;
}
);
unicode = 75;
},
{
glyphname = Kcommaaccent;
kernRight = _kern16;
lastChange = "2023-07-19 12:54:42 +0000";
layers = (
{
background = {
shapes = (
{
closed = 1;
nodes = (
(135,0,l),
(135,323,l),
(293,323,l),
(528,0,l),
(579,0,l),
(324,355,l),
(576,707,l),
(528,707,l),
(280,360,l),
(135,360,l),
(135,707,l),
(93,707,l),
(93,0,l)
);
},
{
closed = 1;
nodes = (
(339,-275,o),
(369,-229,o),
(369,-172,cs),
(369,-144,o),
(353,-119,o),
(324,-119,cs),
(300,-119,o),
(283,-136,o),
(283,-159,cs),
(283,-195,o),
(317,-204,o),
(334,-198,c),
(329,-238,o),
(302,-267,o),
(279,-280,c),
(294,-300,l)
);
}
);
};
layerId = "C40D20BD-ED25-41E0-AB09-CBCE7F0BE71F";
shapes = (
{
ref = K;
},
{
pos = (300,0);
ref = commaaccentcomb;
}
);
width = 599;
},
{
background = {
shapes = (
{
closed = 1;
nodes = (
(248,0,l),
(248,269,l),
(349,269,l),
(492,0,l),
(702,0,l),
(494,369,l),
(704,708,l),
(498,708,l),
(345,436,l),
(248,436,l),
(248,708,l),
(67,708,l),
(67,0,l)
);
},
{
closed = 1;
nodes = (
(387,-272,o),
(456,-216,o),
(456,-134,cs),
(456,-75,o),
(426,-33,o),
(370,-32,cs),
(326,-32,o),
(288,-58,o),
(289,-106,cs),
(289,-150,o),
(323,-174,o),
(358,-175,c),
(350,-196,o),
(301,-231,o),
(277,-240,c),
(316,-297,l)
);
}
);
};
layerId = "23E38C8A-2B24-4DB5-9E17-0B4F7F415987";
shapes = (
{
ref = K;
},
{
pos = (351,0);
ref = commaaccentcomb;
}
);
width = 704;
},
{
background = {
shapes = (
{
closed = 1;
nodes = (
(174,0,l),
(174,302,l),
(286,302,l),
(508,0,l),
(611,0,l),
(355,356,l),
(609,707,l),
(509,707,l),
(278,381,l),
(174,381,l),
(174,707,l),
(87,707,l),
(87,0,l)
);
},
{
closed = 1;
nodes = (
(343,-285,o),
(389,-216,o),
(391,-149,cs),
(392,-108,o),
(373,-70,o),
(325,-70,cs),
(294,-70,o),
(268,-91,o),
(268,-128,cs),
(268,-161,o),
(291,-182,o),
(326,-185,c),
(318,-217,o),
(292,-252,o),
(265,-271,c),
(289,-304,l)
);
}
);
};
layerId = "4D7D8508-C814-4895-A1FC-EEB9C269F35C";
shapes = (
{
ref = K;
},
{
pos = (313,0);
ref = commaaccentcomb;
}
);
width = 625;
}
);
unicode = 310;
},
{
glyphname = L;
lastChange = "2023-07-20 10:00:58 +0000";
layers = (
{
anchors = (
{
name = bottom;
pos = (319,0);
},
{
name = center;
pos = (284,354);
},
{
name = top;
pos = (117,707);
},
{
name = topright;
pos = (312,711);
}
);
background = {
shapes = (
{
closed = 1;
nodes = (
(549,0,l),
(549,38,l),
(135,38,l),
(135,707,l),
(93,707,l),
(93,0,l)
);
}
);
};
layerId = "C40D20BD-ED25-41E0-AB09-CBCE7F0BE71F";
shapes = (
{
closed = 1;
nodes = (
(549,0,l),
(549,38,l),
(135,38,l),
(135,707,l),
(93,707,l),
(93,0,l)
);
}
);
width = 568;
},
{
anchors = (
{
name = bottom;
pos = (339,0);
},
{
name = center;
pos = (304,354);
},
{
name = top;
pos = (183,708);
},
{
name = topright;
pos = (446,719);
}
);
background = {
shapes = (
{
closed = 1;
nodes = (
(587,0,l),
(587,167,l),
(248,167,l),
(248,708,l),
(67,708,l),
(67,0,l)
);
}
);
};
layerId = "23E38C8A-2B24-4DB5-9E17-0B4F7F415987";
shapes = (
{
closed = 1;
nodes = (
(587,0,l),
(587,167,l),
(248,167,l),
(248,708,l),
(67,708,l),
(67,0,l)
);
}
);
width = 607;
},
{
anchors = (
{
name = bottom;
pos = (326,0);
},
{
name = center;
pos = (287,354);
},
{
name = top;
pos = (133,707);
},
{
name = topright;
pos = (372,714);
}
);
background = {
shapes = (
{
closed = 1;
nodes = (
(562,0,l),
(562,79,l),
(174,79,l),
(174,707,l),
(87,707,l),
(87,0,l)
);
}
);
};
layerId = "4D7D8508-C814-4895-A1FC-EEB9C269F35C";
shapes = (
{
closed = 1;
nodes = (
(562,0,l),
(562,79,l),
(174,79,l),
(174,707,l),
(87,707,l),
(87,0,l)
);
}
);
width = 574;
}
);
unicode = 76;
},
{
glyphname = Lacute;
kernLeft = _kern1;
lastChange = "2023-07-20 10:00:58 +0000";
layers = (
{
background = {
shapes = (
{
closed = 1;
nodes = (
(549,0,l),
(549,38,l),
(135,38,l),
(135,707,l),
(93,707,l),
(93,0,l)
);
},
{
closed = 1;
nodes = (
(137,796,l),
(225,923,l),
(175,923,l),
(99,796,l)
);
}
);
};
layerId = "C40D20BD-ED25-41E0-AB09-CBCE7F0BE71F";
shapes = (
{
ref = L;
},
{
pos = (117,180);
ref = acutecomb;
}
);
width = 568;
},
{
background = {
shapes = (
{
closed = 1;
nodes = (
(587,0,l),
(587,167,l),
(248,167,l),
(248,708,l),
(67,708,l),
(67,0,l)
);
},
{
closed = 1;
nodes = (
(232,758,l),
(403,950,l),
(216,950,l),
(84,758,l)
);
}
);
};
layerId = "23E38C8A-2B24-4DB5-9E17-0B4F7F415987";
shapes = (
{
ref = L;
},
{
pos = (183,181);
ref = acutecomb;
}
);
width = 607;
},
{
background = {
shapes = (
{
closed = 1;
nodes = (
(562,0,l),
(562,79,l),
(174,79,l),
(174,707,l),
(87,707,l),
(87,0,l)
);
},
{
closed = 1;
nodes = (
(207,786,l),
(307,927,l),
(215,927,l),
(130,786,l)
);
}
);
};
layerId = "4D7D8508-C814-4895-A1FC-EEB9C269F35C";
shapes = (
{
ref = L;
},
{
pos = (133,174);
ref = acutecomb;
}
);
width = 574;
}
);
unicode = 313;
},
{
glyphname = Lcaron;
kernLeft = _kern1;
lastChange = "2023-07-19 12:52:17 +0000";
layers = (
{
background = {
shapes = (
{
closed = 1;
nodes = (
(549,0,l),
(549,38,l),
(135,38,l),
(135,707,l),
(93,707,l),
(93,0,l)
);
},
{
closed = 1;
nodes = (
(325,555,o),
(355,601,o),
(355,656,cs),
(355,691,o),
(338,711,o),
(311,711,cs),
(286,711,o),
(269,694,o),
(269,671,cs),
(269,635,o),
(303,626,o),
(320,632,c),
(315,592,o),
(288,563,o),
(265,550,c),
(280,530,l)
);
}
);
};
layerId = "C40D20BD-ED25-41E0-AB09-CBCE7F0BE71F";
shapes = (
{
ref = L;
},
{
pos = (161,0);
ref = caroncomb.alt;
}
);
width = 568;
},
{
background = {
shapes = (
{
closed = 1;
nodes = (
(587,0,l),
(587,167,l),
(248,167,l),
(248,708,l),
(67,708,l),
(67,0,l)
);
},
{
closed = 1;
nodes = (
(464,419,o),
(548,498,o),
(548,601,cs),
(548,666,o),
(513,719,o),
(446,719,cs),
(395,719,o),
(349,689,o),
(349,630,cs),
(349,576,o),
(388,547,o),
(429,543,c),
(419,520,o),
(361,477,o),
(332,466,c),
(380,395,l)
);
}
);
};
layerId = "23E38C8A-2B24-4DB5-9E17-0B4F7F415987";
shapes = (
{
ref = L;
},
{
pos = (300,0);
ref = caroncomb.alt;
}
);
width = 607;
},
{
background = {
shapes = (
{
closed = 1;
nodes = (
(562,0,l),
(562,79,l),
(174,79,l),
(174,707,l),
(87,707,l),
(87,0,l)
);
},
{
closed = 1;
nodes = (
(387,499,o),
(435,568,o),
(435,635,cs),
(435,674,o),
(417,714,o),
(372,714,cs),
(336,714,o),
(312,693,o),
(312,656,cs),
(312,623,o),
(335,602,o),
(370,599,c),
(362,567,o),
(336,532,o),
(309,513,c),
(333,480,l)
);
}
);
};
layerId = "4D7D8508-C814-4895-A1FC-EEB9C269F35C";
shapes = (
{
ref = L;
},
{
pos = (200,0);
ref = caroncomb.alt;
}
);
width = 574;
}
);
unicode = 317;
},
{
glyphname = Lcommaaccent;
kernLeft = _kern1;
lastChange = "2023-07-19 12:55:00 +0000";
layers = (
{
background = {
shapes = (
{
closed = 1;
nodes = (
(549,0,l),
(549,38,l),
(135,38,l),
(135,707,l),
(93,707,l),
(93,0,l)
);
},
{
closed = 1;
nodes = (
(335,-275,o),
(365,-229,o),
(365,-172,cs),
(365,-144,o),
(349,-119,o),
(320,-119,cs),
(296,-119,o),
(279,-136,o),
(279,-159,cs),
(279,-195,o),
(313,-204,o),
(330,-198,c),
(325,-238,o),
(298,-267,o),
(275,-280,c),
(290,-300,l)
);
}
);
};
layerId = "C40D20BD-ED25-41E0-AB09-CBCE7F0BE71F";
shapes = (
{
ref = L;
},
{
pos = (319,0);
ref = commaaccentcomb;
}
);
width = 568;
},
{
background = {
shapes = (
{
closed = 1;
nodes = (
(587,0,l),
(587,167,l),
(248,167,l),
(248,708,l),
(67,708,l),
(67,0,l)
);
},
{
closed = 1;
nodes = (
(360,-272,o),
(429,-216,o),
(429,-134,cs),
(429,-75,o),
(399,-33,o),
(343,-32,cs),
(299,-32,o),
(261,-58,o),
(262,-106,cs),
(262,-150,o),
(296,-174,o),
(331,-175,c),
(323,-196,o),
(274,-231,o),
(250,-240,c),
(289,-297,l)
);
}
);
};
layerId = "23E38C8A-2B24-4DB5-9E17-0B4F7F415987";
shapes = (
{
ref = L;
},
{
pos = (338,0);
ref = commaaccentcomb;
}
);
width = 607;
},
{
background = {
shapes = (
{
closed = 1;
nodes = (
(562,0,l),
(562,79,l),
(174,79,l),
(174,707,l),
(87,707,l),
(87,0,l)
);
},
{
closed = 1;
nodes = (
(340,-285,o),
(386,-216,o),
(388,-149,cs),
(389,-108,o),
(370,-70,o),
(322,-70,cs),
(291,-70,o),
(265,-91,o),
(265,-128,cs),
(265,-161,o),
(288,-182,o),
(323,-185,c),
(315,-217,o),
(289,-252,o),
(262,-271,c),
(286,-304,l)
);
}
);
};
layerId = "4D7D8508-C814-4895-A1FC-EEB9C269F35C";
shapes = (
{
ref = L;
},
{
pos = (326,0);
ref = commaaccentcomb;
}
);
width = 574;
}
);
unicode = 315;
},
{
glyphname = Ldot;
kernLeft = _kern1;
lastChange = "2023-07-18 12:21:52 +0000";
layers = (
{
background = {
shapes = (
{
closed = 1;
nodes = (
(549,0,l),
(549,38,l),
(135,38,l),
(135,707,l),
(93,707,l),
(93,0,l)
);
},
{
closed = 1;
nodes = (
(375,323,o),
(389,338,o),
(389,362,cs),
(389,385,o),
(375,400,o),
(350,400,cs),
(325,400,o),
(310,385,o),
(310,362,cs),
(310,337,o),
(326,323,o),
(350,323,cs)
);
}
);
};
layerId = "C40D20BD-ED25-41E0-AB09-CBCE7F0BE71F";
shapes = (
{
closed = 1;
nodes = (
(549,0,l),
(549,38,l),
(135,38,l),
(135,707,l),
(93,707,l),
(93,0,l)
);
},
{
closed = 1;
nodes = (
(375,323,o),
(389,338,o),
(389,362,cs),
(389,385,o),
(375,400,o),
(350,400,cs),
(325,400,o),
(310,385,o),
(310,362,cs),
(310,337,o),
(326,323,o),
(350,323,cs)
);
}
);
width = 568;
},
{
background = {
shapes = (
{
closed = 1;
nodes = (
(587,0,l),
(587,167,l),
(248,167,l),
(248,708,l),
(67,708,l),
(67,0,l)
);
},
{
closed = 1;
nodes = (
(497,319,o),
(540,360,o),
(540,423,cs),
(540,488,o),
(493,529,o),
(434,529,cs),
(373,529,o),
(326,485,o),
(326,422,cs),
(326,361,o),
(369,319,o),
(433,319,cs)
);
}
);
};
layerId = "23E38C8A-2B24-4DB5-9E17-0B4F7F415987";
shapes = (
{
closed = 1;
nodes = (
(587,0,l),
(587,167,l),
(248,167,l),
(248,708,l),
(67,708,l),
(67,0,l)
);
},
{
closed = 1;
nodes = (
(497,319,o),
(540,360,o),
(540,423,cs),
(540,488,o),
(493,529,o),
(434,529,cs),
(373,529,o),
(326,485,o),
(326,422,cs),
(326,361,o),
(369,319,o),
(433,319,cs)
);
}
);
width = 607;
},
{
background = {
shapes = (
{
closed = 1;
nodes = (
(562,0,l),
(562,79,l),
(174,79,l),
(174,707,l),
(87,707,l),
(87,0,l)
);
},
{
closed = 1;
nodes = (
(400,345,o),
(425,369,o),
(425,402,cs),
(425,435,o),
(399,458,o),
(367,458,cs),
(334,458,o),
(310,435,o),
(310,402,cs),
(310,368,o),
(333,345,o),
(367,345,cs)
);
}
);
};
layerId = "4D7D8508-C814-4895-A1FC-EEB9C269F35C";
shapes = (
{
closed = 1;
nodes = (
(562,0,l),
(562,79,l),
(174,79,l),
(174,707,l),
(87,707,l),
(87,0,l)
);
},
{
closed = 1;
nodes = (
(400,345,o),
(425,369,o),
(425,402,cs),
(425,435,o),
(399,458,o),
(367,458,cs),
(334,458,o),
(310,435,o),
(310,402,cs),
(310,368,o),
(333,345,o),
(367,345,cs)
);
}
);
width = 574;
}
);
unicode = 319;
},
{
glyphname = Lslash;
kernLeft = _kern1;
lastChange = "2023-07-18 14:39:23 +0000";
layers = (
{
background = {
shapes = (
{
closed = 1;
nodes = (
(549,0,l),
(549,38,l),
(135,38,l),
(135,309,l),
(315,429,l),
(294,461,l),
(135,355,l),
(135,707,l),
(93,707,l),
(93,327,l),
(0,265,l),
(21,234,l),
(93,281,l),
(93,0,l)
);
}
);
};
layerId = "C40D20BD-ED25-41E0-AB09-CBCE7F0BE71F";
shapes = (
{
closed = 1;
nodes = (
(549,0,l),
(549,38,l),
(135,38,l),
(135,309,l),
(315,429,l),
(294,461,l),
(135,355,l),
(135,707,l),
(93,707,l),
(93,327,l),
(0,265,l),
(21,234,l),
(93,281,l),
(93,0,l)
);
}
);
width = 568;
},
{
background = {
shapes = (
{
closed = 1;
nodes = (
(587,0,l),
(587,167,l),
(248,167,l),
(248,317,l),
(392,400,l),
(316,532,l),
(248,493,l),
(248,708,l),
(67,708,l),
(67,389,l),
(-50,321,l),
(26,189,l),
(67,212,l),
(67,0,l)
);
}
);
};
layerId = "23E38C8A-2B24-4DB5-9E17-0B4F7F415987";
shapes = (
{
closed = 1;
nodes = (
(587,0,l),
(587,167,l),
(248,167,l),
(248,317,l),
(392,400,l),
(316,532,l),
(248,493,l),
(248,708,l),
(67,708,l),
(67,389,l),
(-50,321,l),
(26,189,l),
(67,212,l),
(67,0,l)
);
}
);
width = 607;
},
{
background = {
shapes = (
{
closed = 1;
nodes = (
(576,0,l),
(576,79,l),
(188,79,l),
(188,349,l),
(320,435,l),
(278,497,l),
(188,438,l),
(188,707,l),
(101,707,l),
(101,382,l),
(-5,313,l),
(37,250,l),
(101,292,l),
(101,0,l)
);
}
);
};
layerId = "4D7D8508-C814-4895-A1FC-EEB9C269F35C";
shapes = (
{
closed = 1;
nodes = (
(576,0,l),
(576,79,l),
(188,79,l),
(188,349,l),
(320,435,l),
(278,497,l),
(188,438,l),
(188,707,l),
(101,707,l),
(101,382,l),
(-5,313,l),
(37,250,l),
(101,292,l),
(101,0,l)
);
}
);
width = 588;
}
);
unicode = 321;
},
{
glyphname = M;
kernLeft = _kern1;
kernRight = _kern2;
lastChange = "2023-07-18 14:39:23 +0000";
layers = (
{
anchors = (
{
name = bottom;
pos = (418,0);
},
{
name = top;
pos = (418,707);
}
);
background = {
shapes = (
{
closed = 1;
nodes = (
(135,0,l),
(135,657,l),
(409,195,l),
(431,195,l),
(700,657,l),
(700,0,l),
(742,0,l),
(742,707,l),
(683,707,l),
(421,255,l),
(153,707,l),
(93,707,l),
(93,0,l)
);
}
);
};
layerId = "C40D20BD-ED25-41E0-AB09-CBCE7F0BE71F";
shapes = (
{
closed = 1;
nodes = (
(135,0,l),
(135,657,l),
(409,195,l),
(431,195,l),
(700,657,l),
(700,0,l),
(742,0,l),
(742,707,l),
(683,707,l),
(421,255,l),
(153,707,l),
(93,707,l),
(93,0,l)
);
}
);
width = 835;
},
{
anchors = (
{
name = bottom;
pos = (464,0);
},
{
name = top;
pos = (464,708);
}
);
background = {
shapes = (
{
closed = 1;
nodes = (
(248,0,l),
(248,451,l),
(430,140,l),
(501,140,l),
(680,451,l),
(680,0,l),
(861,0,l),
(861,708,l),
(641,708,l),
(469,398,l),
(296,708,l),
(67,708,l),
(67,0,l)
);
}
);
};
layerId = "23E38C8A-2B24-4DB5-9E17-0B4F7F415987";
shapes = (
{
closed = 1;
nodes = (
(248,0,l),
(248,451,l),
(430,140,l),
(501,140,l),
(680,451,l),
(680,0,l),
(861,0,l),
(861,708,l),
(641,708,l),
(469,398,l),
(296,708,l),
(67,708,l),
(67,0,l)
);
}
);
width = 928;
},
{
anchors = (
{
name = bottom;
pos = (428,0);
},
{
name = top;
pos = (428,707);
}
);
background = {
shapes = (
{
closed = 1;
nodes = (
(174,0,l),
(174,615,l),
(409,185,l),
(449,185,l),
(682,615,l),
(682,0,l),
(769,0,l),
(769,707,l),
(640,707,l),
(431,318,l),
(219,707,l),
(87,707,l),
(87,0,l)
);
}
);
};
layerId = "4D7D8508-C814-4895-A1FC-EEB9C269F35C";
shapes = (
{
closed = 1;
nodes = (
(174,0,l),
(174,615,l),
(409,185,l),
(449,185,l),
(682,615,l),
(682,0,l),
(769,0,l),
(769,707,l),
(640,707,l),
(431,318,l),
(219,707,l),
(87,707,l),
(87,0,l)
);
}
);
width = 856;
}
);
unicode = 77;
},
{
glyphname = N;
kernLeft = _kern1;
kernRight = _kern2;
lastChange = "2023-07-19 12:56:06 +0000";
layers = (
{
anchors = (
{
name = bottom;
pos = (377,0);
},
{
name = top;
pos = (372,707);
}
);
background = {
shapes = (
{
closed = 1;
nodes = (
(135,0,l),
(135,659,l),
(593,0,l),
(651,0,l),
(651,707,l),
(609,707,l),
(609,49,l),
(154,707,l),
(93,707,l),
(93,0,l)
);
}
);
};
layerId = "C40D20BD-ED25-41E0-AB09-CBCE7F0BE71F";
shapes = (
{
closed = 1;
nodes = (
(135,0,l),
(135,659,l),
(593,0,l),
(651,0,l),
(651,707,l),
(609,707,l),
(609,49,l),
(154,707,l),
(93,707,l),
(93,0,l)
);
}
);
width = 744;
},
{
anchors = (
{
name = bottom;
pos = (399,0);
},
{
name = top;
pos = (392,708);
}
);
background = {
shapes = (
{
closed = 1;
nodes = (
(248,0,l),
(248,399,l),
(552,0,l),
(716,0,l),
(716,708,l),
(535,708,l),
(535,303,l),
(236,708,l),
(67,708,l),
(67,0,l)
);
}
);
};
layerId = "23E38C8A-2B24-4DB5-9E17-0B4F7F415987";
shapes = (
{
closed = 1;
nodes = (
(248,0,l),
(248,399,l),
(552,0,l),
(716,0,l),
(716,708,l),
(535,708,l),
(535,303,l),
(236,708,l),
(67,708,l),
(67,0,l)
);
}
);
width = 783;
},
{
anchors = (
{
name = bottom;
pos = (367,0);
},
{
name = top;
pos = (371,707);
}
);
background = {
shapes = (
{
closed = 1;
nodes = (
(174,0,l),
(174,587,l),
(545,0,l),
(654,0,l),
(654,707,l),
(567,707,l),
(567,118,l),
(198,707,l),
(87,707,l),
(87,0,l)
);
}
);
};
layerId = "4D7D8508-C814-4895-A1FC-EEB9C269F35C";
shapes = (
{
closed = 1;
nodes = (
(174,0,l),
(174,587,l),
(545,0,l),
(654,0,l),
(654,707,l),
(567,707,l),
(567,118,l),
(198,707,l),
(87,707,l),
(87,0,l)
);
}
);
width = 741;
}
);
unicode = 78;
},
{
glyphname = Nacute;
kernLeft = _kern1;
kernRight = _kern2;
lastChange = "2023-07-19 12:42:54 +0000";
layers = (
{
background = {
shapes = (
{
closed = 1;
nodes = (
(135,0,l),
(135,659,l),
(593,0,l),
(651,0,l),
(651,707,l),
(609,707,l),
(609,49,l),
(154,707,l),
(93,707,l),
(93,0,l)
);
},
{
closed = 1;
nodes = (
(381,796,l),
(469,923,l),
(419,923,l),
(343,796,l)
);
}
);
};
layerId = "C40D20BD-ED25-41E0-AB09-CBCE7F0BE71F";
shapes = (
{
ref = N;
},
{
pos = (372,180);
ref = acutecomb;
}
);
width = 744;
},
{
background = {
shapes = (
{
closed = 1;
nodes = (
(248,0,l),
(248,399,l),
(552,0,l),
(716,0,l),
(716,708,l),
(535,708,l),
(535,303,l),
(236,708,l),
(67,708,l),
(67,0,l)
);
},
{
closed = 1;
nodes = (
(440,758,l),
(611,950,l),
(424,950,l),
(292,758,l)
);
}
);
};
layerId = "23E38C8A-2B24-4DB5-9E17-0B4F7F415987";
shapes = (
{
ref = N;
},
{
pos = (392,181);
ref = acutecomb;
}
);
width = 783;
},
{
background = {
shapes = (
{
closed = 1;
nodes = (
(174,0,l),
(174,587,l),
(545,0,l),
(654,0,l),
(654,707,l),
(567,707,l),
(567,118,l),
(198,707,l),
(87,707,l),
(87,0,l)
);
},
{
closed = 1;
nodes = (
(380,786,l),
(480,927,l),
(388,927,l),
(303,786,l)
);
}
);
};
layerId = "4D7D8508-C814-4895-A1FC-EEB9C269F35C";
shapes = (
{
ref = N;
},
{
pos = (371,174);
ref = acutecomb;
}
);
width = 741;
}
);
unicode = 323;
},
{
glyphname = Ncaron;
kernLeft = _kern1;
kernRight = _kern2;
lastChange = "2023-07-19 12:46:55 +0000";
layers = (
{
background = {
shapes = (
{
closed = 1;
nodes = (
(135,0,l),
(135,659,l),
(593,0,l),
(651,0,l),
(651,707,l),
(609,707,l),
(609,49,l),
(154,707,l),
(93,707,l),
(93,0,l)
);
},
{
closed = 1;
nodes = (
(400,796,l),
(511,923,l),
(467,923,l),
(385,826,l),
(300,923,l),
(257,923,l),
(368,796,l)
);
}
);
};
layerId = "C40D20BD-ED25-41E0-AB09-CBCE7F0BE71F";
shapes = (
{
ref = N;
},
{
pos = (372,180);
ref = caroncomb;
}
);
width = 744;
},
{
background = {
shapes = (
{
closed = 1;
nodes = (
(248,0,l),
(248,399,l),
(552,0,l),
(716,0,l),
(716,708,l),
(535,708,l),
(535,303,l),
(236,708,l),
(67,708,l),
(67,0,l)
);
},
{
closed = 1;
nodes = (
(460,758,l),
(626,950,l),
(460,950,l),
(402,866,l),
(341,950,l),
(175,950,l),
(343,758,l)
);
}
);
};
layerId = "23E38C8A-2B24-4DB5-9E17-0B4F7F415987";
shapes = (
{
ref = N;
},
{
pos = (391,181);
ref = caroncomb;
}
);
width = 783;
},
{
background = {
shapes = (
{
closed = 1;
nodes = (
(174,0,l),
(174,587,l),
(545,0,l),
(654,0,l),
(654,707,l),
(567,707,l),
(567,118,l),
(198,707,l),
(87,707,l),
(87,0,l)
);
},
{
closed = 1;
nodes = (
(416,786,l),
(550,949,l),
(465,949,l),
(387,853,l),
(309,949,l),
(222,949,l),
(357,786,l)
);
}
);
};
layerId = "4D7D8508-C814-4895-A1FC-EEB9C269F35C";
shapes = (
{
ref = N;
},
{
pos = (371,180);
ref = caroncomb;
}
);
width = 741;
}
);
unicode = 327;
},
{
glyphname = Ncommaaccent;
kernLeft = _kern1;
kernRight = _kern2;
lastChange = "2023-07-19 12:56:06 +0000";
layers = (
{
background = {
shapes = (
{
closed = 1;
nodes = (
(135,0,l),
(135,659,l),
(593,0,l),
(651,0,l),
(651,707,l),
(609,707,l),
(609,49,l),
(154,707,l),
(93,707,l),
(93,0,l)
);
},
{
closed = 1;
nodes = (
(391,-275,o),
(421,-229,o),
(421,-172,cs),
(421,-144,o),
(405,-119,o),
(376,-119,cs),
(352,-119,o),
(335,-136,o),
(335,-159,cs),
(335,-195,o),
(369,-204,o),
(386,-198,c),
(381,-238,o),
(354,-267,o),
(331,-280,c),
(346,-300,l)
);
}
);
};
layerId = "C40D20BD-ED25-41E0-AB09-CBCE7F0BE71F";
shapes = (
{
ref = N;
},
{
pos = (377,0);
ref = commaaccentcomb;
}
);
width = 744;
},
{
background = {
shapes = (
{
closed = 1;
nodes = (
(248,0,l),
(248,399,l),
(552,0,l),
(716,0,l),
(716,708,l),
(535,708,l),
(535,303,l),
(236,708,l),
(67,708,l),
(67,0,l)
);
},
{
closed = 1;
nodes = (
(419,-272,o),
(488,-216,o),
(488,-134,cs),
(488,-75,o),
(458,-33,o),
(402,-32,cs),
(358,-32,o),
(320,-58,o),
(321,-106,cs),
(321,-150,o),
(355,-174,o),
(390,-175,c),
(382,-196,o),
(333,-231,o),
(309,-240,c),
(348,-297,l)
);
}
);
};
layerId = "23E38C8A-2B24-4DB5-9E17-0B4F7F415987";
shapes = (
{
ref = N;
},
{
pos = (398,0);
ref = commaaccentcomb;
}
);
width = 783;
},
{
background = {
shapes = (
{
closed = 1;
nodes = (
(174,0,l),
(174,587,l),
(545,0,l),
(654,0,l),
(654,707,l),
(567,707,l),
(567,118,l),
(198,707,l),
(87,707,l),
(87,0,l)
);
},
{
closed = 1;
nodes = (
(381,-285,o),
(429,-216,o),
(429,-149,cs),
(429,-108,o),
(411,-70,o),
(363,-70,cs),
(332,-70,o),
(306,-91,o),
(306,-128,cs),
(306,-161,o),
(329,-182,o),
(364,-185,c),
(356,-217,o),
(330,-252,o),
(303,-271,c),
(327,-304,l)
);
}
);
};
layerId = "4D7D8508-C814-4895-A1FC-EEB9C269F35C";
shapes = (
{
ref = N;
},
{
pos = (367,0);
ref = commaaccentcomb;
}
);
width = 741;
}
);
unicode = 325;
},
{
glyphname = Ntilde;
kernLeft = _kern1;
kernRight = _kern2;
lastChange = "2023-07-19 12:57:27 +0000";
layers = (
{
background = {
shapes = (
{
closed = 1;
nodes = (
(135,0,l),
(135,659,l),
(593,0,l),
(651,0,l),
(651,707,l),
(609,707,l),
(609,49,l),
(154,707,l),
(93,707,l),
(93,0,l)
);
},
{
closed = 1;
nodes = (
(507,792,o),
(529,835,o),
(529,894,c),
(492,894,l),
(492,861,o),
(488,822,o),
(448,822,cs),
(403,822,o),
(381,898,o),
(319,898,cs),
(256,898,o),
(236,854,o),
(236,796,c),
(273,796,l),
(270,827,o),
(278,868,o),
(316,868,cs),
(361,868,o),
(383,792,o),
(446,792,cs)
);
}
);
};
layerId = "C40D20BD-ED25-41E0-AB09-CBCE7F0BE71F";
shapes = (
{
ref = N;
},
{
pos = (371,180);
ref = tildecomb;
}
);
width = 744;
},
{
background = {
shapes = (
{
closed = 1;
nodes = (
(248,0,l),
(248,399,l),
(552,0,l),
(716,0,l),
(716,708,l),
(535,708,l),
(535,303,l),
(236,708,l),
(67,708,l),
(67,0,l)
);
},
{
closed = 1;
nodes = (
(580,758,o),
(606,835,o),
(606,911,cs),
(606,926,o),
(605,934,o),
(604,943,c),
(490,943,l),
(493,923,o),
(492,888,o),
(465,888,cs),
(428,888,o),
(398,950,o),
(327,950,cs),
(228,950,o),
(191,876,o),
(191,794,cs),
(191,780,o),
(192,772,o),
(193,763,c),
(308,763,l),
(302,783,o),
(307,826,o),
(334,826,cs),
(369,826,o),
(409,758,o),
(492,758,cs)
);
}
);
};
layerId = "23E38C8A-2B24-4DB5-9E17-0B4F7F415987";
shapes = (
{
ref = N;
},
{
pos = (391,181);
ref = tildecomb;
}
);
width = 783;
},
{
background = {
shapes = (
{
closed = 1;
nodes = (
(174,0,l),
(174,587,l),
(545,0,l),
(654,0,l),
(654,707,l),
(567,707,l),
(567,118,l),
(198,707,l),
(87,707,l),
(87,0,l)
);
},
{
closed = 1;
nodes = (
(516,773,o),
(534,839,o),
(537,903,c),
(467,903,l),
(467,881,o),
(469,835,o),
(436,835,cs),
(403,835,o),
(370,908,o),
(304,908,cs),
(224,908,o),
(204,843,o),
(204,778,c),
(273,778,l),
(273,799,o),
(272,845,o),
(303,845,cs),
(336,845,o),
(369,773,o),
(435,773,cs)
);
}
);
};
layerId = "4D7D8508-C814-4895-A1FC-EEB9C269F35C";
shapes = (
{
ref = N;
},
{
pos = (370,180);
ref = tildecomb;
}
);
width = 741;
}
);
unicode = 209;
},
{
glyphname = Eng;
kernLeft = _kern1;
kernRight = _kern2;
lastChange = "2023-07-18 14:39:23 +0000";
layers = (
{
anchors = (
{
name = bottom;
pos = (372,0);
},
{
name = top;
pos = (372,707);
}
);
background = {
shapes = (
{
closed = 1;
nodes = (
(494,-196,ls),
(625,-196,o),
(651,-130,o),
(651,-12,cs),
(651,707,l),
(609,707,l),
(609,49,l),
(154,707,l),
(93,707,l),
(93,0,l),
(135,0,l),
(135,659,l),
(593,0,l),
(609,0,l),
(609,-91,o),
(605,-161,o),
(494,-161,cs),
(467,-161,l),
(467,-196,l)
);
}
);
};
layerId = "C40D20BD-ED25-41E0-AB09-CBCE7F0BE71F";
shapes = (
{
closed = 1;
nodes = (
(494,-196,ls),
(625,-196,o),
(651,-130,o),
(651,-12,cs),
(651,707,l),
(609,707,l),
(609,49,l),
(154,707,l),
(93,707,l),
(93,0,l),
(135,0,l),
(135,659,l),
(593,0,l),
(609,0,l),
(609,-91,o),
(605,-161,o),
(494,-161,cs),
(467,-161,l),
(467,-196,l)
);
}
);
width = 744;
},
{
anchors = (
{
name = bottom;
pos = (392,0);
},
{
name = top;
pos = (392,708);
}
);
background = {
shapes = (
{
closed = 1;
nodes = (
(538,-220,ls),
(666,-220,o),
(716,-157,o),
(716,-30,cs),
(716,708,l),
(535,708,l),
(535,303,l),
(236,708,l),
(67,708,l),
(67,0,l),
(248,0,l),
(248,399,l),
(539,17,l),
(539,-7,ls),
(539,-43,o),
(527,-61,o),
(487,-61,cs),
(446,-61,l),
(446,-220,l)
);
}
);
};
layerId = "23E38C8A-2B24-4DB5-9E17-0B4F7F415987";
shapes = (
{
closed = 1;
nodes = (
(538,-220,ls),
(666,-220,o),
(716,-157,o),
(716,-30,cs),
(716,708,l),
(535,708,l),
(535,303,l),
(236,708,l),
(67,708,l),
(67,0,l),
(248,0,l),
(248,399,l),
(539,17,l),
(539,-7,ls),
(539,-43,o),
(527,-61,o),
(487,-61,cs),
(446,-61,l),
(446,-220,l)
);
}
);
width = 783;
},
{
anchors = (
{
name = bottom;
pos = (371,0);
},
{
name = top;
pos = (371,707);
}
);
background = {
shapes = (
{
closed = 1;
nodes = (
(489,-180,ls),
(608,-180,o),
(654,-127,o),
(654,-10,cs),
(654,707,l),
(567,707,l),
(567,117,l),
(198,707,l),
(87,707,l),
(87,0,l),
(174,0,l),
(174,587,l),
(546,0,l),
(565,0,l),
(566,-72,o),
(551,-106,o),
(479,-106,cs),
(432,-106,l),
(432,-180,l)
);
}
);
};
layerId = "4D7D8508-C814-4895-A1FC-EEB9C269F35C";
shapes = (
{
closed = 1;
nodes = (
(489,-180,ls),
(608,-180,o),
(654,-127,o),
(654,-10,cs),
(654,707,l),
(567,707,l),
(567,117,l),
(198,707,l),
(87,707,l),
(87,0,l),
(174,0,l),
(174,587,l),
(546,0,l),
(565,0,l),
(566,-72,o),
(551,-106,o),
(479,-106,cs),
(432,-106,l),
(432,-180,l)
);
}
);
width = 741;
}
);
unicode = 330;
},
{
glyphname = O;
kernLeft = _kern3;
kernRight = _kern4;
lastChange = "2023-07-18 14:39:23 +0000";
layers = (
{
anchors = (
{
name = bottom;
pos = (384,0);
},
{
name = center;
pos = (384,354);
},
{
name = ogonek;
pos = (690,10);
},
{
name = top;
pos = (384,707);
},
{
name = topleft;
pos = (20,707);
},
{
name = topright;
pos = (747,707);
}
);
background = {
shapes = (
{
closed = 1;
nodes = (
(601,-8,o),
(713,146,o),
(713,353,cs),
(713,560,o),
(601,715,o),
(384,715,cs),
(166,715,o),
(54,561,o),
(54,353,cs),
(54,145,o),
(166,-8,o),
(384,-8,cs)
);
},
{
closed = 1;
nodes = (
(195,28,o),
(98,174,o),
(98,353,cs),
(98,531,o),
(191,679,o),
(384,679,cs),
(577,679,o),
(668,531,o),
(668,353,cs),
(668,173,o),
(576,28,o),
(384,28,cs)
);
}
);
};
layerId = "C40D20BD-ED25-41E0-AB09-CBCE7F0BE71F";
shapes = (
{
closed = 1;
nodes = (
(601,-8,o),
(713,146,o),
(713,353,cs),
(713,560,o),
(601,715,o),
(384,715,cs),
(166,715,o),
(54,561,o),
(54,353,cs),
(54,145,o),
(166,-8,o),
(384,-8,cs)
);
},
{
closed = 1;
nodes = (
(195,28,o),
(98,174,o),
(98,353,cs),
(98,531,o),
(191,679,o),
(384,679,cs),
(577,679,o),
(668,531,o),
(668,353,cs),
(668,173,o),
(576,28,o),
(384,28,cs)
);
}
);
width = 767;
},
{
anchors = (
{
name = bottom;
pos = (391,0);
},
{
name = center;
pos = (391,354);
},
{
name = ogonek;
pos = (703,10);
},
{
name = top;
pos = (391,708);
},
{
name = topleft;
pos = (20,708);
},
{
name = topright;
pos = (761,708);
}
);
background = {
shapes = (
{
closed = 1;
nodes = (
(607,-8,o),
(753,141,o),
(753,358,cs),
(753,577,o),
(605,717,o),
(392,717,cs),
(176,717,o),
(28,574,o),
(28,353,cs),
(28,136,o),
(170,-8,o),
(387,-8,cs)
);
},
{
closed = 1;
nodes = (
(266,163,o),
(213,260,o),
(213,354,cs),
(213,447,o),
(264,546,o),
(390,546,cs),
(522,546,o),
(568,437,o),
(568,353,cs),
(568,266,o),
(519,163,o),
(391,163,cs)
);
}
);
};
layerId = "23E38C8A-2B24-4DB5-9E17-0B4F7F415987";
shapes = (
{
closed = 1;
nodes = (
(607,-8,o),
(753,141,o),
(753,358,cs),
(753,577,o),
(605,717,o),
(392,717,cs),
(176,717,o),
(28,574,o),
(28,353,cs),
(28,136,o),
(170,-8,o),
(387,-8,cs)
);
},
{
closed = 1;
nodes = (
(266,163,o),
(213,260,o),
(213,354,cs),
(213,447,o),
(264,546,o),
(390,546,cs),
(522,546,o),
(568,437,o),
(568,353,cs),
(568,266,o),
(519,163,o),
(391,163,cs)
);
}
);
width = 781;
},
{
anchors = (
{
name = bottom;
pos = (381,0);
},
{
name = center;
pos = (381,354);
},
{
name = ogonek;
pos = (685,10);
},
{
name = top;
pos = (381,707);
},
{
name = topleft;
pos = (20,707);
},
{
name = topright;
pos = (741,707);
}
);
background = {
shapes = (
{
closed = 1;
nodes = (
(600,-8,o),
(713,146,o),
(713,353,cs),
(713,561,o),
(600,715,o),
(381,715,cs),
(161,715,o),
(48,561,o),
(48,353,cs),
(48,146,o),
(161,-8,o),
(381,-8,cs)
);
},
{
closed = 1;
nodes = (
(212,71,o),
(136,201,o),
(136,353,cs),
(136,506,o),
(214,636,o),
(381,636,cs),
(547,636,o),
(624,508,o),
(624,353,cs),
(624,199,o),
(549,71,o),
(381,71,cs)
);
}
);
};
layerId = "4D7D8508-C814-4895-A1FC-EEB9C269F35C";
shapes = (
{
closed = 1;
nodes = (
(600,-8,o),
(713,146,o),
(713,353,cs),
(713,561,o),
(600,715,o),
(381,715,cs),
(161,715,o),
(48,561,o),
(48,353,cs),
(48,146,o),
(161,-8,o),
(381,-8,cs)
);
},
{
closed = 1;
nodes = (
(212,71,o),
(136,201,o),
(136,353,cs),
(136,506,o),
(214,636,o),
(381,636,cs),
(547,636,o),
(624,508,o),
(624,353,cs),
(624,199,o),
(549,71,o),
(381,71,cs)
);
}
);
width = 761;
}
);
unicode = 79;
},
{
glyphname = Oacute;
kernLeft = _kern3;
kernRight = _kern4;
lastChange = "2023-07-19 12:42:54 +0000";
layers = (
{
background = {
shapes = (
{
closed = 1;
nodes = (
(601,-8,o),
(713,146,o),
(713,353,cs),
(713,560,o),
(601,715,o),
(384,715,cs),
(166,715,o),
(54,561,o),
(54,353,cs),
(54,145,o),
(166,-8,o),
(384,-8,cs)
);
},
{
closed = 1;
nodes = (
(195,28,o),
(98,174,o),
(98,353,cs),
(98,531,o),
(191,679,o),
(384,679,cs),
(577,679,o),
(668,531,o),
(668,353,cs),
(668,173,o),
(576,28,o),
(384,28,cs)
);
},
{
closed = 1;
nodes = (
(388,796,l),
(476,923,l),
(426,923,l),
(350,796,l)
);
}
);
};
layerId = "C40D20BD-ED25-41E0-AB09-CBCE7F0BE71F";
shapes = (
{
ref = O;
},
{
pos = (384,180);
ref = acutecomb;
}
);
width = 767;
},
{
background = {
shapes = (
{
closed = 1;
nodes = (
(607,-8,o),
(753,141,o),
(753,358,cs),
(753,577,o),
(605,717,o),
(392,717,cs),
(176,717,o),
(28,574,o),
(28,353,cs),
(28,136,o),
(170,-8,o),
(387,-8,cs)
);
},
{
closed = 1;
nodes = (
(266,163,o),
(213,260,o),
(213,354,cs),
(213,447,o),
(264,546,o),
(390,546,cs),
(522,546,o),
(568,437,o),
(568,353,cs),
(568,266,o),
(519,163,o),
(391,163,cs)
);
},
{
closed = 1;
nodes = (
(439,758,l),
(610,950,l),
(423,950,l),
(291,758,l)
);
}
);
};
layerId = "23E38C8A-2B24-4DB5-9E17-0B4F7F415987";
shapes = (
{
ref = O;
},
{
pos = (391,181);
ref = acutecomb;
}
);
width = 781;
},
{
background = {
shapes = (
{
closed = 1;
nodes = (
(600,-8,o),
(713,146,o),
(713,353,cs),
(713,561,o),
(600,715,o),
(381,715,cs),
(161,715,o),
(48,561,o),
(48,353,cs),
(48,146,o),
(161,-8,o),
(381,-8,cs)
);
},
{
closed = 1;
nodes = (
(212,71,o),
(136,201,o),
(136,353,cs),
(136,506,o),
(214,636,o),
(381,636,cs),
(547,636,o),
(624,508,o),
(624,353,cs),
(624,199,o),
(549,71,o),
(381,71,cs)
);
},
{
closed = 1;
nodes = (
(396,786,l),
(496,927,l),
(404,927,l),
(319,786,l)
);
}
);
};
layerId = "4D7D8508-C814-4895-A1FC-EEB9C269F35C";
shapes = (
{
ref = O;
},
{
pos = (381,174);
ref = acutecomb;
}
);
width = 761;
}
);
unicode = 211;
},
{
glyphname = Obreve;
kernLeft = _kern3;
kernRight = _kern4;
lastChange = "2023-07-18 14:39:28 +0000";
layers = (
{
background = {
shapes = (
{
closed = 1;
nodes = (
(601,-8,o),
(713,146,o),
(713,353,cs),
(713,560,o),
(601,715,o),
(384,715,cs),
(166,715,o),
(54,561,o),
(54,353,cs),
(54,145,o),
(166,-8,o),
(384,-8,cs)
);
},
{
closed = 1;
nodes = (
(195,28,o),
(98,174,o),
(98,353,cs),
(98,531,o),
(191,679,o),
(384,679,cs),
(577,679,o),
(668,531,o),
(668,353,cs),
(668,173,o),
(576,28,o),
(384,28,cs)
);
},
{
closed = 1;
nodes = (
(454,796,o),
(519,818,o),
(530,895,c),
(491,895,l),
(480,840,o),
(435,829,o),
(383,829,cs),
(330,829,o),
(286,840,o),
(275,895,c),
(236,895,l),
(247,817,o),
(309,796,o),
(382,796,cs)
);
}
);
};
layerId = "C40D20BD-ED25-41E0-AB09-CBCE7F0BE71F";
shapes = (
{
ref = O;
},
{
pos = (384,160);
ref = brevecomb;
}
);
width = 767;
},
{
background = {
shapes = (
{
closed = 1;
nodes = (
(607,-8,o),
(753,141,o),
(753,358,cs),
(753,577,o),
(605,717,o),
(392,717,cs),
(176,717,o),
(28,574,o),
(28,353,cs),
(28,136,o),
(170,-8,o),
(387,-8,cs)
);
},
{
closed = 1;
nodes = (
(266,163,o),
(213,260,o),
(213,354,cs),
(213,447,o),
(264,546,o),
(390,546,cs),
(522,546,o),
(568,437,o),
(568,353,cs),
(568,266,o),
(519,163,o),
(391,163,cs)
);
},
{
closed = 1;
nodes = (
(517,758,o),
(594,821,o),
(594,950,c),
(452,950,l),
(452,938,ls),
(452,901,o),
(428,879,o),
(391,879,cs),
(355,879,o),
(330,902,o),
(330,938,cs),
(330,950,l),
(188,950,l),
(188,819,o),
(265,758,o),
(390,758,cs)
);
}
);
};
layerId = "23E38C8A-2B24-4DB5-9E17-0B4F7F415987";
shapes = (
{
ref = O;
},
{
pos = (391,181);
ref = brevecomb;
}
);
width = 781;
},
{
background = {
shapes = (
{
closed = 1;
nodes = (
(600,-8,o),
(713,146,o),
(713,353,cs),
(713,561,o),
(600,715,o),
(381,715,cs),
(161,715,o),
(48,561,o),
(48,353,cs),
(48,146,o),
(161,-8,o),
(381,-8,cs)
);
},
{
closed = 1;
nodes = (
(212,71,o),
(136,201,o),
(136,353,cs),
(136,506,o),
(214,636,o),
(381,636,cs),
(547,636,o),
(624,508,o),
(624,353,cs),
(624,199,o),
(549,71,o),
(381,71,cs)
);
},
{
closed = 1;
nodes = (
(484,794,o),
(548,840,o),
(551,927,c),
(473,927,l),
(470,880,o),
(436,860,o),
(380,860,cs),
(324,860,o),
(290,880,o),
(287,927,c),
(209,927,l),
(212,840,o),
(274,794,o),
(379,794,cs)
);
}
);
};
layerId = "4D7D8508-C814-4895-A1FC-EEB9C269F35C";
shapes = (
{
ref = O;
},
{
pos = (381,180);
ref = brevecomb;
}
);
width = 761;
}
);
unicode = 334;
},
{
glyphname = Ocircumflex;
kernLeft = _kern3;
kernRight = _kern4;
lastChange = "2023-07-19 12:43:11 +0000";
layers = (
{
background = {
shapes = (
{
closed = 1;
nodes = (
(601,-8,o),
(713,146,o),
(713,353,cs),
(713,560,o),
(601,715,o),
(384,715,cs),
(166,715,o),
(54,561,o),
(54,353,cs),
(54,145,o),
(166,-8,o),
(384,-8,cs)
);
},
{
closed = 1;
nodes = (
(195,28,o),
(98,174,o),
(98,353,cs),
(98,531,o),
(191,679,o),
(384,679,cs),
(577,679,o),
(668,531,o),
(668,353,cs),
(668,173,o),
(576,28,o),
(384,28,cs)
);
},
{
closed = 1;
nodes = (
(300,796,l),
(382,894,l),
(467,796,l),
(510,796,l),
(399,923,l),
(367,923,l),
(256,796,l)
);
}
);
};
layerId = "C40D20BD-ED25-41E0-AB09-CBCE7F0BE71F";
shapes = (
{
ref = O;
},
{
pos = (384,180);
ref = circumflexcomb;
}
);
width = 767;
},
{
background = {
shapes = (
{
closed = 1;
nodes = (
(607,-8,o),
(753,141,o),
(753,358,cs),
(753,577,o),
(605,717,o),
(392,717,cs),
(176,717,o),
(28,574,o),
(28,353,cs),
(28,136,o),
(170,-8,o),
(387,-8,cs)
);
},
{
closed = 1;
nodes = (
(266,163,o),
(213,260,o),
(213,354,cs),
(213,447,o),
(264,546,o),
(390,546,cs),
(522,546,o),
(568,437,o),
(568,353,cs),
(568,266,o),
(519,163,o),
(391,163,cs)
);
},
{
closed = 1;
nodes = (
(334,758,l),
(392,842,l),
(453,758,l),
(619,758,l),
(450,950,l),
(334,950,l),
(168,758,l)
);
}
);
};
layerId = "23E38C8A-2B24-4DB5-9E17-0B4F7F415987";
shapes = (
{
ref = O;
},
{
pos = (390,181);
ref = circumflexcomb;
}
);
width = 781;
},
{
background = {
shapes = (
{
closed = 1;
nodes = (
(600,-8,o),
(713,146,o),
(713,353,cs),
(713,561,o),
(600,715,o),
(381,715,cs),
(161,715,o),
(48,561,o),
(48,353,cs),
(48,146,o),
(161,-8,o),
(381,-8,cs)
);
},
{
closed = 1;
nodes = (
(212,71,o),
(136,201,o),
(136,353,cs),
(136,506,o),
(214,636,o),
(381,636,cs),
(547,636,o),
(624,508,o),
(624,353,cs),
(624,199,o),
(549,71,o),
(381,71,cs)
);
},
{
closed = 1;
nodes = (
(302,786,l),
(380,882,l),
(458,786,l),
(544,786,l),
(410,949,l),
(350,949,l),
(217,786,l)
);
}
);
};
layerId = "4D7D8508-C814-4895-A1FC-EEB9C269F35C";
shapes = (
{
ref = O;
},
{
pos = (380,180);
ref = circumflexcomb;
}
);
width = 761;
}
);
unicode = 212;
},
{
glyphname = Odieresis;
kernLeft = _kern3;
kernRight = _kern4;
lastChange = "2023-07-19 12:43:47 +0000";
layers = (
{
background = {
shapes = (
{
closed = 1;
nodes = (
(601,-8,o),
(713,146,o),
(713,353,cs),
(713,560,o),
(601,715,o),
(384,715,cs),
(166,715,o),
(54,561,o),
(54,353,cs),
(54,145,o),
(166,-8,o),
(384,-8,cs)
);
},
{
closed = 1;
nodes = (
(195,28,o),
(98,174,o),
(98,353,cs),
(98,531,o),
(191,679,o),
(384,679,cs),
(577,679,o),
(668,531,o),
(668,353,cs),
(668,173,o),
(576,28,o),
(384,28,cs)
);
},
{
closed = 1;
nodes = (
(302,796,o),
(318,812,o),
(318,835,cs),
(318,858,o),
(302,874,o),
(277,874,cs),
(253,874,o),
(238,856,o),
(238,835,cs),
(238,814,o),
(253,796,o),
(277,796,cs)
);
},
{
closed = 1;
nodes = (
(513,796,o),
(529,812,o),
(529,835,cs),
(529,858,o),
(513,874,o),
(488,874,cs),
(464,874,o),
(449,856,o),
(449,835,cs),
(449,814,o),
(464,796,o),
(488,796,cs)
);
}
);
};
layerId = "C40D20BD-ED25-41E0-AB09-CBCE7F0BE71F";
shapes = (
{
ref = O;
},
{
pos = (383,180);
ref = dieresiscomb;
}
);
width = 767;
},
{
background = {
shapes = (
{
closed = 1;
nodes = (
(607,-8,o),
(753,141,o),
(753,358,cs),
(753,577,o),
(605,717,o),
(392,717,cs),
(176,717,o),
(28,574,o),
(28,353,cs),
(28,136,o),
(170,-8,o),
(387,-8,cs)
);
},
{
closed = 1;
nodes = (
(266,163,o),
(213,260,o),
(213,354,cs),
(213,447,o),
(264,546,o),
(390,546,cs),
(522,546,o),
(568,437,o),
(568,353,cs),
(568,266,o),
(519,163,o),
(391,163,cs)
);
},
{
closed = 1;
nodes = (
(316,757,o),
(360,788,o),
(360,848,cs),
(360,910,o),
(314,944,o),
(265,944,cs),
(215,944,o),
(170,909,o),
(170,848,cs),
(170,788,o),
(214,757,o),
(265,757,cs)
);
},
{
closed = 1;
nodes = (
(575,757,o),
(617,788,o),
(617,849,cs),
(617,910,o),
(573,944,o),
(524,944,cs),
(474,944,o),
(427,909,o),
(427,848,cs),
(427,788,o),
(474,757,o),
(524,757,cs)
);
}
);
};
layerId = "23E38C8A-2B24-4DB5-9E17-0B4F7F415987";
shapes = (
{
ref = O;
},
{
pos = (390,181);
ref = dieresiscomb;
}
);
width = 781;
},
{
background = {
shapes = (
{
closed = 1;
nodes = (
(600,-8,o),
(713,146,o),
(713,353,cs),
(713,561,o),
(600,715,o),
(381,715,cs),
(161,715,o),
(48,561,o),
(48,353,cs),
(48,146,o),
(161,-8,o),
(381,-8,cs)
);
},
{
closed = 1;
nodes = (
(212,71,o),
(136,201,o),
(136,353,cs),
(136,506,o),
(214,636,o),
(381,636,cs),
(547,636,o),
(624,508,o),
(624,353,cs),
(624,199,o),
(549,71,o),
(381,71,cs)
);
},
{
closed = 1;
nodes = (
(304,788,o),
(329,811,o),
(329,844,cs),
(329,877,o),
(304,900,o),
(271,900,cs),
(239,900,o),
(214,877,o),
(214,844,cs),
(214,811,o),
(239,788,o),
(271,788,cs)
);
},
{
closed = 1;
nodes = (
(529,788,o),
(554,811,o),
(554,844,cs),
(554,877,o),
(529,900,o),
(496,900,cs),
(464,900,o),
(440,877,o),
(440,844,cs),
(440,811,o),
(464,788,o),
(496,788,cs)
);
}
);
};
layerId = "4D7D8508-C814-4895-A1FC-EEB9C269F35C";
shapes = (
{
ref = O;
},
{
pos = (381,180);
ref = dieresiscomb;
}
);
width = 761;
}
);
unicode = 214;
},
{
glyphname = Ograve;
kernLeft = _kern3;
kernRight = _kern4;
lastChange = "2023-07-20 10:00:36 +0000";
layers = (
{
background = {
shapes = (
{
closed = 1;
nodes = (
(601,-8,o),
(713,146,o),
(713,353,cs),
(713,560,o),
(601,715,o),
(384,715,cs),
(166,715,o),
(54,561,o),
(54,353,cs),
(54,145,o),
(166,-8,o),
(384,-8,cs)
);
},
{
closed = 1;
nodes = (
(195,28,o),
(98,174,o),
(98,353,cs),
(98,531,o),
(191,679,o),
(384,679,cs),
(577,679,o),
(668,531,o),
(668,353,cs),
(668,173,o),
(576,28,o),
(384,28,cs)
);
},
{
closed = 1;
nodes = (
(426,796,l),
(350,923,l),
(300,923,l),
(388,796,l)
);
}
);
};
layerId = "C40D20BD-ED25-41E0-AB09-CBCE7F0BE71F";
shapes = (
{
ref = O;
},
{
pos = (384,180);
ref = gravecomb;
}
);
width = 767;
},
{
background = {
shapes = (
{
closed = 1;
nodes = (
(607,-8,o),
(753,141,o),
(753,358,cs),
(753,577,o),
(605,717,o),
(392,717,cs),
(176,717,o),
(28,574,o),
(28,353,cs),
(28,136,o),
(170,-8,o),
(387,-8,cs)
);
},
{
closed = 1;
nodes = (
(266,163,o),
(213,260,o),
(213,354,cs),
(213,447,o),
(264,546,o),
(390,546,cs),
(522,546,o),
(568,437,o),
(568,353,cs),
(568,266,o),
(519,163,o),
(391,163,cs)
);
},
{
closed = 1;
nodes = (
(520,758,l),
(388,950,l),
(201,950,l),
(372,758,l)
);
}
);
};
layerId = "23E38C8A-2B24-4DB5-9E17-0B4F7F415987";
shapes = (
{
ref = O;
},
{
pos = (365,181);
ref = gravecomb;
}
);
width = 781;
},
{
background = {
shapes = (
{
closed = 1;
nodes = (
(600,-8,o),
(713,146,o),
(713,353,cs),
(713,561,o),
(600,715,o),
(381,715,cs),
(161,715,o),
(48,561,o),
(48,353,cs),
(48,146,o),
(161,-8,o),
(381,-8,cs)
);
},
{
closed = 1;
nodes = (
(212,71,o),
(136,201,o),
(136,353,cs),
(136,506,o),
(214,636,o),
(381,636,cs),
(547,636,o),
(624,508,o),
(624,353,cs),
(624,199,o),
(549,71,o),
(381,71,cs)
);
},
{
closed = 1;
nodes = (
(439,786,l),
(354,927,l),
(262,927,l),
(362,786,l)
);
}
);
};
layerId = "4D7D8508-C814-4895-A1FC-EEB9C269F35C";
shapes = (
{
ref = O;
},
{
pos = (374,180);
ref = gravecomb;
}
);
width = 761;
}
);
unicode = 210;
},
{
glyphname = Ohungarumlaut;
kernLeft = _kern3;
kernRight = _kern4;
lastChange = "2023-07-20 10:01:16 +0000";
layers = (
{
background = {
shapes = (
{
closed = 1;
nodes = (
(601,-8,o),
(713,146,o),
(713,353,cs),
(713,560,o),
(601,715,o),
(384,715,cs),
(166,715,o),
(54,561,o),
(54,353,cs),
(54,145,o),
(166,-8,o),
(384,-8,cs)
);
},
{
closed = 1;
nodes = (
(195,28,o),
(98,174,o),
(98,353,cs),
(98,531,o),
(191,679,o),
(384,679,cs),
(577,679,o),
(668,531,o),
(668,353,cs),
(668,173,o),
(576,28,o),
(384,28,cs)
);
},
{
closed = 1;
nodes = (
(330,796,l),
(418,923,l),
(368,923,l),
(292,796,l)
);
},
{
closed = 1;
nodes = (
(450,796,l),
(538,923,l),
(488,923,l),
(412,796,l)
);
}
);
};
layerId = "C40D20BD-ED25-41E0-AB09-CBCE7F0BE71F";
shapes = (
{
ref = O;
},
{
pos = (385,180);
ref = hungarumlautcomb;
}
);
width = 767;
},
{
background = {
shapes = (
{
closed = 1;
nodes = (
(607,-8,o),
(753,141,o),
(753,358,cs),
(753,577,o),
(605,717,o),
(392,717,cs),
(176,717,o),
(28,574,o),
(28,353,cs),
(28,136,o),
(170,-8,o),
(387,-8,cs)
);
},
{
closed = 1;
nodes = (
(266,163,o),
(213,260,o),
(213,354,cs),
(213,447,o),
(264,546,o),
(390,546,cs),
(522,546,o),
(568,437,o),
(568,353,cs),
(568,266,o),
(519,163,o),
(391,163,cs)
);
},
{
closed = 1;
nodes = (
(349,758,l),
(466,950,l),
(293,950,l),
(220,758,l)
);
},
{
closed = 1;
nodes = (
(551,758,l),
(707,950,l),
(535,950,l),
(415,758,l)
);
}
);
};
layerId = "23E38C8A-2B24-4DB5-9E17-0B4F7F415987";
shapes = (
{
ref = O;
},
{
pos = (390,181);
ref = hungarumlautcomb;
}
);
width = 781;
},
{
background = {
shapes = (
{
closed = 1;
nodes = (
(600,-8,o),
(713,146,o),
(713,353,cs),
(713,561,o),
(600,715,o),
(381,715,cs),
(161,715,o),
(48,561,o),
(48,353,cs),
(48,146,o),
(161,-8,o),
(381,-8,cs)
);
},
{
closed = 1;
nodes = (
(212,71,o),
(136,201,o),
(136,353,cs),
(136,506,o),
(214,636,o),
(381,636,cs),
(547,636,o),
(624,508,o),
(624,353,cs),
(624,199,o),
(549,71,o),
(381,71,cs)
);
},
{
closed = 1;
nodes = (
(303,786,l),
(403,927,l),
(311,927,l),
(226,786,l)
);
},
{
closed = 1;
nodes = (
(462,786,l),
(562,927,l),
(470,927,l),
(385,786,l)
);
}
);
};
layerId = "4D7D8508-C814-4895-A1FC-EEB9C269F35C";
shapes = (
{
ref = O;
},
{
pos = (397,180);
ref = hungarumlautcomb;
}
);
width = 761;
}
);
unicode = 336;
},
{
glyphname = Omacron;
kernLeft = _kern3;
kernRight = _kern4;
lastChange = "2023-07-19 12:58:09 +0000";
layers = (
{
background = {
shapes = (
{
closed = 1;
nodes = (
(601,-8,o),
(713,146,o),
(713,353,cs),
(713,560,o),
(601,715,o),
(384,715,cs),
(166,715,o),
(54,561,o),
(54,353,cs),
(54,145,o),
(166,-8,o),
(384,-8,cs)
);
},
{
closed = 1;
nodes = (
(195,28,o),
(98,174,o),
(98,353,cs),
(98,531,o),
(191,679,o),
(384,679,cs),
(577,679,o),
(668,531,o),
(668,353,cs),
(668,173,o),
(576,28,o),
(384,28,cs)
);
},
{
closed = 1;
nodes = (
(533,822,l),
(533,857,l),
(234,857,l),
(234,822,l)
);
}
);
};
layerId = "C40D20BD-ED25-41E0-AB09-CBCE7F0BE71F";
shapes = (
{
ref = O;
},
{
pos = (383,180);
ref = macroncomb;
}
);
width = 767;
},
{
background = {
shapes = (
{
closed = 1;
nodes = (
(607,-8,o),
(753,141,o),
(753,358,cs),
(753,577,o),
(605,717,o),
(392,717,cs),
(176,717,o),
(28,574,o),
(28,353,cs),
(28,136,o),
(170,-8,o),
(387,-8,cs)
);
},
{
closed = 1;
nodes = (
(266,163,o),
(213,260,o),
(213,354,cs),
(213,447,o),
(264,546,o),
(390,546,cs),
(522,546,o),
(568,437,o),
(568,353,cs),
(568,266,o),
(519,163,o),
(391,163,cs)
);
},
{
closed = 1;
nodes = (
(587,797,l),
(587,950,l),
(191,950,l),
(191,797,l)
);
}
);
};
layerId = "23E38C8A-2B24-4DB5-9E17-0B4F7F415987";
shapes = (
{
ref = O;
},
{
pos = (391,181);
ref = macroncomb;
}
);
width = 781;
},
{
background = {
shapes = (
{
closed = 1;
nodes = (
(600,-8,o),
(713,146,o),
(713,353,cs),
(713,561,o),
(600,715,o),
(381,715,cs),
(161,715,o),
(48,561,o),
(48,353,cs),
(48,146,o),
(161,-8,o),
(381,-8,cs)
);
},
{
closed = 1;
nodes = (
(212,71,o),
(136,201,o),
(136,353,cs),
(136,506,o),
(214,636,o),
(381,636,cs),
(547,636,o),
(624,508,o),
(624,353,cs),
(624,199,o),
(549,71,o),
(381,71,cs)
);
},
{
closed = 1;
nodes = (
(540,813,l),
(540,887,l),
(221,887,l),
(221,813,l)
);
}
);
};
layerId = "4D7D8508-C814-4895-A1FC-EEB9C269F35C";
shapes = (
{
ref = O;
},
{
pos = (380,180);
ref = macroncomb;
}
);
width = 761;
}
);
unicode = 332;
},
{
glyphname = Oslash;
kernLeft = _kern3;
kernRight = _kern4;
lastChange = "2023-07-18 14:39:23 +0000";
layers = (
{
anchors = (
{
name = bottom;
pos = (384,0);
},
{
name = top;
pos = (384,707);
}
);
background = {
shapes = (
{
closed = 1;
nodes = (
(214,-110,l),
(264,10,l),
(299,-2,o),
(339,-8,o),
(384,-8,cs),
(601,-8,o),
(713,148,o),
(713,353,cs),
(713,485,o),
(667,615,o),
(544,679,c),
(602,816,l),
(553,816,l),
(503,697,l),
(467,709,o),
(427,715,o),
(384,715,cs),
(166,715,o),
(54,560,o),
(54,353,cs),
(54,222,o),
(99,91,o),
(222,27,c),
(165,-110,l)
);
},
{
closed = 1;
nodes = (
(137,124,o),
(98,241,o),
(98,353,cs),
(98,531,o),
(192,679,o),
(384,679,cs),
(421,679,o),
(456,673,o),
(488,662,c),
(238,65,l)
);
},
{
closed = 1;
nodes = (
(346,28,o),
(311,34,o),
(279,45,c),
(529,642,l),
(633,581,o),
(668,468,o),
(668,353,cs),
(668,174,o),
(577,28,o),
(384,28,cs)
);
}
);
};
layerId = "C40D20BD-ED25-41E0-AB09-CBCE7F0BE71F";
shapes = (
{
closed = 1;
nodes = (
(214,-110,l),
(264,10,l),
(299,-2,o),
(339,-8,o),
(384,-8,cs),
(601,-8,o),
(713,148,o),
(713,353,cs),
(713,485,o),
(667,615,o),
(544,679,c),
(602,816,l),
(553,816,l),
(503,697,l),
(467,709,o),
(427,715,o),
(384,715,cs),
(166,715,o),
(54,560,o),
(54,353,cs),
(54,222,o),
(99,91,o),
(222,27,c),
(165,-110,l)
);
},
{
closed = 1;
nodes = (
(137,124,o),
(98,241,o),
(98,353,cs),
(98,531,o),
(192,679,o),
(384,679,cs),
(421,679,o),
(456,673,o),
(488,662,c),
(238,65,l)
);
},
{
closed = 1;
nodes = (
(346,28,o),
(311,34,o),
(279,45,c),
(529,642,l),
(633,581,o),
(668,468,o),
(668,353,cs),
(668,174,o),
(577,28,o),
(384,28,cs)
);
}
);
width = 767;
},
{
anchors = (
{
name = bottom;
pos = (391,0);
},
{
name = top;
pos = (391,708);
}
);
background = {
shapes = (
{
closed = 1;
nodes = (
(315,-112,l),
(352,-7,l),
(364,-8,o),
(376,-8,o),
(391,-8,cs),
(608,-8,o),
(753,142,o),
(753,358,cs),
(753,501,o),
(690,609,o),
(586,669,c),
(638,821,l),
(464,821,l),
(428,715,l),
(416,716,o),
(404,717,o),
(387,717,cs),
(176,717,o),
(28,572,o),
(28,352,cs),
(28,210,o),
(90,100,o),
(195,40,c),
(142,-112,l)
);
},
{
closed = 1;
nodes = (
(230,249,o),
(213,297,o),
(213,354,cs),
(213,461,o),
(274,540,o),
(379,545,c),
(265,213,l)
);
},
{
closed = 1;
nodes = (
(516,496,l),
(551,461,o),
(568,409,o),
(568,354,cs),
(568,251,o),
(508,166,o),
(400,163,c)
);
}
);
};
layerId = "23E38C8A-2B24-4DB5-9E17-0B4F7F415987";
shapes = (
{
closed = 1;
nodes = (
(315,-112,l),
(352,-7,l),
(364,-8,o),
(376,-8,o),
(391,-8,cs),
(608,-8,o),
(753,142,o),
(753,358,cs),
(753,501,o),
(690,609,o),
(586,669,c),
(638,821,l),
(464,821,l),
(428,715,l),
(416,716,o),
(404,717,o),
(387,717,cs),
(176,717,o),
(28,572,o),
(28,352,cs),
(28,210,o),
(90,100,o),
(195,40,c),
(142,-112,l)
);
},
{
closed = 1;
nodes = (
(230,249,o),
(213,297,o),
(213,354,cs),
(213,451,o),
(263,525,o),
(351,542,cs),
(360,543,o),
(369,545,o),
(379,545,c),
(265,213,l)
);
},
{
closed = 1;
nodes = (
(421,164,o),
(411,163,o),
(400,163,c),
(516,496,l),
(551,461,o),
(568,409,o),
(568,354,cs),
(568,261,o),
(519,183,o),
(431,166,cs)
);
}
);
width = 781;
},
{
anchors = (
{
name = bottom;
pos = (381,0);
},
{
name = top;
pos = (381,707);
}
);
background = {
shapes = (
{
closed = 1;
nodes = (
(232,-110,l),
(279,4,l),
(310,-4,o),
(344,-8,o),
(381,-8,cs),
(600,-8,o),
(713,146,o),
(713,353,cs),
(713,457,o),
(685,548,o),
(629,612,cs),
(608,636,o),
(583,656,o),
(554,673,c),
(613,816,l),
(528,816,l),
(481,703,l),
(450,711,o),
(417,715,o),
(381,715,cs),
(161,715,o),
(48,561,o),
(48,353,cs),
(48,249,o),
(76,159,o),
(132,95,cs),
(153,71,o),
(177,51,o),
(206,34,c),
(147,-110,l)
);
},
{
closed = 1;
nodes = (
(221,125,o),
(207,139,o),
(195,155,cs),
(155,207,o),
(136,277,o),
(136,353,cs),
(136,506,o),
(214,636,o),
(381,636,cs),
(406,636,o),
(429,633,o),
(450,627,c),
(238,112,l)
);
},
{
closed = 1;
nodes = (
(355,71,o),
(331,74,o),
(310,79,c),
(521,594,l),
(538,582,o),
(552,568,o),
(565,552,cs),
(605,501,o),
(624,430,o),
(624,353,cs),
(624,199,o),
(549,71,o),
(381,71,cs)
);
}
);
};
layerId = "4D7D8508-C814-4895-A1FC-EEB9C269F35C";
shapes = (
{
closed = 1;
nodes = (
(232,-110,l),
(279,4,l),
(310,-4,o),
(344,-8,o),
(381,-8,cs),
(600,-8,o),
(713,146,o),
(713,353,cs),
(713,496,o),
(663,609,o),
(554,673,c),
(613,816,l),
(528,816,l),
(481,703,l),
(450,711,o),
(417,715,o),
(381,715,cs),
(161,715,o),
(48,561,o),
(48,353,cs),
(48,211,o),
(99,97,o),
(206,34,c),
(147,-110,l)
);
},
{
closed = 1;
nodes = (
(173,162,o),
(136,247,o),
(136,353,cs),
(136,506,o),
(214,636,o),
(381,636,cs),
(406,636,o),
(429,633,o),
(450,627,c),
(238,112,l)
);
},
{
closed = 1;
nodes = (
(355,71,o),
(331,74,o),
(310,79,c),
(521,594,l),
(588,547,o),
(624,459,o),
(624,353,cs),
(624,199,o),
(549,71,o),
(381,71,cs)
);
}
);
width = 761;
}
);
unicode = 216;
},
{
glyphname = Otilde;
kernLeft = _kern3;
kernRight = _kern4;
lastChange = "2023-07-19 12:57:27 +0000";
layers = (
{
background = {
shapes = (
{
closed = 1;
nodes = (
(601,-8,o),
(713,146,o),
(713,353,cs),
(713,560,o),
(601,715,o),
(384,715,cs),
(166,715,o),
(54,561,o),
(54,353,cs),
(54,145,o),
(166,-8,o),
(384,-8,cs)
);
},
{
closed = 1;
nodes = (
(195,28,o),
(98,174,o),
(98,353,cs),
(98,531,o),
(191,679,o),
(384,679,cs),
(577,679,o),
(668,531,o),
(668,353,cs),
(668,173,o),
(576,28,o),
(384,28,cs)
);
},
{
closed = 1;
nodes = (
(512,792,o),
(534,835,o),
(534,894,c),
(497,894,l),
(497,861,o),
(493,822,o),
(453,822,cs),
(408,822,o),
(386,898,o),
(324,898,cs),
(261,898,o),
(241,854,o),
(241,796,c),
(278,796,l),
(275,827,o),
(283,868,o),
(321,868,cs),
(366,868,o),
(388,792,o),
(451,792,cs)
);
}
);
};
layerId = "C40D20BD-ED25-41E0-AB09-CBCE7F0BE71F";
shapes = (
{
ref = O;
},
{
pos = (383,180);
ref = tildecomb;
}
);
width = 767;
},
{
background = {
shapes = (
{
closed = 1;
nodes = (
(607,-8,o),
(753,141,o),
(753,358,cs),
(753,577,o),
(605,717,o),
(392,717,cs),
(176,717,o),
(28,574,o),
(28,353,cs),
(28,136,o),
(170,-8,o),
(387,-8,cs)
);
},
{
closed = 1;
nodes = (
(266,163,o),
(213,260,o),
(213,354,cs),
(213,447,o),
(264,546,o),
(390,546,cs),
(522,546,o),
(568,437,o),
(568,353,cs),
(568,266,o),
(519,163,o),
(391,163,cs)
);
},
{
closed = 1;
nodes = (
(577,758,o),
(603,835,o),
(603,911,cs),
(603,926,o),
(602,934,o),
(601,943,c),
(487,943,l),
(490,923,o),
(489,888,o),
(462,888,cs),
(425,888,o),
(395,950,o),
(324,950,cs),
(225,950,o),
(188,876,o),
(188,794,cs),
(188,780,o),
(189,772,o),
(190,763,c),
(305,763,l),
(299,783,o),
(304,826,o),
(331,826,cs),
(366,826,o),
(406,758,o),
(489,758,cs)
);
}
);
};
layerId = "23E38C8A-2B24-4DB5-9E17-0B4F7F415987";
shapes = (
{
ref = O;
},
{
pos = (390,181);
ref = tildecomb;
}
);
width = 781;
},
{
background = {
shapes = (
{
closed = 1;
nodes = (
(600,-8,o),
(713,146,o),
(713,353,cs),
(713,561,o),
(600,715,o),
(381,715,cs),
(161,715,o),
(48,561,o),
(48,353,cs),
(48,146,o),
(161,-8,o),
(381,-8,cs)
);
},
{
closed = 1;
nodes = (
(212,71,o),
(136,201,o),
(136,353,cs),
(136,506,o),
(214,636,o),
(381,636,cs),
(547,636,o),
(624,508,o),
(624,353,cs),
(624,199,o),
(549,71,o),
(381,71,cs)
);
},
{
closed = 1;
nodes = (
(532,773,o),
(550,839,o),
(553,903,c),
(483,903,l),
(483,881,o),
(485,835,o),
(452,835,cs),
(419,835,o),
(386,908,o),
(320,908,cs),
(240,908,o),
(220,843,o),
(220,778,c),
(289,778,l),
(289,799,o),
(288,845,o),
(319,845,cs),
(352,845,o),
(385,773,o),
(451,773,cs)
);
}
);
};
layerId = "4D7D8508-C814-4895-A1FC-EEB9C269F35C";
shapes = (
{
ref = O;
},
{
pos = (380,180);
ref = tildecomb;
}
);
width = 761;
}
);
unicode = 213;
},
{
glyphname = OE;
kernLeft = _kern3;
lastChange = "2023-07-18 14:39:23 +0000";
layers = (
{
anchors = (
{
name = bottom;
pos = (581,0);
},
{
name = top;
pos = (581,707);
}
);
background = {
shapes = (
{
closed = 1;
nodes = (
(504,-8,o),
(610,43,o),
(666,152,c),
(666,0,l),
(1108,0,l),
(1108,38,l),
(708,38,l),
(708,332,l),
(1066,332,l),
(1066,370,l),
(708,370,l),
(708,669,l),
(1108,669,l),
(1108,707,l),
(666,707,l),
(666,554,l),
(610,665,o),
(505,715,o),
(384,715,cs),
(166,715,o),
(54,560,o),
(54,353,cs),
(54,146,o),
(166,-8,o),
(384,-8,cs)
);
},
{
closed = 1;
nodes = (
(193,28,o),
(98,176,o),
(98,353,cs),
(98,531,o),
(192,679,o),
(384,679,cs),
(576,679,o),
(668,531,o),
(668,353,cs),
(668,173,o),
(577,28,o),
(384,28,cs)
);
}
);
};
layerId = "C40D20BD-ED25-41E0-AB09-CBCE7F0BE71F";
shapes = (
{
closed = 1;
nodes = (
(504,-8,o),
(610,43,o),
(666,152,c),
(666,0,l),
(1108,0,l),
(1108,38,l),
(708,38,l),
(708,332,l),
(1066,332,l),
(1066,370,l),
(708,370,l),
(708,669,l),
(1108,669,l),
(1108,707,l),
(666,707,l),
(666,554,l),
(610,665,o),
(505,715,o),
(384,715,cs),
(166,715,o),
(54,560,o),
(54,353,cs),
(54,146,o),
(166,-8,o),
(384,-8,cs)
);
},
{
closed = 1;
nodes = (
(193,28,o),
(98,176,o),
(98,353,cs),
(98,531,o),
(192,679,o),
(384,679,cs),
(574,679,o),
(668,534,o),
(668,368,c),
(668,343,l),
(668,173,o),
(577,28,o),
(384,28,cs)
);
}
);
width = 1162;
},
{
anchors = (
{
name = bottom;
pos = (563,0);
},
{
name = top;
pos = (563,708);
}
);
background = {
shapes = (
{
closed = 1;
nodes = (
(464,-8,o),
(520,8,o),
(563,39,c),
(563,0,l),
(1097,0,l),
(1097,167,l),
(744,167,l),
(744,272,l),
(1035,272,l),
(1035,432,l),
(744,432,l),
(744,540,l),
(1097,540,l),
(1097,708,l),
(563,708,l),
(563,671,l),
(520,702,o),
(464,717,o),
(394,717,cs),
(176,717,o),
(28,572,o),
(28,352,cs),
(28,135,o),
(171,-8,o),
(391,-8,cs)
);
},
{
closed = 1;
nodes = (
(280,163,o),
(213,244,o),
(213,354,cs),
(213,464,o),
(280,546,o),
(391,546,cs),
(505,546,o),
(565,458,o),
(565,353,cs),
(565,249,o),
(505,163,o),
(391,163,cs)
);
}
);
};
layerId = "23E38C8A-2B24-4DB5-9E17-0B4F7F415987";
shapes = (
{
closed = 1;
nodes = (
(464,-8,o),
(520,8,o),
(563,39,c),
(563,0,l),
(1097,0,l),
(1097,167,l),
(744,167,l),
(744,272,l),
(1035,272,l),
(1035,432,l),
(744,432,l),
(744,540,l),
(1097,540,l),
(1097,708,l),
(563,708,l),
(563,671,l),
(520,702,o),
(464,717,o),
(394,717,cs),
(176,717,o),
(28,572,o),
(28,352,cs),
(28,135,o),
(171,-8,o),
(391,-8,cs)
);
},
{
closed = 1;
nodes = (
(280,163,o),
(213,244,o),
(213,354,cs),
(213,464,o),
(280,546,o),
(391,546,cs),
(505,546,o),
(565,459,o),
(565,354,c),
(565,353,l),
(565,249,o),
(505,163,o),
(391,163,cs)
);
}
);
width = 1125;
},
{
anchors = (
{
name = bottom;
pos = (560,0);
},
{
name = top;
pos = (560,707);
}
);
background = {
shapes = (
{
closed = 1;
nodes = (
(436,-8,o),
(484,1,o),
(525,19,c),
(552,32,o),
(576,49,o),
(597,69,c),
(597,0,l),
(1072,0,l),
(1072,79,l),
(684,79,l),
(684,310,l),
(1033,310,l),
(1033,390,l),
(684,390,l),
(684,628,l),
(1072,628,l),
(1072,707,l),
(597,707,l),
(597,638,l),
(576,657,o),
(552,674,o),
(525,687,cs),
(484,706,o),
(436,715,o),
(381,715,cs),
(161,715,o),
(48,561,o),
(48,353,cs),
(48,146,o),
(161,-8,o),
(381,-8,cs)
);
},
{
closed = 1;
nodes = (
(212,71,o),
(136,201,o),
(136,353,cs),
(136,506,o),
(214,636,o),
(381,636,cs),
(464,636,o),
(524,605,o),
(569,556,c),
(580,545,o),
(589,532,o),
(597,518,c),
(597,188,l),
(589,175,o),
(580,162,o),
(570,151,cs),
(525,102,o),
(465,71,o),
(381,71,cs)
);
}
);
};
layerId = "4D7D8508-C814-4895-A1FC-EEB9C269F35C";
shapes = (
{
closed = 1;
nodes = (
(466,-8,o),
(536,11,o),
(597,69,c),
(597,0,l),
(1072,0,l),
(1072,79,l),
(684,79,l),
(684,310,l),
(1033,310,l),
(1033,390,l),
(684,390,l),
(684,628,l),
(1072,628,l),
(1072,707,l),
(597,707,l),
(597,638,l),
(534,695,o),
(467,715,o),
(381,715,cs),
(161,715,o),
(48,561,o),
(48,353,cs),
(48,146,o),
(161,-8,o),
(381,-8,cs)
);
},
{
closed = 1;
nodes = (
(212,71,o),
(136,201,o),
(136,353,cs),
(136,506,o),
(214,636,o),
(381,636,cs),
(498,636,o),
(567,570,o),
(597,518,c),
(597,188,l),
(552,114,o),
(480,71,o),
(381,71,cs)
);
}
);
width = 1120;
}
);
unicode = 338;
},
{
glyphname = P;
kernLeft = _kern1;
lastChange = "2023-07-18 14:39:23 +0000";
layers = (
{
anchors = (
{
name = bottom;
pos = (312,0);
},
{
name = top;
pos = (312,707);
}
);
background = {
shapes = (
{
closed = 1;
nodes = (
(135,0,l),
(135,250,l),
(308,250,ls),
(456,250,o),
(569,324,o),
(569,480,cs),
(569,636,o),
(479,707,o),
(328,707,cs),
(93,707,l),
(93,0,l)
);
},
{
closed = 1;
nodes = (
(135,669,l),
(322,669,ls),
(447,669,o),
(525,617,o),
(525,484,cs),
(525,346,o),
(437,287,o),
(306,287,cs),
(135,287,l)
);
}
);
};
layerId = "C40D20BD-ED25-41E0-AB09-CBCE7F0BE71F";
shapes = (
{
closed = 1;
nodes = (
(135,0,l),
(135,250,l),
(308,250,ls),
(456,250,o),
(569,324,o),
(569,480,cs),
(569,636,o),
(479,707,o),
(328,707,cs),
(93,707,l),
(93,0,l)
);
},
{
closed = 1;
nodes = (
(135,669,l),
(322,669,ls),
(447,669,o),
(525,617,o),
(525,484,cs),
(525,346,o),
(437,287,o),
(306,287,cs),
(135,287,l)
);
}
);
width = 624;
},
{
anchors = (
{
name = bottom;
pos = (335,0);
},
{
name = top;
pos = (335,708);
}
);
background = {
shapes = (
{
closed = 1;
nodes = (
(248,0,l),
(248,199,l),
(357,199,ls),
(520,199,o),
(645,282,o),
(645,457,cs),
(645,646,o),
(529,708,o),
(364,708,cs),
(67,708,l),
(67,0,l)
);
},
{
closed = 1;
nodes = (
(248,540,l),
(356,540,ls),
(436,540,o),
(467,510,o),
(467,456,cs),
(467,395,o),
(426,360,o),
(357,360,cs),
(248,360,l)
);
}
);
};
layerId = "23E38C8A-2B24-4DB5-9E17-0B4F7F415987";
shapes = (
{
closed = 1;
nodes = (
(248,0,l),
(248,199,l),
(357,199,ls),
(520,199,o),
(645,282,o),
(645,457,cs),
(645,646,o),
(529,708,o),
(364,708,cs),
(67,708,l),
(67,0,l)
);
},
{
closed = 1;
nodes = (
(248,540,l),
(356,540,ls),
(436,540,o),
(467,510,o),
(467,456,cs),
(467,395,o),
(426,360,o),
(357,360,cs),
(248,360,l)
);
}
);
width = 669;
},
{
anchors = (
{
name = bottom;
pos = (315,0);
},
{
name = top;
pos = (315,707);
}
);
background = {
shapes = (
{
closed = 1;
nodes = (
(174,0,l),
(174,233,l),
(314,233,ls),
(391,233,o),
(457,254,o),
(500,289,cs),
(551,329,o),
(581,391,o),
(581,472,cs),
(581,632,o),
(488,707,o),
(332,707,cs),
(87,707,l),
(87,0,l)
);
},
{
closed = 1;
nodes = (
(174,628,l),
(328,628,ls),
(437,628,o),
(492,577,o),
(492,476,cs),
(492,415,o),
(474,379,o),
(443,352,cs),
(412,324,o),
(361,312,o),
(310,312,cs),
(174,312,l)
);
}
);
};
layerId = "4D7D8508-C814-4895-A1FC-EEB9C269F35C";
shapes = (
{
closed = 1;
nodes = (
(174,0,l),
(174,233,l),
(314,233,ls),
(469,233,o),
(581,315,o),
(581,472,cs),
(581,632,o),
(488,707,o),
(332,707,cs),
(87,707,l),
(87,0,l)
);
},
{
closed = 1;
nodes = (
(174,628,l),
(328,628,ls),
(437,628,o),
(492,577,o),
(492,476,cs),
(492,360,o),
(418,312,o),
(310,312,cs),
(174,312,l)
);
}
);
width = 630;
}
);
unicode = 80;
},
{
glyphname = Thorn;
kernLeft = _kern1;
lastChange = "2023-07-18 14:39:23 +0000";
layers = (
{
anchors = (
{
name = bottom;
pos = (312,0);
},
{
name = top;
pos = (312,707);
}
);
background = {
shapes = (
{
closed = 1;
nodes = (
(135,0,l),
(135,125,l),
(309,125,ls),
(456,125,o),
(569,199,o),
(569,355,cs),
(569,511,o),
(479,582,o),
(328,582,cs),
(135,582,l),
(135,707,l),
(93,707,l),
(93,0,l)
);
},
{
closed = 1;
nodes = (
(135,544,l),
(322,544,ls),
(447,544,o),
(525,492,o),
(525,359,cs),
(525,221,o),
(434,162,o),
(305,162,cs),
(135,162,l)
);
}
);
};
layerId = "C40D20BD-ED25-41E0-AB09-CBCE7F0BE71F";
shapes = (
{
closed = 1;
nodes = (
(135,0,l),
(135,125,l),
(309,125,ls),
(456,125,o),
(569,199,o),
(569,355,cs),
(569,511,o),
(479,582,o),
(328,582,cs),
(135,582,l),
(135,707,l),
(93,707,l),
(93,0,l)
);
},
{
closed = 1;
nodes = (
(135,544,l),
(322,544,ls),
(447,544,o),
(525,492,o),
(525,359,cs),
(525,221,o),
(434,162,o),
(305,162,cs),
(135,162,l)
);
}
);
width = 624;
},
{
anchors = (
{
name = bottom;
pos = (330,0);
},
{
name = top;
pos = (330,708);
}
);
background = {
shapes = (
{
closed = 1;
nodes = (
(248,0,l),
(248,99,l),
(347,99,ls),
(509,99,o),
(635,184,o),
(635,357,cs),
(635,541,o),
(525,608,o),
(354,608,cs),
(248,608,l),
(248,708,l),
(67,708,l),
(67,0,l)
);
},
{
closed = 1;
nodes = (
(248,440,l),
(346,440,ls),
(408,440,o),
(457,423,o),
(457,351,cs),
(457,286,o),
(407,260,o),
(347,260,cs),
(248,260,l)
);
}
);
};
layerId = "23E38C8A-2B24-4DB5-9E17-0B4F7F415987";
shapes = (
{
closed = 1;
nodes = (
(248,0,l),
(248,99,l),
(347,99,ls),
(509,99,o),
(635,184,o),
(635,357,cs),
(635,541,o),
(525,608,o),
(354,608,cs),
(248,608,l),
(248,708,l),
(67,708,l),
(67,0,l)
);
},
{
closed = 1;
nodes = (
(248,440,l),
(346,440,ls),
(408,440,o),
(457,423,o),
(457,351,cs),
(457,286,o),
(407,260,o),
(347,260,cs),
(248,260,l)
);
}
);
width = 660;
},
{
anchors = (
{
name = bottom;
pos = (315,0);
},
{
name = top;
pos = (315,707);
}
);
background = {
shapes = (
{
closed = 1;
nodes = (
(174,0,l),
(174,119,l),
(314,119,ls),
(464,119,o),
(581,192,o),
(581,353,cs),
(581,514,o),
(487,583,o),
(332,583,cs),
(174,583,l),
(174,707,l),
(87,707,l),
(87,0,l)
);
},
{
closed = 1;
nodes = (
(174,504,l),
(328,504,ls),
(437,504,o),
(492,458,o),
(492,357,cs),
(492,242,o),
(419,198,o),
(310,198,cs),
(174,198,l)
);
}
);
};
layerId = "4D7D8508-C814-4895-A1FC-EEB9C269F35C";
shapes = (
{
closed = 1;
nodes = (
(174,0,l),
(174,119,l),
(314,119,ls),
(464,119,o),
(581,192,o),
(581,353,cs),
(581,514,o),
(487,583,o),
(332,583,cs),
(174,583,l),
(174,707,l),
(87,707,l),
(87,0,l)
);
},
{
closed = 1;
nodes = (
(174,504,l),
(328,504,ls),
(437,504,o),
(492,458,o),
(492,357,cs),
(492,242,o),
(419,198,o),
(310,198,cs),
(174,198,l)
);
}
);
width = 630;
}
);
unicode = 222;
},
{
glyphname = Q;
kernLeft = _kern3;
kernRight = _kern4;
lastChange = "2023-07-18 14:39:23 +0000";
layers = (
{
anchors = (
{
name = bottom;
pos = (384,0);
},
{
name = top;
pos = (384,707);
}
);
background = {
shapes = (
{
closed = 1;
nodes = (
(694,-104,l),
(583,50,l),
(670,119,o),
(713,226,o),
(713,353,cs),
(713,560,o),
(601,715,o),
(384,715,cs),
(166,715,o),
(54,561,o),
(54,353,cs),
(54,145,o),
(166,-8,o),
(384,-8,cs),
(441,-8,o),
(494,4,o),
(545,27,c),
(657,-129,l)
);
},
{
closed = 1;
nodes = (
(193,28,o),
(98,174,o),
(98,353,cs),
(98,531,o),
(191,679,o),
(384,679,cs),
(577,679,o),
(668,531,o),
(668,353,cs),
(668,173,o),
(579,28,o),
(384,28,cs)
);
}
);
};
layerId = "C40D20BD-ED25-41E0-AB09-CBCE7F0BE71F";
shapes = (
{
closed = 1;
nodes = (
(694,-104,l),
(583,50,l),
(670,119,o),
(713,226,o),
(713,353,cs),
(713,560,o),
(601,715,o),
(384,715,cs),
(166,715,o),
(54,561,o),
(54,353,cs),
(54,145,o),
(166,-8,o),
(384,-8,cs),
(441,-8,o),
(494,4,o),
(545,27,c),
(657,-129,l)
);
},
{
closed = 1;
nodes = (
(193,28,o),
(98,174,o),
(98,353,cs),
(98,531,o),
(191,679,o),
(384,679,cs),
(577,679,o),
(668,531,o),
(668,353,cs),
(668,173,o),
(579,28,o),
(384,28,cs)
);
}
);
width = 767;
},
{
anchors = (
{
name = bottom;
pos = (391,0);
},
{
name = top;
pos = (391,708);
}
);
background = {
shapes = (
{
closed = 1;
nodes = (
(754,-6,l),
(723,33,o),
(691,74,o),
(660,113,c),
(719,174,o),
(753,251,o),
(753,358,cs),
(753,579,o),
(608,717,o),
(392,717,cs),
(173,717,o),
(28,573,o),
(28,352,cs),
(28,135,o),
(169,-8,o),
(391,-8,cs),
(430,-8,o),
(477,0,o),
(516,15,c),
(615,-112,l)
);
},
{
closed = 1;
nodes = (
(262,163,o),
(213,260,o),
(213,351,cs),
(213,443,o),
(262,546,o),
(392,546,cs),
(520,546,o),
(568,446,o),
(568,358,cs),
(568,268,o),
(517,163,o),
(387,163,cs)
);
}
);
};
layerId = "23E38C8A-2B24-4DB5-9E17-0B4F7F415987";
shapes = (
{
closed = 1;
nodes = (
(754,-6,l),
(660,113,l),
(719,174,o),
(753,251,o),
(753,358,cs),
(753,579,o),
(608,717,o),
(392,717,cs),
(173,717,o),
(28,573,o),
(28,352,cs),
(28,135,o),
(169,-8,o),
(391,-8,cs),
(430,-8,o),
(477,0,o),
(516,15,c),
(615,-112,l)
);
},
{
closed = 1;
nodes = (
(262,163,o),
(213,260,o),
(213,351,cs),
(213,443,o),
(262,546,o),
(392,546,cs),
(520,546,o),
(568,446,o),
(568,358,cs),
(568,268,o),
(517,163,o),
(387,163,cs)
);
}
);
width = 782;
},
{
anchors = (
{
name = bottom;
pos = (381,0);
},
{
name = top;
pos = (381,707);
}
);
background = {
shapes = (
{
closed = 1;
nodes = (
(698,-74,l),
(597,66,l),
(673,131,o),
(713,232,o),
(713,353,cs),
(713,561,o),
(600,715,o),
(381,715,cs),
(161,715,o),
(48,561,o),
(48,353,cs),
(48,146,o),
(161,-8,o),
(381,-8,cs),
(435,-8,o),
(483,1,o),
(524,19,c),
(630,-126,l)
);
},
{
closed = 1;
nodes = (
(212,71,o),
(136,201,o),
(136,353,cs),
(136,506,o),
(214,636,o),
(381,636,cs),
(547,636,o),
(624,508,o),
(624,353,cs),
(624,199,o),
(549,71,o),
(381,71,cs)
);
}
);
};
layerId = "4D7D8508-C814-4895-A1FC-EEB9C269F35C";
shapes = (
{
closed = 1;
nodes = (
(698,-74,l),
(597,66,l),
(673,131,o),
(713,232,o),
(713,353,cs),
(713,561,o),
(600,715,o),
(381,715,cs),
(161,715,o),
(48,561,o),
(48,353,cs),
(48,146,o),
(161,-8,o),
(381,-8,cs),
(435,-8,o),
(483,1,o),
(524,19,c),
(630,-126,l)
);
},
{
closed = 1;
nodes = (
(212,71,o),
(136,201,o),
(136,353,cs),
(136,506,o),
(214,636,o),
(381,636,cs),
(547,636,o),
(624,508,o),
(624,353,cs),
(624,199,o),
(549,71,o),
(381,71,cs)
);
}
);
width = 761;
}
);
unicode = 81;
},
{
glyphname = R;
kernLeft = _kern1;
lastChange = "2023-07-18 14:39:23 +0000";
layers = (
{
anchors = (
{
name = bottom;
pos = (327,0);
},
{
name = top;
pos = (327,707);
}
);
background = {
shapes = (
{
closed = 1;
nodes = (
(135,0,l),
(135,286,l),
(377,286,l),
(531,0,l),
(579,0,l),
(421,293,l),
(536,318,o),
(595,388,o),
(595,495,cs),
(595,652,o),
(496,707,o),
(350,707,cs),
(93,707,l),
(93,0,l)
);
},
{
closed = 1;
nodes = (
(135,669,l),
(340,669,ls),
(460,669,o),
(551,634,o),
(551,498,cs),
(551,353,o),
(440,323,o),
(322,323,cs),
(135,323,l)
);
}
);
};
layerId = "C40D20BD-ED25-41E0-AB09-CBCE7F0BE71F";
shapes = (
{
closed = 1;
nodes = (
(135,0,l),
(135,286,l),
(377,286,l),
(531,0,l),
(579,0,l),
(421,293,l),
(536,318,o),
(595,388,o),
(595,495,cs),
(595,652,o),
(496,707,o),
(350,707,cs),
(93,707,l),
(93,0,l)
);
},
{
closed = 1;
nodes = (
(135,669,l),
(340,669,ls),
(460,669,o),
(551,634,o),
(551,498,cs),
(551,353,o),
(440,323,o),
(322,323,cs),
(135,323,l)
);
}
);
width = 654;
},
{
anchors = (
{
name = bottom;
pos = (355,0);
},
{
name = top;
pos = (355,708);
}
);
background = {
shapes = (
{
closed = 1;
nodes = (
(248,0,l),
(248,239,l),
(335,239,l),
(471,0,l),
(677,0,l),
(513,267,l),
(612,304,o),
(652,382,o),
(652,475,cs),
(652,673,o),
(494,708,o),
(366,708,cs),
(67,708,l),
(67,0,l)
);
},
{
closed = 1;
nodes = (
(248,540,l),
(370,540,ls),
(427,540,o),
(473,530,o),
(473,474,cs),
(473,424,o),
(435,398,o),
(367,398,cs),
(248,398,l)
);
}
);
};
layerId = "23E38C8A-2B24-4DB5-9E17-0B4F7F415987";
shapes = (
{
closed = 1;
nodes = (
(248,0,l),
(248,239,l),
(335,239,l),
(471,0,l),
(677,0,l),
(513,267,l),
(612,304,o),
(652,382,o),
(652,475,cs),
(652,673,o),
(494,708,o),
(366,708,cs),
(67,708,l),
(67,0,l)
);
},
{
closed = 1;
nodes = (
(248,540,l),
(370,540,ls),
(427,540,o),
(473,530,o),
(473,474,cs),
(473,424,o),
(435,398,o),
(367,398,cs),
(248,398,l)
);
}
);
width = 710;
},
{
anchors = (
{
name = bottom;
pos = (329,0);
},
{
name = top;
pos = (329,707);
}
);
background = {
shapes = (
{
closed = 1;
nodes = (
(174,0,l),
(174,265,l),
(359,265,l),
(500,0,l),
(595,0,l),
(447,280,l),
(531,304,o),
(605,368,o),
(605,486,cs),
(605,647,o),
(508,707,o),
(352,707,cs),
(87,707,l),
(87,0,l)
);
},
{
closed = 1;
nodes = (
(174,628,l),
(343,628,ls),
(455,628,o),
(517,590,o),
(516,489,cs),
(514,369,o),
(428,344,o),
(324,344,cs),
(174,344,l)
);
}
);
};
layerId = "4D7D8508-C814-4895-A1FC-EEB9C269F35C";
shapes = (
{
closed = 1;
nodes = (
(174,0,l),
(174,265,l),
(359,265,l),
(500,0,l),
(595,0,l),
(447,280,l),
(531,304,o),
(605,368,o),
(605,486,cs),
(605,647,o),
(508,707,o),
(352,707,cs),
(87,707,l),
(87,0,l)
);
},
{
closed = 1;
nodes = (
(174,628,l),
(343,628,ls),
(455,628,o),
(517,590,o),
(516,489,cs),
(514,369,o),
(428,344,o),
(324,344,cs),
(174,344,l)
);
}
);
width = 658;
}
);
unicode = 82;
},
{
glyphname = Racute;
kernLeft = _kern1;
lastChange = "2023-07-19 12:42:54 +0000";
layers = (
{
background = {
shapes = (
{
closed = 1;
nodes = (
(135,0,l),
(135,286,l),
(377,286,l),
(531,0,l),
(579,0,l),
(421,293,l),
(536,318,o),
(595,388,o),
(595,495,cs),
(595,652,o),
(496,707,o),
(350,707,cs),
(93,707,l),
(93,0,l)
);
},
{
closed = 1;
nodes = (
(135,669,l),
(340,669,ls),
(460,669,o),
(551,634,o),
(551,498,cs),
(551,353,o),
(440,323,o),
(322,323,cs),
(135,323,l)
);
},
{
closed = 1;
nodes = (
(322,796,l),
(410,923,l),
(360,923,l),
(284,796,l)
);
}
);
};
layerId = "C40D20BD-ED25-41E0-AB09-CBCE7F0BE71F";
shapes = (
{
ref = R;
},
{
pos = (327,180);
ref = acutecomb;
}
);
width = 654;
},
{
background = {
shapes = (
{
closed = 1;
nodes = (
(248,0,l),
(248,239,l),
(335,239,l),
(471,0,l),
(677,0,l),
(513,267,l),
(612,304,o),
(652,382,o),
(652,475,cs),
(652,673,o),
(494,708,o),
(366,708,cs),
(67,708,l),
(67,0,l)
);
},
{
closed = 1;
nodes = (
(248,540,l),
(370,540,ls),
(427,540,o),
(473,530,o),
(473,474,cs),
(473,424,o),
(435,398,o),
(367,398,cs),
(248,398,l)
);
},
{
closed = 1;
nodes = (
(383,758,l),
(554,950,l),
(367,950,l),
(235,758,l)
);
}
);
};
layerId = "23E38C8A-2B24-4DB5-9E17-0B4F7F415987";
shapes = (
{
ref = R;
},
{
pos = (355,181);
ref = acutecomb;
}
);
width = 710;
},
{
background = {
shapes = (
{
closed = 1;
nodes = (
(174,0,l),
(174,265,l),
(359,265,l),
(500,0,l),
(595,0,l),
(447,280,l),
(531,304,o),
(605,368,o),
(605,486,cs),
(605,647,o),
(508,707,o),
(352,707,cs),
(87,707,l),
(87,0,l)
);
},
{
closed = 1;
nodes = (
(174,628,l),
(343,628,ls),
(455,628,o),
(517,590,o),
(516,489,cs),
(514,369,o),
(428,344,o),
(324,344,cs),
(174,344,l)
);
},
{
closed = 1;
nodes = (
(324,786,l),
(424,927,l),
(332,927,l),
(247,786,l)
);
}
);
};
layerId = "4D7D8508-C814-4895-A1FC-EEB9C269F35C";
shapes = (
{
ref = R;
},
{
pos = (329,174);
ref = acutecomb;
}
);
width = 658;
}
);
unicode = 340;
},
{
glyphname = Rcaron;
kernLeft = _kern1;
lastChange = "2023-07-19 12:46:55 +0000";
layers = (
{
background = {
shapes = (
{
closed = 1;
nodes = (
(135,0,l),
(135,286,l),
(377,286,l),
(531,0,l),
(579,0,l),
(421,293,l),
(536,318,o),
(595,388,o),
(595,495,cs),
(595,652,o),
(496,707,o),
(350,707,cs),
(93,707,l),
(93,0,l)
);
},
{
closed = 1;
nodes = (
(135,669,l),
(340,669,ls),
(460,669,o),
(551,634,o),
(551,498,cs),
(551,353,o),
(440,323,o),
(322,323,cs),
(135,323,l)
);
},
{
closed = 1;
nodes = (
(342,796,l),
(453,923,l),
(409,923,l),
(327,826,l),
(242,923,l),
(199,923,l),
(310,796,l)
);
}
);
};
layerId = "C40D20BD-ED25-41E0-AB09-CBCE7F0BE71F";
shapes = (
{
ref = R;
},
{
pos = (327,180);
ref = caroncomb;
}
);
width = 654;
},
{
background = {
shapes = (
{
closed = 1;
nodes = (
(248,0,l),
(248,239,l),
(335,239,l),
(471,0,l),
(677,0,l),
(513,267,l),
(612,304,o),
(652,382,o),
(652,475,cs),
(652,673,o),
(494,708,o),
(366,708,cs),
(67,708,l),
(67,0,l)
);
},
{
closed = 1;
nodes = (
(248,540,l),
(370,540,ls),
(427,540,o),
(473,530,o),
(473,474,cs),
(473,424,o),
(435,398,o),
(367,398,cs),
(248,398,l)
);
},
{
closed = 1;
nodes = (
(404,758,l),
(570,950,l),
(404,950,l),
(346,866,l),
(285,950,l),
(119,950,l),
(287,758,l)
);
}
);
};
layerId = "23E38C8A-2B24-4DB5-9E17-0B4F7F415987";
shapes = (
{
ref = R;
},
{
pos = (354,181);
ref = caroncomb;
}
);
width = 710;
},
{
background = {
shapes = (
{
closed = 1;
nodes = (
(174,0,l),
(174,265,l),
(359,265,l),
(500,0,l),
(595,0,l),
(447,280,l),
(531,304,o),
(605,368,o),
(605,486,cs),
(605,647,o),
(508,707,o),
(352,707,cs),
(87,707,l),
(87,0,l)
);
},
{
closed = 1;
nodes = (
(174,628,l),
(343,628,ls),
(455,628,o),
(516,590,o),
(516,489,cs),
(516,369,o),
(428,344,o),
(324,344,cs),
(174,344,l)
);
},
{
closed = 1;
nodes = (
(354,786,l),
(488,949,l),
(403,949,l),
(325,853,l),
(247,949,l),
(160,949,l),
(295,786,l)
);
}
);
};
layerId = "4D7D8508-C814-4895-A1FC-EEB9C269F35C";
shapes = (
{
ref = R;
},
{
pos = (329,180);
ref = caroncomb;
}
);
width = 658;
}
);
unicode = 344;
},
{
glyphname = Rcommaaccent;
kernLeft = _kern1;
lastChange = "2023-07-19 12:54:42 +0000";
layers = (
{
background = {
shapes = (
{
closed = 1;
nodes = (
(135,0,l),
(135,286,l),
(377,286,l),
(531,0,l),
(579,0,l),
(421,293,l),
(536,318,o),
(595,388,o),
(595,495,cs),
(595,652,o),
(496,707,o),
(350,707,cs),
(93,707,l),
(93,0,l)
);
},
{
closed = 1;
nodes = (
(351,-275,o),
(381,-229,o),
(381,-172,cs),
(381,-144,o),
(365,-119,o),
(336,-119,cs),
(312,-119,o),
(295,-136,o),
(295,-159,cs),
(295,-195,o),
(329,-204,o),
(346,-198,c),
(341,-238,o),
(314,-267,o),
(291,-280,c),
(306,-300,l)
);
},
{
closed = 1;
nodes = (
(135,669,l),
(340,669,ls),
(460,669,o),
(551,634,o),
(551,498,cs),
(551,353,o),
(440,323,o),
(322,323,cs),
(135,323,l)
);
}
);
};
layerId = "C40D20BD-ED25-41E0-AB09-CBCE7F0BE71F";
shapes = (
{
ref = R;
},
{
pos = (327,0);
ref = commaaccentcomb;
}
);
width = 654;
},
{
background = {
shapes = (
{
closed = 1;
nodes = (
(248,0,l),
(248,239,l),
(335,239,l),
(471,0,l),
(677,0,l),
(513,267,l),
(612,304,o),
(652,382,o),
(652,475,cs),
(652,673,o),
(494,708,o),
(366,708,cs),
(67,708,l),
(67,0,l)
);
},
{
closed = 1;
nodes = (
(375,-272,o),
(444,-216,o),
(444,-134,cs),
(444,-75,o),
(414,-33,o),
(358,-32,cs),
(314,-32,o),
(276,-58,o),
(277,-106,cs),
(277,-150,o),
(311,-174,o),
(346,-175,c),
(338,-196,o),
(289,-231,o),
(265,-240,c),
(304,-297,l)
);
},
{
closed = 1;
nodes = (
(248,540,l),
(370,540,ls),
(427,540,o),
(473,530,o),
(473,474,cs),
(473,424,o),
(435,398,o),
(367,398,cs),
(248,398,l)
);
}
);
};
layerId = "23E38C8A-2B24-4DB5-9E17-0B4F7F415987";
shapes = (
{
ref = R;
},
{
pos = (354,0);
ref = commaaccentcomb;
}
);
width = 710;
},
{
background = {
shapes = (
{
closed = 1;
nodes = (
(174,0,l),
(174,265,l),
(359,265,l),
(500,0,l),
(595,0,l),
(447,280,l),
(531,304,o),
(605,368,o),
(605,486,cs),
(605,647,o),
(508,707,o),
(352,707,cs),
(87,707,l),
(87,0,l)
);
},
{
closed = 1;
nodes = (
(346,-285,o),
(394,-216,o),
(394,-149,c),
(397,-108,o),
(376,-70,o),
(328,-70,cs),
(297,-70,o),
(271,-91,o),
(271,-128,cs),
(271,-161,o),
(294,-182,o),
(329,-185,c),
(321,-217,o),
(295,-252,o),
(268,-271,c),
(292,-304,l)
);
},
{
closed = 1;
nodes = (
(174,628,l),
(343,628,ls),
(455,628,o),
(516,590,o),
(516,489,cs),
(516,369,o),
(428,344,o),
(324,344,cs),
(174,344,l)
);
}
);
};
layerId = "4D7D8508-C814-4895-A1FC-EEB9C269F35C";
shapes = (
{
ref = R;
},
{
pos = (329,0);
ref = commaaccentcomb;
}
);
width = 658;
}
);
unicode = 342;
},
{
glyphname = S;
kernLeft = _kern3;
kernRight = _kern4;
lastChange = "2023-07-18 14:39:23 +0000";
layers = (
{
anchors = (
{
name = bottom;
pos = (322,0);
},
{
name = top;
pos = (322,707);
}
);
background = {
shapes = (
{
closed = 1;
nodes = (
(457,-8,o),
(579,44,o),
(579,187,cs),
(579,272,o),
(514,323,o),
(433,347,cs),
(382,363,o),
(327,377,o),
(271,392,cs),
(193,414,o),
(129,444,o),
(129,535,cs),
(129,646,o),
(237,679,o),
(323,679,cs),
(402,679,o),
(487,648,o),
(511,562,c),
(556,562,l),
(532,674,o),
(433,715,o),
(324,715,cs),
(201,715,o),
(83,666,o),
(83,528,cs),
(83,401,o),
(189,368,o),
(288,344,cs),
(321,336,o),
(361,325,o),
(401,313,cs),
(477,291,o),
(534,262,o),
(534,176,cs),
(534,72,o),
(432,28,o),
(332,28,cs),
(245,28,o),
(153,61,o),
(110,149,c),
(63,149,l),
(103,33,o),
(217,-8,o),
(335,-8,cs)
);
}
);
};
layerId = "C40D20BD-ED25-41E0-AB09-CBCE7F0BE71F";
shapes = (
{
closed = 1;
nodes = (
(457,-8,o),
(579,44,o),
(579,187,cs),
(579,272,o),
(514,323,o),
(433,347,cs),
(382,363,o),
(327,377,o),
(271,392,cs),
(193,414,o),
(129,444,o),
(129,535,cs),
(129,646,o),
(237,679,o),
(323,679,cs),
(402,679,o),
(487,648,o),
(511,562,c),
(556,562,l),
(532,674,o),
(433,715,o),
(324,715,cs),
(201,715,o),
(83,666,o),
(83,528,cs),
(83,401,o),
(189,368,o),
(288,344,cs),
(321,336,o),
(361,325,o),
(401,313,cs),
(477,291,o),
(534,262,o),
(534,176,cs),
(534,72,o),
(432,28,o),
(332,28,cs),
(245,28,o),
(153,61,o),
(110,149,c),
(63,149,l),
(103,33,o),
(217,-8,o),
(335,-8,cs)
);
}
);
width = 643;
},
{
anchors = (
{
name = bottom;
pos = (333,0);
},
{
name = top;
pos = (333,708);
}
);
background = {
shapes = (
{
closed = 1;
nodes = (
(484,-8,o),
(627,54,o),
(627,221,cs),
(627,368,o),
(530,398,o),
(413,425,cs),
(348,440,ls),
(275,457,o),
(238,471,o),
(238,503,cs),
(238,535,o),
(277,551,o),
(325,551,cs),
(387,551,o),
(429,525,o),
(436,481,c),
(611,481,l),
(596,631,o),
(497,717,o),
(349,717,cs),
(209,717,o),
(59,667,o),
(59,506,cs),
(59,504,ls),
(59,340,o),
(181,304,o),
(318,275,cs),
(374,263,ls),
(419,253,o),
(445,241,o),
(445,211,cs),
(445,168,o),
(394,160,o),
(354,160,cs),
(287,160,o),
(232,182,o),
(219,239,c),
(37,239,l),
(54,68,o),
(185,-8,o),
(342,-8,cs)
);
}
);
};
layerId = "23E38C8A-2B24-4DB5-9E17-0B4F7F415987";
shapes = (
{
closed = 1;
nodes = (
(484,-8,o),
(627,54,o),
(627,221,cs),
(627,368,o),
(530,398,o),
(413,425,cs),
(391,430,o),
(370,435,o),
(348,440,cs),
(275,457,o),
(238,471,o),
(238,503,cs),
(238,535,o),
(277,551,o),
(325,551,cs),
(387,551,o),
(429,525,o),
(436,481,c),
(611,481,l),
(596,631,o),
(497,717,o),
(349,717,cs),
(249,717,o),
(59,692,o),
(59,504,cs),
(59,340,o),
(181,304,o),
(318,275,cs),
(337,271,o),
(355,267,o),
(374,263,cs),
(419,253,o),
(445,241,o),
(445,211,cs),
(445,168,o),
(394,160,o),
(354,160,cs),
(287,160,o),
(232,182,o),
(219,239,c),
(37,239,l),
(54,68,o),
(185,-8,o),
(342,-8,cs)
);
}
);
width = 665;
},
{
anchors = (
{
name = bottom;
pos = (326,0);
},
{
name = top;
pos = (326,707);
}
);
background = {
shapes = (
{
closed = 1;
nodes = (
(477,-8,o),
(594,47,o),
(594,203,cs),
(594,288,o),
(541,338,o),
(460,366,cs),
(392,390,o),
(308,396,o),
(244,423,cs),
(204,440,o),
(172,472,o),
(172,525,cs),
(172,613,o),
(257,636,o),
(332,636,cs),
(408,636,o),
(478,609,o),
(489,526,c),
(574,526,l),
(567,665,o),
(453,715,o),
(332,715,cs),
(207,715,o),
(82,666,o),
(82,517,cs),
(82,437,o),
(124,385,o),
(176,359,cs),
(246,324,o),
(338,315,o),
(413,292,cs),
(469,275,o),
(505,250,o),
(505,187,cs),
(505,104,o),
(429,71,o),
(348,71,cs),
(265,71,o),
(175,94,o),
(148,185,c),
(57,185,l),
(87,43,o),
(207,-8,o),
(342,-8,cs)
);
}
);
};
layerId = "4D7D8508-C814-4895-A1FC-EEB9C269F35C";
shapes = (
{
closed = 1;
nodes = (
(477,-8,o),
(594,47,o),
(594,203,cs),
(594,288,o),
(541,338,o),
(460,366,cs),
(392,390,o),
(308,396,o),
(244,423,cs),
(204,440,o),
(172,472,o),
(172,525,cs),
(172,613,o),
(257,636,o),
(332,636,cs),
(408,636,o),
(478,609,o),
(489,526,c),
(574,526,l),
(567,665,o),
(453,715,o),
(332,715,cs),
(207,715,o),
(82,666,o),
(82,517,cs),
(82,437,o),
(124,385,o),
(176,359,cs),
(246,324,o),
(338,315,o),
(413,292,cs),
(469,275,o),
(505,250,o),
(505,187,cs),
(505,104,o),
(429,71,o),
(348,71,cs),
(265,71,o),
(175,94,o),
(148,185,c),
(57,185,l),
(87,43,o),
(207,-8,o),
(342,-8,cs)
);
}
);
width = 652;
}
);
unicode = 83;
},
{
glyphname = Sacute;
kernLeft = _kern3;
kernRight = _kern4;
lastChange = "2023-07-19 12:42:54 +0000";
layers = (
{
background = {
shapes = (
{
closed = 1;
nodes = (
(457,-8,o),
(579,44,o),
(579,187,cs),
(579,272,o),
(514,323,o),
(433,347,cs),
(382,363,o),
(327,377,o),
(271,392,cs),
(193,414,o),
(129,444,o),
(129,535,cs),
(129,646,o),
(237,679,o),
(323,679,cs),
(402,679,o),
(487,648,o),
(511,562,c),
(556,562,l),
(532,674,o),
(433,715,o),
(324,715,cs),
(201,715,o),
(83,666,o),
(83,528,cs),
(83,401,o),
(189,368,o),
(288,344,cs),
(323,335,o),
(361,325,o),
(401,313,cs),
(477,291,o),
(534,262,o),
(534,176,cs),
(534,72,o),
(432,28,o),
(332,28,cs),
(245,28,o),
(153,61,o),
(110,149,c),
(63,149,l),
(103,33,o),
(217,-8,o),
(335,-8,cs)
);
},
{
closed = 1;
nodes = (
(337,796,l),
(425,923,l),
(375,923,l),
(299,796,l)
);
}
);
};
layerId = "C40D20BD-ED25-41E0-AB09-CBCE7F0BE71F";
shapes = (
{
ref = S;
},
{
pos = (322,180);
ref = acutecomb;
}
);
width = 643;
},
{
background = {
shapes = (
{
closed = 1;
nodes = (
(484,-8,o),
(627,54,o),
(627,221,cs),
(627,368,o),
(529,395,o),
(413,425,cs),
(348,441,ls),
(276,460,o),
(238,471,o),
(238,503,cs),
(238,535,o),
(277,551,o),
(325,551,cs),
(387,551,o),
(429,525,o),
(436,481,c),
(611,481,l),
(596,631,o),
(497,715,o),
(349,717,c),
(209,717,o),
(69,667,o),
(59,506,c),
(59,504,ls),
(59,340,o),
(181,304,o),
(318,275,cs),
(374,263,ls),
(419,253,o),
(445,241,o),
(445,211,cs),
(445,168,o),
(394,160,o),
(354,160,cs),
(287,160,o),
(232,182,o),
(219,239,c),
(37,239,l),
(54,68,o),
(185,-8,o),
(342,-8,cs)
);
},
{
closed = 1;
nodes = (
(381,758,l),
(552,950,l),
(365,950,l),
(233,758,l)
);
}
);
};
layerId = "23E38C8A-2B24-4DB5-9E17-0B4F7F415987";
shapes = (
{
ref = S;
},
{
pos = (333,181);
ref = acutecomb;
}
);
width = 665;
},
{
background = {
shapes = (
{
closed = 1;
nodes = (
(477,-8,o),
(594,47,o),
(594,203,cs),
(594,288,o),
(541,338,o),
(460,366,cs),
(392,390,o),
(308,396,o),
(244,423,cs),
(204,440,o),
(172,472,o),
(172,525,cs),
(172,613,o),
(257,636,o),
(332,636,cs),
(408,636,o),
(478,609,o),
(489,526,c),
(574,526,l),
(567,667,o),
(454,715,o),
(332,715,cs),
(207,715,o),
(82,666,o),
(82,517,cs),
(82,437,o),
(124,385,o),
(176,359,cs),
(246,324,o),
(338,315,o),
(413,292,cs),
(469,275,o),
(505,250,o),
(505,187,cs),
(505,104,o),
(429,71,o),
(348,71,cs),
(265,71,o),
(175,94,o),
(148,185,c),
(57,185,l),
(87,43,o),
(207,-8,o),
(342,-8,cs)
);
},
{
closed = 1;
nodes = (
(352,786,l),
(452,927,l),
(360,927,l),
(275,786,l)
);
}
);
};
layerId = "4D7D8508-C814-4895-A1FC-EEB9C269F35C";
shapes = (
{
ref = S;
},
{
pos = (326,174);
ref = acutecomb;
}
);
width = 652;
}
);
unicode = 346;
},
{
glyphname = Scaron;
kernLeft = _kern3;
kernRight = _kern4;
lastChange = "2023-07-19 12:46:55 +0000";
layers = (
{
background = {
shapes = (
{
closed = 1;
nodes = (
(457,-8,o),
(579,44,o),
(579,187,cs),
(579,272,o),
(514,323,o),
(433,347,cs),
(382,363,o),
(327,377,o),
(271,392,cs),
(193,414,o),
(129,444,o),
(129,535,cs),
(129,646,o),
(237,679,o),
(323,679,cs),
(402,679,o),
(487,648,o),
(511,562,c),
(556,562,l),
(532,674,o),
(433,715,o),
(324,715,cs),
(201,715,o),
(83,666,o),
(83,528,cs),
(83,401,o),
(189,368,o),
(288,344,cs),
(323,335,o),
(361,325,o),
(401,313,cs),
(477,291,o),
(534,262,o),
(534,176,cs),
(534,72,o),
(432,28,o),
(332,28,cs),
(245,28,o),
(153,61,o),
(110,149,c),
(63,149,l),
(103,33,o),
(217,-8,o),
(335,-8,cs)
);
},
{
closed = 1;
nodes = (
(346,796,l),
(457,923,l),
(413,923,l),
(331,826,l),
(246,923,l),
(203,923,l),
(314,796,l)
);
}
);
};
layerId = "C40D20BD-ED25-41E0-AB09-CBCE7F0BE71F";
shapes = (
{
ref = S;
},
{
pos = (322,180);
ref = caroncomb;
}
);
width = 643;
},
{
background = {
shapes = (
{
closed = 1;
nodes = (
(484,-8,o),
(627,54,o),
(627,221,cs),
(627,368,o),
(529,395,o),
(413,425,cs),
(348,441,ls),
(276,460,o),
(238,471,o),
(238,503,cs),
(238,535,o),
(277,551,o),
(325,551,cs),
(387,551,o),
(429,525,o),
(436,481,c),
(611,481,l),
(596,631,o),
(488,717,o),
(340,717,cs),
(192,717,o),
(59,661,o),
(59,504,cs),
(59,340,o),
(181,304,o),
(318,275,cs),
(374,263,ls),
(419,253,o),
(445,241,o),
(445,211,cs),
(445,168,o),
(394,160,o),
(354,160,cs),
(287,160,o),
(232,182,o),
(219,239,c),
(37,239,l),
(54,68,o),
(185,-8,o),
(342,-8,cs)
);
},
{
closed = 1;
nodes = (
(402,758,l),
(568,950,l),
(402,950,l),
(344,866,l),
(283,950,l),
(117,950,l),
(285,758,l)
);
}
);
};
layerId = "23E38C8A-2B24-4DB5-9E17-0B4F7F415987";
shapes = (
{
ref = S;
},
{
pos = (332,181);
ref = caroncomb;
}
);
width = 665;
},
{
background = {
shapes = (
{
closed = 1;
nodes = (
(477,-8,o),
(594,47,o),
(594,203,cs),
(594,288,o),
(541,338,o),
(460,366,cs),
(392,390,o),
(308,396,o),
(244,423,cs),
(204,440,o),
(172,472,o),
(172,525,cs),
(172,613,o),
(257,636,o),
(332,636,cs),
(408,636,o),
(478,609,o),
(489,526,c),
(574,526,l),
(570,610,o),
(526,661,o),
(466,689,cs),
(427,707,o),
(385,715,o),
(332,715,cs),
(207,716,o),
(82,666,o),
(82,517,cs),
(82,437,o),
(124,385,o),
(176,359,cs),
(246,324,o),
(338,315,o),
(413,292,cs),
(469,275,o),
(505,250,o),
(505,187,cs),
(505,104,o),
(429,71,o),
(348,71,cs),
(265,71,o),
(175,94,o),
(148,185,c),
(57,185,l),
(87,43,o),
(207,-8,o),
(342,-8,cs)
);
},
{
closed = 1;
nodes = (
(363,786,l),
(497,949,l),
(412,949,l),
(334,853,l),
(256,949,l),
(169,949,l),
(304,786,l)
);
}
);
};
layerId = "4D7D8508-C814-4895-A1FC-EEB9C269F35C";
shapes = (
{
ref = S;
},
{
pos = (326,180);
ref = caroncomb;
}
);
width = 652;
}
);
unicode = 352;
},
{
glyphname = Scedilla;
kernLeft = _kern3;
kernRight = _kern4;
lastChange = "2023-07-19 12:59:04 +0000";
layers = (
{
background = {
shapes = (
{
closed = 1;
nodes = (
(349,-256,o),
(429,-232,o),
(429,-153,cs),
(429,-101,o),
(397,-77,o),
(352,-76,cs),
(343,-76,o),
(332,-76,o),
(320,-79,c),
(342,-8,l),
(461,-5,o),
(579,46,o),
(579,187,cs),
(579,272,o),
(514,323,o),
(433,347,cs),
(382,363,o),
(327,377,o),
(271,392,cs),
(193,414,o),
(129,444,o),
(129,535,cs),
(129,646,o),
(237,679,o),
(323,679,cs),
(402,679,o),
(487,648,o),
(511,562,c),
(556,562,l),
(532,674,o),
(433,715,o),
(324,715,cs),
(201,715,o),
(83,666,o),
(83,528,cs),
(83,401,o),
(189,368,o),
(288,344,cs),
(323,335,o),
(361,325,o),
(401,313,cs),
(477,291,o),
(534,262,o),
(534,176,cs),
(534,72,o),
(432,28,o),
(332,28,cs),
(245,28,o),
(153,61,o),
(110,149,c),
(63,149,l),
(100,41,o),
(204,-4,o),
(316,-7,c),
(285,-108,l),
(300,-103,o),
(324,-100,o),
(339,-100,cs),
(375,-100,o),
(399,-112,o),
(399,-151,cs),
(399,-220,o),
(320,-225,o),
(281,-222,c),
(281,-248,l)
);
}
);
};
layerId = "C40D20BD-ED25-41E0-AB09-CBCE7F0BE71F";
shapes = (
{
ref = S;
},
{
pos = (345,0);
ref = cedillacomb;
}
);
width = 643;
},
{
background = {
shapes = (
{
closed = 1;
nodes = (
(389,-278,o),
(474,-234,o),
(474,-136,cs),
(474,-55,o),
(424,-31,o),
(373,-28,c),
(378,-6,l),
(502,5,o),
(618,72,o),
(618,221,cs),
(618,365,o),
(520,395,o),
(404,425,cs),
(339,441,ls),
(267,460,o),
(229,471,o),
(229,503,cs),
(229,535,o),
(268,551,o),
(316,551,cs),
(378,551,o),
(420,525,o),
(427,481,c),
(602,481,l),
(587,631,o),
(488,717,o),
(340,717,cs),
(200,717,o),
(60,667,o),
(50,506,c),
(50,504,ls),
(50,340,o),
(172,304,o),
(309,275,cs),
(367,263,ls),
(410,254,o),
(436,241,o),
(436,211,cs),
(436,168,o),
(385,160,o),
(345,160,cs),
(278,160,o),
(223,182,o),
(210,239,c),
(28,239,l),
(41,100,o),
(133,18,o),
(265,-3,c),
(232,-115,l),
(252,-107,o),
(343,-92,o),
(343,-140,cs),
(343,-170,o),
(306,-183,o),
(230,-167,c),
(230,-269,l),
(249,-274,o),
(269,-278,o),
(308,-278,cs)
);
}
);
};
layerId = "23E38C8A-2B24-4DB5-9E17-0B4F7F415987";
shapes = (
{
ref = S;
},
{
pos = (361,0);
ref = cedillacomb;
}
);
width = 665;
},
{
background = {
shapes = (
{
closed = 1;
nodes = (
(342,-253,o),
(436,-236,o),
(436,-135,cs),
(436,-88,o),
(408,-57,o),
(357,-57,cs),
(350,-57,o),
(342,-58,o),
(334,-59,c),
(345,-8,l),
(475,-5,o),
(585,51,o),
(585,203,cs),
(585,288,o),
(532,338,o),
(451,366,cs),
(383,390,o),
(299,396,o),
(235,423,cs),
(195,440,o),
(163,472,o),
(163,525,cs),
(163,613,o),
(247,636,o),
(322,636,cs),
(398,636,o),
(469,609,o),
(480,526,c),
(565,526,l),
(558,667,o),
(442,715,o),
(320,715,cs),
(200,715,o),
(73,666,o),
(73,517,cs),
(73,437,o),
(111,390,o),
(167,359,cs),
(235,321,o),
(330,315,o),
(404,292,cs),
(460,275,o),
(496,250,o),
(496,187,cs),
(496,104,o),
(420,71,o),
(339,71,cs),
(256,71,o),
(166,94,o),
(139,185,c),
(48,185,l),
(72,60,o),
(169,6,o),
(284,-5,c),
(258,-119,l),
(275,-112,o),
(297,-110,o),
(310,-110,cs),
(324,-110,o),
(367,-109,o),
(367,-145,cs),
(367,-197,o),
(301,-201,o),
(256,-198,c),
(256,-250,l),
(267,-253,o),
(281,-253,o),
(292,-253,cs)
);
}
);
};
layerId = "4D7D8508-C814-4895-A1FC-EEB9C269F35C";
shapes = (
{
ref = S;
},
{
pos = (352,-2);
ref = cedillacomb;
}
);
width = 652;
}
);
unicode = 350;
},
